<?xml version="1.0" encoding="UTF-8" standalone="no"?>
<svg
   xmlns:dc="http://purl.org/dc/elements/1.1/"
   xmlns:cc="http://creativecommons.org/ns#"
   xmlns:rdf="http://www.w3.org/1999/02/22-rdf-syntax-ns#"
   xmlns:svg="http://www.w3.org/2000/svg"
   xmlns="http://www.w3.org/2000/svg"
   xmlns:sodipodi="http://sodipodi.sourceforge.net/DTD/sodipodi-0.dtd"
   xmlns:inkscape="http://www.inkscape.org/namespaces/inkscape"
   width="2805mm"
   height="1203mm"
   viewBox="-1 -1202 2805 1203"
   version="1.1"
   id="svg6"
   sodipodi:docname="bagkanal1.svg"
   inkscape:version="1.0.2 (e86c870879, 2021-01-15, custom)">
  <metadata
     id="metadata12">
    <rdf:RDF>
      <cc:Work
         rdf:about="">
        <dc:format>image/svg+xml</dc:format>
        <dc:type
           rdf:resource="http://purl.org/dc/dcmitype/StillImage" />
      </cc:Work>
    </rdf:RDF>
  </metadata>
  <defs
     id="defs10" />
  <sodipodi:namedview
     pagecolor="#ffffff"
     bordercolor="#666666"
     borderopacity="1"
     objecttolerance="10"
     gridtolerance="10"
     guidetolerance="10"
     inkscape:pageopacity="0"
     inkscape:pageshadow="2"
     inkscape:window-width="1600"
     inkscape:window-height="837"
     id="namedview8"
     showgrid="false"
     inkscape:zoom="0.084363035"
     inkscape:cx="5301.2315"
     inkscape:cy="2273.2441"
     inkscape:window-x="0"
     inkscape:window-y="0"
     inkscape:window-maximized="1"
     inkscape:current-layer="svg6" />
  <title
     id="title2">OpenSCAD Model</title>
  <path
     d="m 9.035,-2.965 h 5.93 v 3.0000037 h 6.07 V -2.965 h 5.93 v 3.0000037 h 6.07 V -2.965 h 5.93 v 3.0000037 h 6.07 V -2.965 h 5.93 v 3.0000037 h 6.07 V -2.965 h 5.93 v 3.0000037 h 6.07 V -2.965 h 5.93 v 3.0000037 h 6.07 V -2.965 h 5.93 v 3.0000037 h 6.07 V -2.965 h 5.93 v 3.0000037 h 6.07 V -2.965 h 5.93 v 3.0000037 h 6.07 V -2.965 h 5.93 v 3.0000037 h 6.07 V -2.965 h 5.93 v 3.0000037 h 6.07 V -2.965 h 5.93 v 3.0000037 h 6.07 V -2.965 h 5.93 v 3.0000037 h 6.07 V -2.965 h 5.93 v 3.0000037 h 6.07 V -2.965 h 5.93 v 3.0000037 h 6.07 V -2.965 h 5.93 v 3.0000037 h 6.07 V -2.965 h 5.93 v 3.0000037 h 6.07 V -2.965 h 5.93 v 3.0000037 h 6.07 V -2.965 h 5.93 v 3.0000037 h 6.07 V -2.965 h 5.93 v 3.0000037 h 6.07 V -2.965 h 5.93 v 3.0000037 h 6.07 V -2.965 h 5.93 v 3.0000037 h 6.07 V -2.965 h 5.93 v 3.0000037 h 6.07 V -2.965 h 5.93 v 3.0000037 h 9.07 V -9.035 h -3 v -6.2377 h 3 v -6.3777 h -3 v -6.2377 h 3 v -6.3777 h -3 v -6.2376 h 3 v -6.3777 h -3 v -6.2377 h 3 v -6.3777 h -3 v -6.2377 h 3 v -6.3777 h -3 v -6.2377 h 3 v -6.3777 h -3 v -6.2377 h 3 v -9.07 h -9.07 v 3 h -5.93 v -3 h -6.07 v 3 h -5.93 v -3 h -6.07 v 3 h -5.93 v -3 h -6.07 v 3 h -5.93 v -3 h -6.07 v 3 h -5.93 v -3 h -6.07 v 3 h -5.93 v -3 h -6.07 v 3 h -5.93 v -3 h -6.07 v 3 h -5.93 v -3 h -6.07 v 3 h -5.93 v -3 h -6.07 v 3 h -5.93 v -3 h -6.07 v 3 h -5.93 v -3 h -6.07 v 3 h -5.93 v -3 h -6.07 v 3 h -5.93 v -3 h -6.07 v 3 h -5.93 v -3 h -6.07 v 3 h -5.93 v -3 h -6.07 v 3 h -5.93 v -3 h -6.07 v 3 h -5.93 v -3 h -6.07 v 3 h -5.93 v -3 h -6.07 v 3 h -5.93 v -3 h -6.07 v 3 h -5.93 v -3 h -6.07 v 3 h -5.93 v -3 h -6.07 v 3 h -5.93 v -3 h -6.07 v 3 h -5.93 v -3 h -6.07 v 3 h -5.93 v -3 h -9.0700037 v 9.07 H 2.965 v 6.2377 h -3.0000037 v 6.3777 H 2.965 v 6.2377 h -3.0000037 v 6.3777 H 2.965 v 6.2376 h -3.0000037 v 6.3777 H 2.965 v 6.2377 h -3.0000037 v 6.3777 H 2.965 v 6.2377 h -3.0000037 v 6.3777 H 2.965 v 6.2377 h -3.0000037 v 6.3777 H 2.965 V -9.035 H -0.0350037 V 0.0350037 H 9.035 Z"
     id="path1430"
     style="fill:none;stroke:#000000;stroke-opacity:1;stroke-width:1.000125;stroke-miterlimit:4;stroke-dasharray:none" />
  <path
     d="m 614.195,-2.965 h 5.941 v 3.0000037 h 6.081 V -2.965 h 5.941 v 3.0000037 h 6.082 V -2.965 h 5.941 v 3.0000037 h 6.081 V -2.965 h 5.941 v 3.0000037 h 6.081 V -2.965 h 5.942 v 3.0000037 h 6.081 V -2.965 h 5.941 v 3.0000037 h 6.081 V -2.965 h 5.941 v 3.0000037 h 6.081 V -2.965 h 5.942 v 3.0000037 h 6.081 V -2.965 h 5.941 v 3.0000037 h 6.081 V -2.965 h 5.941 v 3.0000037 h 6.081 V -2.965 h 5.942 v 3.0000037 h 6.081 V -2.965 h 5.941 v 3.0000037 h 6.081 V -2.965 h 5.941 v 3.0000037 h 6.081 V -2.965 h 5.942 v 3.0000037 h 6.081 V -2.965 h 5.941 v 3.0000037 h 6.081 V -2.965 h 5.941 v 3.0000037 h 6.082 V -2.965 h 5.941 v 3.0000037 h 6.081 V -2.965 h 5.941 v 3.0000037 h 6.081 V -2.965 h 5.941 v 3.0000037 h 6.082 V -2.965 h 5.941 v 3.0000037 h 6.081 V -2.965 h 5.941 v 3.0000037 h 6.081 V -2.965 h 5.941 v 3.0000037 h 6.082 V -2.965 h 5.941 v 3.0000037 h 6.081 V -2.965 h 5.941 v 3.0000037 h 6.081 V -2.965 h 5.941 v 3.0000037 h 6.082 V -2.965 h 5.941 v 3.0000037 h 6.081 V -2.965 h 5.941 v 3.0000037 h 6.081 V -2.965 h 5.942 v 3.0000037 h 6.081 V -2.965 h 5.941 v 3.0000037 h 6.081 V -2.965 h 5.941 v 3.0000037 h 6.081 V -2.965 h 5.942 v 3.0000037 h 6.081 V -2.965 h 5.941 v 3.0000037 h 6.081 V -2.965 h 5.94 v 3.0000037 h 6.08 V -2.965 h 5.94 v 3.0000037 h 6.08 V -2.965 h 5.95 v 3.0000037 h 6.08 V -2.965 h 5.94 V 0.0350037 H 1047 V -2.965 h 5.94 v 3.0000037 h 6.08 V -2.965 h 5.94 v 3.0000037 h 6.08 V -2.965 h 5.95 v 3.0000037 h 6.08 V -2.965 h 5.94 v 3.0000037 h 6.08 V -2.965 h 5.94 v 3.0000037 h 6.08 V -2.965 h 5.94 v 3.0000037 h 6.08 V -2.965 h 5.94 v 3.0000037 h 6.09 V -2.965 h 5.94 v 3.0000037 h 6.08 V -2.965 h 5.94 v 3.0000037 h 6.08 V -2.965 h 5.94 v 3.0000037 h 6.08 V -2.965 h 5.94 v 3.0000037 h 6.09 V -2.965 h 5.94 v 3.0000037 h 6.08 V -2.965 h 5.94 v 3.0000037 h 6.08 V -2.965 h 5.94 v 3.0000037 h 6.08 V -2.965 h 5.94 v 3.0000037 h 6.08 V -2.965 h 5.95 v 3.0000037 h 6.08 V -2.965 h 5.94 v 3.0000037 h 6.08 V -2.965 h 5.94 v 3.0000037 h 6.08 V -2.965 h 5.94 v 3.0000037 h 6.08 V -2.965 h 5.95 v 3.0000037 h 6.08 V -2.965 h 5.94 v 3.0000037 h 6.08 V -2.965 h 5.94 v 3.0000037 h 6.08 V -2.965 h 5.94 v 3.0000037 h 6.08 V -2.965 h 5.94 v 3.0000037 h 6.09 V -2.965 h 5.94 v 3.0000037 h 6.08 V -2.965 h 5.94 v 3.0000037 h 6.08 V -2.965 h 5.94 v 3.0000037 h 6.08 V -2.965 h 5.94 v 3.0000037 h 6.09 V -2.965 h 5.94 v 3.0000037 h 6.08 V -2.965 h 5.94 v 3.0000037 h 6.08 V -2.965 h 5.94 v 3.0000037 h 6.08 V -2.965 h 5.94 v 3.0000037 h 6.08 V -2.965 h 5.95 v 3.0000037 h 6.08 V -2.965 h 5.94 v 3.0000037 h 6.08 V -2.965 h 5.94 v 3.0000037 h 6.08 V -2.965 h 5.94 v 3.0000037 h 6.08 V -2.965 h 5.95 v 3.0000037 h 6.08 V -2.965 h 5.94 v 3.0000037 h 6.08 V -2.965 h 5.94 v 3.0000037 h 6.08 V -2.965 h 5.94 v 3.0000037 h 6.08 V -2.965 h 5.94 v 3.0000037 h 6.09 V -2.965 h 5.94 v 3.0000037 h 6.08 V -2.965 h 5.94 v 3.0000037 h 6.08 V -2.965 h 5.94 v 3.0000037 h 6.08 V -2.965 h 5.94 v 3.0000037 h 6.09 V -2.965 h 5.94 v 3.0000037 h 6.08 V -2.965 h 5.94 v 3.0000037 h 6.08 V -2.965 h 5.94 v 3.0000037 h 6.08 V -2.965 h 5.94 v 3.0000037 h 6.08 V -2.965 h 5.95 v 3.0000037 h 6.08 V -2.965 h 5.94 v 3.0000037 h 6.08 V -2.965 h 5.94 v 3.0000037 h 6.08 V -2.965 h 5.94 v 3.0000037 h 6.08 V -2.965 h 5.94 v 3.0000037 h 9.07 V -8.965 h 3 v -6.3777 h -3 v -6.2377 h 3 v -6.3777 h -3 v -6.2377 h 3 v -6.3777 h -3 v -6.2376 h 3 v -6.3777 h -3 v -6.2377 h 3 v -6.3777 h -3 v -6.2377 h 3 v -6.3777 h -3 v -6.2377 h 3 v -6.3777 h -3 v -9 h -9.07 v 3 h -5.94 v -3 h -6.08 v 3 h -5.94 v -3 h -6.08 v 3 h -5.94 v -3 h -6.08 v 3 h -5.94 v -3 h -6.08 v 3 h -5.95 v -3 h -6.08 v 3 h -5.94 v -3 h -6.08 v 3 h -5.94 v -3 h -6.08 v 3 h -5.94 v -3 h -6.08 v 3 h -5.94 v -3 h -6.09 v 3 h -5.94 v -3 h -6.08 v 3 h -5.94 v -3 h -6.08 v 3 h -5.94 v -3 h -6.08 v 3 h -5.94 v -3 h -6.09 v 3 h -5.94 v -3 h -6.08 v 3 h -5.94 v -3 h -6.08 v 3 h -5.94 v -3 h -6.08 v 3 h -5.94 v -3 h -6.08 v 3 h -5.95 v -3 h -6.08 v 3 h -5.94 v -3 h -6.08 v 3 h -5.94 v -3 h -6.08 v 3 h -5.94 v -3 h -6.08 v 3 h -5.95 v -3 h -6.08 v 3 h -5.94 v -3 h -6.08 v 3 h -5.94 v -3 h -6.08 v 3 h -5.94 v -3 h -6.08 v 3 h -5.94 v -3 h -6.09 v 3 h -5.94 v -3 h -6.08 v 3 h -5.94 v -3 h -6.08 v 3 h -5.94 v -3 h -6.08 v 3 h -5.94 v -3 h -6.09 v 3 h -5.94 v -3 h -6.08 v 3 h -5.94 v -3 h -6.08 v 3 h -5.94 v -3 h -6.08 v 3 h -5.94 v -3 h -6.08 v 3 h -5.95 v -3 h -6.08 v 3 h -5.94 v -3 h -6.08 v 3 h -5.94 v -3 h -6.08 v 3 h -5.94 v -3 h -6.08 v 3 h -5.95 v -3 h -6.08 v 3 h -5.94 v -3 h -6.08 v 3 h -5.94 v -3 h -6.08 v 3 h -5.94 v -3 h -6.08 v 3 h -5.94 v -3 h -6.09 v 3 h -5.94 v -3 h -6.08 v 3 h -5.94 v -3 h -6.08 v 3 h -5.94 v -3 h -6.08 v 3 h -5.94 v -3 h -6.09 v 3 h -5.94 v -3 h -6.08 v 3 h -5.94 v -3 h -6.08 v 3 h -5.94 v -3 h -6.08 v 3 h -5.94 v -3 h -6.08 v 3 h -5.95 v -3 h -6.08 v 3 h -5.94 v -3 h -6.08 v 3 H 1047 v -3 h -6.08 v 3 h -5.94 v -3 h -6.08 v 3 h -5.95 v -3 h -6.08 v 3 h -5.94 v -3 h -6.08 v 3 h -5.94 v -3 h -6.081 v 3 h -5.941 v -3 h -6.081 v 3 h -5.942 v -3 h -6.081 v 3 h -5.941 v -3 h -6.081 v 3 h -5.941 v -3 h -6.081 v 3 h -5.942 v -3 h -6.081 v 3 h -5.941 v -3 h -6.081 v 3 h -5.941 v -3 h -6.082 v 3 h -5.941 v -3 h -6.081 v 3 h -5.941 v -3 h -6.081 v 3 h -5.941 v -3 h -6.082 v 3 h -5.941 v -3 h -6.081 v 3 h -5.941 v -3 h -6.081 v 3 h -5.941 v -3 h -6.082 v 3 h -5.941 v -3 h -6.081 v 3 h -5.941 v -3 h -6.081 v 3 h -5.941 v -3 h -6.082 v 3 h -5.941 v -3 h -6.081 v 3 h -5.941 v -3 h -6.081 v 3 h -5.941 v -3 h -6.082 v 3 h -5.941 v -3 h -6.081 v 3 h -5.941 v -3 h -6.081 v 3 h -5.942 v -3 h -6.081 v 3 h -5.941 v -3 h -6.081 v 3 h -5.941 v -3 h -6.081 v 3 h -5.942 v -3 h -6.081 v 3 h -5.941 v -3 h -6.081 v 3 h -5.941 v -3 h -6.081 v 3 h -5.942 v -3 h -6.081 v 3 h -5.941 v -3 h -6.081 v 3 h -5.941 v -3 h -6.081 v 3 h -5.942 v -3 h -6.081 v 3 h -5.941 v -3 h -9.07 v 9 h -3 v 6.3777 h 3 v 6.2377 h -3 v 6.3777 h 3 v 6.2377 h -3 v 6.3777 h 3 v 6.2376 h -3 v 6.3777 h 3 v 6.2377 h -3 v 6.3777 h 3 v 6.2377 h -3 v 6.3777 h 3 v 6.2377 h -3 v 6.3777 h 3 v 9.0000037 h 9.07 z"
     id="path1428"
     style="fill:none;stroke:#000000;stroke-opacity:1;stroke-width:1.000125;stroke-miterlimit:4;stroke-dasharray:none" />
  <path
     d="m 316.115,-104.045 h 5.93 v 3 h 6.07 v -3 h 5.93 v 3 h 6.07 v -3 h 5.93 v 3 h 6.07 v -3 h 5.93 v 3 h 6.07 v -3 h 5.93 v 3 h 6.07 v -3 h 5.93 v 3 h 6.07 v -3 h 5.93 v 3 h 6.07 v -3 h 5.93 v 3 h 6.07 v -3 h 5.93 v 3 h 6.07 v -3 h 5.93 v 3 h 6.07 v -3 h 5.93 v 3 h 6.07 v -3 h 5.93 v 3 h 6.07 v -3 h 5.93 v 3 h 6.07 v -3 h 5.93 v 3 h 6.07 v -3 h 5.93 v 3 h 6.07 v -3 h 5.93 v 3 h 6.07 v -3 h 5.93 v 3 h 6.07 v -3 h 5.93 v 3 h 6.07 v -3 h 5.93 v 3 h 6.07 v -3 h 5.93 v 3 h 6.07 v -3 h 5.93 v 3 h 6.07 v -3 h 5.93 v 3 h 6.07 v -3 h 5.93 v 3 h 6.07 v -3 h 6 v -9 h 3 v -6.081 h -3 v -5.941 h 3 v -6.081 h -3 v -5.942 h 3 v -6.081 h -3 v -5.941 h 3 v -6.081 h -3 v -5.941 h 3 v -6.082 h -3 v -5.941 h 3 v -6.081 h -3 v -5.941 h 3 v -6.081 h -3 v -5.941 h 3 v -6.082 h -3 v -5.941 h 3 v -6.081 h -3 v -5.941 h 3 v -6.081 h -3 v -5.941 h 3 v -6.082 h -3 v -5.941 h 3 v -6.081 h -3 v -5.941 h 3 v -6.081 h -3 v -5.941 h 3 v -6.082 h -3 v -5.941 h 3 v -6.081 h -3 v -5.941 h 3 v -6.081 h -3 v -5.942 h 3 v -6.081 h -3 v -5.941 h 3 v -6.081 h -3 v -5.941 h 3 v -6.081 h -3 v -5.942 h 3 v -6.081 h -3 v -5.941 h 3 v -6.081 h -3 v -5.941 h 3 v -6.081 h -3 v -5.942 h 3 v -6.081 h -3 v -5.941 h 3 v -6.081 h -3 v -5.941 h 3 v -6.081 h -3 v -5.942 h 3 v -6.081 h -3 v -5.941 h 3 v -6.081 h -3 v -5.941 h 3 v -6.082 h -3 v -5.941 h 3 v -6.081 h -3 v -5.941 h 3 v -6.081 h -3 v -5.941 h 3 v -6.082 h -3 v -5.941 h 3 v -6.081 h -3 v -5.941 h 3 v -6.081 h -3 v -5.941 h 3 v -6.082 h -3 v -5.941 h 3 v -6.081 h -3 v -5.941 h 3 v -6.081 h -3 v -5.941 h 3 v -6.082 h -3 v -5.941 h 3 v -6.081 h -3 v -5.941 h 3 v -6.081 h -3 v -5.941 h 3 v -6.082 h -3 v -5.941 h 3 v -6.081 h -3 v -5.941 h 3 v -6.081 h -3 v -5.942 h 3 v -6.081 h -3 v -5.941 h 3 v -6.081 h -3 v -5.941 h 3 v -6.081 h -3 v -5.942 h 3 v -6.081 h -3 v -5.941 h 3 v -6.081 h -3 v -5.941 h 3 v -6.081 h -3 v -5.942 h 3 v -6.081 h -3 v -5.941 h 3 v -6.081 h -3 v -5.941 h 3 v -6.081 h -3 v -5.942 h 3 v -6.081 h -3 v -5.941 h 3 v -6.081 h -3 v -5.941 h 3 v -6.082 h -3 v -5.941 h 3 v -6.081 h -3 v -5.941 h 3 v -6.081 h -3 v -5.941 h 3 v -6.082 h -3 v -5.941 h 3 v -6.081 h -3 v -5.941 h 3 v -6.081 h -3 v -5.941 h 3 v -6.082 h -3 v -5.941 h 3 v -6.081 h -3 v -5.941 h 3 v -6.081 h -3 v -5.941 h 3 v -6.082 h -3 v -5.941 h 3 v -6.081 h -3 v -5.941 h 3 v -6.081 h -3 v -5.941 h 3 v -6.082 h -3 v -5.941 h 3 v -6.081 h -3 v -5.941 h 3 v -6.081 h -3 v -5.942 h 3 v -6.081 h -3 v -5.941 h 3 v -6.081 h -3 v -5.941 h 3 v -6.081 h -3 v -5.942 h 3 v -6.081 h -3 v -5.941 h 3 v -6.081 h -3 v -5.941 h 3 v -6.081 h -3 v -5.943 h 3 v -6.08 h -3 v -5.94 h 3 v -6.08 h -3 v -5.94 h 3 v -6.08 h -3 v -5.95 h 3 v -6.08 h -3 v -5.94 h 3 v -6.08 h -3 v -5.94 h 3 v -6.08 h -3 v -5.94 h 3 v -6.08 h -3 v -5.95 h 3 v -6.08 h -3 v -5.94 h 3 v -6.08 h -3 v -5.94 h 3 v -6.08 h -3 v -5.94 h 3 v -6.08 h -3 v -5.94 h 3 v -6.09 h -3 v -5.94 h 3 v -6.08 h -3 v -5.94 h 3 v -6.08 h -3 v -5.94 h 3 v -6.08 h -3 v -5.94 h 3 v -6.08 h -3 v -9 h -6 v -3 h -6.07 v 3 h -5.93 v -3 h -6.07 v 3 h -5.93 v -3 h -6.07 v 3 h -5.93 v -3 h -6.07 v 3 h -5.93 v -3 h -6.07 v 3 h -5.93 v -3 h -6.07 v 3 h -5.93 v -3 h -6.07 v 3 h -5.93 v -3 h -6.07 v 3 h -5.93 v -3 h -6.07 v 3 h -5.93 v -3 h -6.07 v 3 h -5.93 v -3 h -6.07 v 3 h -5.93 v -3 h -6.07 v 3 h -5.93 v -3 h -6.07 v 3 h -5.93 v -3 h -6.07 v 3 h -5.93 v -3 h -6.07 v 3 h -5.93 v -3 h -6.07 v 3 h -5.93 v -3 h -6.07 v 3 h -5.93 v -3 h -6.07 v 3 h -5.93 v -3 h -6.07 v 3 h -5.93 v -3 h -6.07 v 3 h -5.93 v -3 h -6.07 v 3 h -5.93 v -3 h -6.07 v 3 h -5.93 v -3 h -6.07 v 3 h -5.93 v -3 h -6.07 v 3 h -6 v 9 h -3 v 6.08 h 3 v 5.94 h -3 v 6.08 h 3 v 5.94 h -3 v 6.08 h 3 v 5.94 h -3 v 6.08 h 3 v 5.94 h -3 v 6.09 h 3 v 5.94 h -3 v 6.08 h 3 v 5.94 h -3 v 6.08 h 3 v 5.94 h -3 v 6.08 h 3 v 5.94 h -3 v 6.08 h 3 v 5.95 h -3 v 6.08 h 3 v 5.94 h -3 v 6.08 h 3 v 5.94 h -3 v 6.08 h 3 v 5.94 h -3 v 6.08 h 3 v 5.95 h -3 v 6.08 h 3 v 5.94 h -3 v 6.08 h 3 v 5.94 h -3 v 6.08 h 3 v 5.943 h -3 v 6.081 h 3 v 5.941 h -3 v 6.081 h 3 v 5.941 h -3 v 6.081 h 3 v 5.942 h -3 v 6.081 h 3 v 5.941 h -3 v 6.081 h 3 v 5.941 h -3 v 6.081 h 3 v 5.942 h -3 v 6.081 h 3 v 5.941 h -3 v 6.081 h 3 v 5.941 h -3 v 6.082 h 3 v 5.941 h -3 v 6.081 h 3 v 5.941 h -3 v 6.081 h 3 v 5.941 h -3 v 6.082 h 3 v 5.941 h -3 v 6.081 h 3 v 5.941 h -3 v 6.081 h 3 v 5.941 h -3 v 6.082 h 3 v 5.941 h -3 v 6.081 h 3 v 5.941 h -3 v 6.081 h 3 v 5.941 h -3 v 6.082 h 3 v 5.941 h -3 v 6.081 h 3 v 5.941 h -3 v 6.081 h 3 v 5.941 h -3 v 6.082 h 3 v 5.941 h -3 v 6.081 h 3 v 5.941 h -3 v 6.081 h 3 v 5.942 h -3 v 6.081 h 3 v 5.941 h -3 v 6.081 h 3 v 5.941 h -3 v 6.081 h 3 v 5.942 h -3 v 6.081 h 3 v 5.941 h -3 v 6.081 h 3 v 5.941 h -3 v 6.081 h 3 v 5.942 h -3 v 6.081 h 3 v 5.941 h -3 v 6.081 h 3 v 5.941 h -3 v 6.081 h 3 v 5.942 h -3 v 6.081 h 3 v 5.941 h -3 v 6.081 h 3 v 5.941 h -3 v 6.081 h 3 v 5.942 h -3 v 6.081 h 3 v 5.941 h -3 v 6.081 h 3 v 5.941 h -3 v 6.082 h 3 v 5.941 h -3 v 6.081 h 3 v 5.941 h -3 v 6.081 h 3 v 5.941 h -3 v 6.082 h 3 v 5.941 h -3 v 6.081 h 3 v 5.941 h -3 v 6.081 h 3 v 5.941 h -3 v 6.082 h 3 v 5.941 h -3 v 6.081 h 3 v 5.941 h -3 v 6.081 h 3 v 5.941 h -3 v 6.082 h 3 v 5.941 h -3 v 6.081 h 3 v 5.941 h -3 v 6.081 h 3 v 5.942 h -3 v 6.081 h 3 v 5.941 h -3 v 6.081 h 3 v 5.941 h -3 v 6.081 h 3 v 5.942 h -3 v 6.081 h 3 v 5.941 h -3 v 6.081 h 3 v 5.941 h -3 v 6.081 h 3 v 5.942 h -3 v 6.081 h 3 v 5.941 h -3 v 6.081 h 3 v 5.941 h -3 v 6.081 h 3 v 5.942 h -3 v 6.081 h 3 v 5.941 h -3 v 6.081 h 3 v 5.941 h -3 v 6.082 h 3 v 5.941 h -3 v 6.081 h 3 v 5.941 h -3 v 6.081 h 3 v 5.941 h -3 v 6.082 h 3 v 5.941 h -3 v 6.081 h 3 v 5.941 h -3 v 6.081 h 3 v 5.941 h -3 v 6.082 h 3 v 5.941 h -3 v 6.081 h 3 v 5.941 h -3 v 6.081 h 3 v 5.941 h -3 v 6.082 h 3 v 5.941 h -3 v 6.081 h 3 v 5.941 h -3 v 6.081 h 3 v 5.941 h -3 v 6.082 h 3 v 5.941 h -3 v 6.081 h 3 v 9 h 6 v 3 h 6.07 z"
     id="path1424"
     style="fill:none;stroke:#000000;stroke-opacity:1;stroke-width:1.000125;stroke-miterlimit:4;stroke-dasharray:none" />
  <path
     d="m 15.035,-104.045 h 5.93 v 3 h 6.07 v -3 h 5.93 v 3 h 6.07 v -3 h 5.93 v 3 h 6.07 v -3 h 5.93 v 3 h 6.07 v -3 h 5.93 v 3 h 6.07 v -3 h 5.93 v 3 h 6.07 v -3 h 5.93 v 3 h 6.07 v -3 h 5.93 v 3 h 6.07 v -3 h 5.93 v 3 h 6.07 v -3 h 5.93 v 3 h 6.07 v -3 h 5.93 v 3 h 6.07 v -3 h 5.93 v 3 h 6.07 v -3 h 5.93 v 3 h 6.07 v -3 h 5.93 v 3 h 6.07 v -3 h 5.93 v 3 h 6.07 v -3 h 5.93 v 3 h 6.07 v -3 h 5.93 v 3 h 6.07 v -3 h 5.93 v 3 h 6.07 v -3 h 5.93 v 3 h 6.07 v -3 h 5.93 v 3 h 6.07 v -3 h 5.93 v 3 h 6.07 v -3 h 5.93 v 3 h 6.07 v -3 h 5.93 v 3 h 6.07 v -3 h 6 v -9 h 3 v -6.081 h -3 v -5.941 h 3 v -6.081 h -3 v -5.942 h 3 v -6.081 h -3 v -5.941 h 3 v -6.081 h -3 v -5.941 h 3 v -6.082 h -3 v -5.941 h 3 v -6.081 h -3 v -5.941 h 3 v -6.081 h -3 v -5.941 h 3 v -6.082 h -3 v -5.941 h 3 v -6.081 h -3 v -5.941 h 3 v -6.081 h -3 v -5.941 h 3 v -6.082 h -3 v -5.941 h 3 v -6.081 h -3 v -5.941 h 3 v -6.081 h -3 v -5.941 h 3 v -6.082 h -3 v -5.941 h 3 v -6.081 h -3 v -5.941 h 3 v -6.081 h -3 v -5.942 h 3 v -6.081 h -3 v -5.941 h 3 v -6.081 h -3 v -5.941 h 3 v -6.081 h -3 v -5.942 h 3 v -6.081 h -3 v -5.941 h 3 v -6.081 h -3 v -5.941 h 3 v -6.081 h -3 v -5.942 h 3 v -6.081 h -3 v -5.941 h 3 v -6.081 h -3 v -5.941 h 3 v -6.081 h -3 v -5.942 h 3 v -6.081 h -3 v -5.941 h 3 v -6.081 h -3 v -5.941 h 3 v -6.082 h -3 v -5.941 h 3 v -6.081 h -3 v -5.941 h 3 v -6.081 h -3 v -5.941 h 3 v -6.082 h -3 v -5.941 h 3 v -6.081 h -3 v -5.941 h 3 v -6.081 h -3 v -5.941 h 3 v -6.082 h -3 v -5.941 h 3 v -6.081 h -3 v -5.941 h 3 v -6.081 h -3 v -5.941 h 3 v -6.082 h -3 v -5.941 h 3 v -6.081 h -3 v -5.941 h 3 v -6.081 h -3 v -5.941 h 3 v -6.082 h -3 v -5.941 h 3 v -6.081 h -3 v -5.941 h 3 v -6.081 h -3 v -5.942 h 3 v -6.081 h -3 v -5.941 h 3 v -6.081 h -3 v -5.941 h 3 v -6.081 h -3 v -5.942 h 3 v -6.081 h -3 v -5.941 h 3 v -6.081 h -3 v -5.941 h 3 v -6.081 h -3 v -5.942 h 3 v -6.081 h -3 v -5.941 h 3 v -6.081 h -3 v -5.941 h 3 v -6.081 h -3 v -5.942 h 3 v -6.081 h -3 v -5.941 h 3 v -6.081 h -3 v -5.941 h 3 v -6.082 h -3 v -5.941 h 3 v -6.081 h -3 v -5.941 h 3 v -6.081 h -3 v -5.941 h 3 v -6.082 h -3 v -5.941 h 3 v -6.081 h -3 v -5.941 h 3 v -6.081 h -3 v -5.941 h 3 v -6.082 h -3 v -5.941 h 3 v -6.081 h -3 v -5.941 h 3 v -6.081 h -3 v -5.941 h 3 v -6.082 h -3 v -5.941 h 3 v -6.081 h -3 v -5.941 h 3 v -6.081 h -3 v -5.941 h 3 v -6.082 h -3 v -5.941 h 3 v -6.081 h -3 v -5.941 h 3 v -6.081 h -3 v -5.942 h 3 v -6.081 h -3 v -5.941 h 3 v -6.081 h -3 v -5.941 h 3 v -6.081 h -3 v -5.942 h 3 v -6.081 h -3 v -5.941 h 3 v -6.081 h -3 v -5.941 h 3 v -6.081 h -3 v -5.943 h 3 v -6.08 h -3 v -5.94 h 3 v -6.08 h -3 v -5.94 h 3 v -6.08 h -3 v -5.95 h 3 v -6.08 h -3 v -5.94 h 3 v -6.08 h -3 v -5.94 h 3 v -6.08 h -3 v -5.94 h 3 v -6.08 h -3 v -5.95 h 3 v -6.08 h -3 v -5.94 h 3 v -6.08 h -3 v -5.94 h 3 v -6.08 h -3 v -5.94 h 3 v -6.08 h -3 v -5.94 h 3 v -6.09 h -3 v -5.94 h 3 v -6.08 h -3 v -5.94 h 3 v -6.08 h -3 v -5.94 h 3 v -6.08 h -3 v -5.94 h 3 v -6.08 h -3 v -9 h -6 v -3 h -6.07 v 3 h -5.93 v -3 h -6.07 v 3 h -5.93 v -3 h -6.07 v 3 h -5.93 v -3 h -6.07 v 3 h -5.93 v -3 h -6.07 v 3 h -5.93 v -3 h -6.07 v 3 h -5.93 v -3 h -6.07 v 3 h -5.93 v -3 h -6.07 v 3 h -5.93 v -3 h -6.07 v 3 h -5.93 v -3 h -6.07 v 3 h -5.93 v -3 h -6.07 v 3 h -5.93 v -3 h -6.07 v 3 h -5.93 v -3 h -6.07 v 3 h -5.93 v -3 h -6.07 v 3 h -5.93 v -3 h -6.07 v 3 h -5.93 v -3 h -6.07 v 3 h -5.93 v -3 h -6.07 v 3 h -5.93 v -3 h -6.07 v 3 h -5.93 v -3 h -6.07 v 3 h -5.93 v -3 h -6.07 v 3 h -5.93 v -3 h -6.07 v 3 h -5.93 v -3 h -6.07 v 3 h -5.93 v -3 h -6.07 v 3 h -5.93 v -3 h -6.07 v 3 h -6 v 9 h -3.0000037 v 6.08 H 2.965 v 5.94 h -3.0000037 v 6.08 H 2.965 v 5.94 h -3.0000037 v 6.08 H 2.965 v 5.94 h -3.0000037 v 6.08 H 2.965 v 5.94 h -3.0000037 v 6.09 H 2.965 v 5.94 h -3.0000037 v 6.08 H 2.965 v 5.94 h -3.0000037 v 6.08 H 2.965 v 5.94 h -3.0000037 v 6.08 H 2.965 v 5.94 h -3.0000037 v 6.08 H 2.965 v 5.95 h -3.0000037 v 6.08 H 2.965 v 5.94 h -3.0000037 v 6.08 H 2.965 v 5.94 h -3.0000037 v 6.08 H 2.965 v 5.94 h -3.0000037 v 6.08 H 2.965 v 5.95 h -3.0000037 v 6.08 H 2.965 v 5.94 h -3.0000037 v 6.08 H 2.965 v 5.94 h -3.0000037 v 6.08 H 2.965 v 5.943 h -3.0000037 v 6.081 H 2.965 v 5.941 h -3.0000037 v 6.081 H 2.965 v 5.941 h -3.0000037 v 6.081 H 2.965 v 5.942 h -3.0000037 v 6.081 H 2.965 v 5.941 h -3.0000037 v 6.081 H 2.965 v 5.941 h -3.0000037 v 6.081 H 2.965 v 5.942 h -3.0000037 v 6.081 H 2.965 v 5.941 h -3.0000037 v 6.081 H 2.965 v 5.941 h -3.0000037 v 6.082 H 2.965 v 5.941 h -3.0000037 v 6.081 H 2.965 v 5.941 h -3.0000037 v 6.081 H 2.965 v 5.941 h -3.0000037 v 6.082 H 2.965 v 5.941 h -3.0000037 v 6.081 H 2.965 v 5.941 h -3.0000037 v 6.081 H 2.965 v 5.941 h -3.0000037 v 6.082 H 2.965 v 5.941 h -3.0000037 v 6.081 H 2.965 v 5.941 h -3.0000037 v 6.081 H 2.965 v 5.941 h -3.0000037 v 6.082 H 2.965 v 5.941 h -3.0000037 v 6.081 H 2.965 v 5.941 h -3.0000037 v 6.081 H 2.965 v 5.941 h -3.0000037 v 6.082 H 2.965 v 5.941 h -3.0000037 v 6.081 H 2.965 v 5.941 h -3.0000037 v 6.081 H 2.965 v 5.942 h -3.0000037 v 6.081 H 2.965 v 5.941 h -3.0000037 v 6.081 H 2.965 v 5.941 h -3.0000037 v 6.081 H 2.965 v 5.942 h -3.0000037 v 6.081 H 2.965 v 5.941 h -3.0000037 v 6.081 H 2.965 v 5.941 h -3.0000037 v 6.081 H 2.965 v 5.942 h -3.0000037 v 6.081 H 2.965 v 5.941 h -3.0000037 v 6.081 H 2.965 v 5.941 h -3.0000037 v 6.081 H 2.965 v 5.942 h -3.0000037 v 6.081 H 2.965 v 5.941 h -3.0000037 v 6.081 H 2.965 v 5.941 h -3.0000037 v 6.081 H 2.965 v 5.942 h -3.0000037 v 6.081 H 2.965 v 5.941 h -3.0000037 v 6.081 H 2.965 v 5.941 h -3.0000037 v 6.082 H 2.965 v 5.941 h -3.0000037 v 6.081 H 2.965 v 5.941 h -3.0000037 v 6.081 H 2.965 v 5.941 h -3.0000037 v 6.082 H 2.965 v 5.941 h -3.0000037 v 6.081 H 2.965 v 5.941 h -3.0000037 v 6.081 H 2.965 v 5.941 h -3.0000037 v 6.082 H 2.965 v 5.941 h -3.0000037 v 6.081 H 2.965 v 5.941 h -3.0000037 v 6.081 H 2.965 v 5.941 h -3.0000037 v 6.082 H 2.965 v 5.941 h -3.0000037 v 6.081 H 2.965 v 5.941 h -3.0000037 v 6.081 H 2.965 v 5.942 h -3.0000037 v 6.081 H 2.965 v 5.941 h -3.0000037 v 6.081 H 2.965 v 5.941 h -3.0000037 v 6.081 H 2.965 v 5.942 h -3.0000037 v 6.081 H 2.965 v 5.941 h -3.0000037 v 6.081 H 2.965 v 5.941 h -3.0000037 v 6.081 H 2.965 v 5.942 h -3.0000037 v 6.081 H 2.965 v 5.941 h -3.0000037 v 6.081 H 2.965 v 5.941 h -3.0000037 v 6.081 H 2.965 v 5.942 h -3.0000037 v 6.081 H 2.965 v 5.941 h -3.0000037 v 6.081 H 2.965 v 5.941 h -3.0000037 v 6.082 H 2.965 v 5.941 h -3.0000037 v 6.081 H 2.965 v 5.941 h -3.0000037 v 6.081 H 2.965 v 5.941 h -3.0000037 v 6.082 H 2.965 v 5.941 h -3.0000037 v 6.081 H 2.965 v 5.941 h -3.0000037 v 6.081 H 2.965 v 5.941 h -3.0000037 v 6.082 H 2.965 v 5.941 h -3.0000037 v 6.081 H 2.965 v 5.941 h -3.0000037 v 6.081 H 2.965 v 5.941 h -3.0000037 v 6.082 H 2.965 v 5.941 h -3.0000037 v 6.081 H 2.965 v 5.941 h -3.0000037 v 6.081 H 2.965 v 5.941 h -3.0000037 v 6.082 H 2.965 v 5.941 h -3.0000037 v 6.081 H 2.965 v 9 h 6 v 3 h 6.07 z"
     id="path4"
     style="fill:none;stroke:#000000;stroke-opacity:1;stroke-width:1.000125;stroke-miterlimit:4;stroke-dasharray:none" />
</svg>
