<?xml version="1.0" encoding="UTF-8" standalone="no"?>
<svg
   xmlns:dc="http://purl.org/dc/elements/1.1/"
   xmlns:cc="http://creativecommons.org/ns#"
   xmlns:rdf="http://www.w3.org/1999/02/22-rdf-syntax-ns#"
   xmlns:svg="http://www.w3.org/2000/svg"
   xmlns="http://www.w3.org/2000/svg"
   xmlns:sodipodi="http://sodipodi.sourceforge.net/DTD/sodipodi-0.dtd"
   xmlns:inkscape="http://www.inkscape.org/namespaces/inkscape"
   width="2805mm"
   height="1203mm"
   viewBox="-1 -1202 2805 1203"
   version="1.1"
   id="svg6"
   sodipodi:docname="bagkanal-front.svg"
   inkscape:version="1.0.2 (e86c870879, 2021-01-15, custom)">
  <metadata
     id="metadata12">
    <rdf:RDF>
      <cc:Work
         rdf:about="">
        <dc:format>image/svg+xml</dc:format>
        <dc:type
           rdf:resource="http://purl.org/dc/dcmitype/StillImage" />
        <dc:title>OpenSCAD Model</dc:title>
      </cc:Work>
    </rdf:RDF>
  </metadata>
  <defs
     id="defs10" />
  <sodipodi:namedview
     pagecolor="#ffffff"
     bordercolor="#666666"
     borderopacity="1"
     objecttolerance="10"
     gridtolerance="10"
     guidetolerance="10"
     inkscape:pageopacity="0"
     inkscape:pageshadow="2"
     inkscape:window-width="1600"
     inkscape:window-height="837"
     id="namedview8"
     showgrid="false"
     inkscape:zoom="0.43227905"
     inkscape:cx="567.06142"
     inkscape:cy="3531.8827"
     inkscape:window-x="0"
     inkscape:window-y="0"
     inkscape:window-maximized="1"
     inkscape:current-layer="svg6"
     inkscape:document-rotation="0"
     inkscape:document-units="mm" />
  <title
     id="title2">OpenSCAD Model</title>
  <path
     d="M 14.07,-104.935 H 20 v 3 h 6.07 v -3 H 32 v 3 h 6.07 v -3 H 44 v 3 h 6.07 v -3 H 56 v 3 h 6.07 v -3 H 68 v 3 h 6.07 v -3 H 80 v 3 h 6.07 v -3 H 92 v 3 h 6.07 v -3 H 104 v 3 h 6.07 v -3 H 116 v 3 h 6.07 v -3 H 128 v 3 h 6.07 v -3 H 140 v 3 h 6.07 v -3 H 152 v 3 h 6.07 v -3 H 164 v 3 h 6.07 v -3 H 176 v 3 h 6.07 v -3 H 188 v 3 h 6.07 v -3 H 200 v 3 h 6.07 v -3 H 212 v 3 h 6.07 v -3 H 224 v 3 h 6.07 v -3 H 236 v 3 h 6.07 v -3 H 248 v 3 h 6.07 v -3 H 260 v 3 h 6.07 v -3 H 272 v 3 h 6.07 v -3 H 284 v 3 h 6.07 v -3 h 6 v -9 h 3 v -6.081 h -3 v -5.941 h 3 v -6.081 h -3 v -5.942 h 3 v -6.081 h -3 v -5.941 h 3 v -6.081 h -3 v -5.941 h 3 v -6.082 h -3 v -5.941 h 3 v -6.081 h -3 v -5.941 h 3 v -6.081 h -3 v -5.941 h 3 v -6.082 h -3 v -5.941 h 3 v -6.081 h -3 v -5.941 h 3 v -6.081 h -3 v -5.941 h 3 v -6.082 h -3 v -5.941 h 3 v -6.081 h -3 v -5.941 h 3 v -6.081 h -3 v -5.941 h 3 v -6.082 h -3 v -5.941 h 3 v -6.081 h -3 v -5.941 h 3 v -6.081 h -3 v -5.942 h 3 v -6.081 h -3 v -5.941 h 3 v -6.081 h -3 v -5.941 h 3 v -6.081 h -3 v -5.942 h 3 v -6.081 h -3 v -5.941 h 3 v -6.081 h -3 v -5.941 h 3 v -6.081 h -3 v -5.942 h 3 v -6.081 h -3 v -5.941 h 3 v -6.081 h -3 v -5.941 h 3 v -6.081 h -3 v -5.942 h 3 v -6.081 h -3 v -5.941 h 3 v -6.081 h -3 v -5.941 h 3 v -6.082 h -3 v -5.941 h 3 v -6.081 h -3 v -5.941 h 3 v -6.081 h -3 v -5.941 h 3 v -6.082 h -3 v -5.941 h 3 v -6.081 h -3 v -5.941 h 3 v -6.081 h -3 v -5.941 h 3 v -6.082 h -3 v -5.941 h 3 v -6.081 h -3 v -5.941 h 3 v -6.081 h -3 v -5.941 h 3 v -6.082 h -3 v -5.941 h 3 v -6.081 h -3 v -5.941 h 3 v -6.081 h -3 v -5.941 h 3 v -6.082 h -3 v -5.941 h 3 v -6.081 h -3 v -5.941 h 3 v -6.081 h -3 v -5.942 h 3 v -6.081 h -3 v -5.941 h 3 v -6.081 h -3 v -5.941 h 3 v -6.081 h -3 v -5.942 h 3 v -6.081 h -3 v -5.941 h 3 v -6.081 h -3 v -5.941 h 3 v -6.081 h -3 v -5.942 h 3 v -6.081 h -3 v -5.941 h 3 v -6.081 h -3 v -5.941 h 3 v -6.081 h -3 v -5.942 h 3 v -6.081 h -3 v -5.941 h 3 v -6.081 h -3 v -5.941 h 3 v -6.082 h -3 v -5.941 h 3 v -6.081 h -3 v -5.941 h 3 v -6.081 h -3 v -5.941 h 3 v -6.082 h -3 v -5.941 h 3 v -6.081 h -3 v -5.941 h 3 v -6.081 h -3 v -5.941 h 3 v -6.082 h -3 v -5.941 h 3 v -6.081 h -3 v -5.941 h 3 v -6.081 h -3 v -5.941 h 3 v -6.082 h -3 v -5.941 h 3 v -6.081 h -3 v -5.941 h 3 v -6.081 h -3 v -5.941 h 3 v -6.082 h -3 v -5.941 h 3 v -6.081 h -3 v -5.941 h 3 v -6.081 h -3 v -5.942 h 3 v -6.081 h -3 v -5.941 h 3 v -6.081 h -3 v -5.941 h 3 v -6.081 h -3 v -5.942 h 3 v -6.081 h -3 v -5.941 h 3 v -6.081 h -3 v -5.941 h 3 v -6.081 h -3 v -5.943 h 3 v -6.08 h -3 v -5.94 h 3 v -6.08 h -3 v -5.94 h 3 v -6.08 h -3 v -5.95 h 3 v -6.08 h -3 v -5.94 h 3 v -6.08 h -3 v -5.94 h 3 v -6.08 h -3 v -5.94 h 3 v -6.08 h -3 v -5.95 h 3 v -6.08 h -3 v -5.94 h 3 v -6.08 h -3 v -5.94 h 3 v -6.08 h -3 v -5.94 h 3 v -6.08 h -3 v -5.94 h 3 v -6.09 h -3 v -5.94 h 3 v -6.08 h -3 v -5.94 h 3 v -6.08 h -3 v -5.94 h 3 v -6.08 h -3 v -5.94 h 3 v -6.08 h -3 v -9 h -6 v -3 H 284 v 3 h -5.93 v -3 H 272 v 3 h -5.93 v -3 H 260 v 3 h -5.93 v -3 H 248 v 3 h -5.93 v -3 H 236 v 3 h -5.93 v -3 H 224 v 3 h -5.93 v -3 H 212 v 3 h -5.93 v -3 H 200 v 3 h -5.93 v -3 H 188 v 3 h -5.93 v -3 H 176 v 3 h -5.93 v -3 H 164 v 3 h -5.93 v -3 H 152 v 3 h -5.93 v -3 H 140 v 3 h -5.93 v -3 H 128 v 3 h -5.93 v -3 H 116 v 3 h -5.93 v -3 H 104 v 3 h -5.93 v -3 H 92 v 3 h -5.93 v -3 H 80 v 3 h -5.93 v -3 H 68 v 3 h -5.93 v -3 H 56 v 3 h -5.93 v -3 H 44 v 3 h -5.93 v -3 H 32 v 3 h -5.93 v -3 H 20 v 3 h -5.93 v -3 H 8 v 3 H 2 v 9 h -3 v 6.08 h 3 v 5.94 h -3 v 6.08 h 3 v 5.94 h -3 v 6.08 h 3 v 5.94 h -3 v 6.08 h 3 v 5.94 h -3 v 6.09 h 3 v 5.94 h -3 v 6.08 h 3 v 5.94 h -3 v 6.08 h 3 v 5.94 h -3 v 6.08 h 3 v 5.94 h -3 v 6.08 h 3 v 5.95 h -3 v 6.08 h 3 v 5.94 h -3 v 6.08 h 3 v 5.94 h -3 v 6.08 h 3 v 5.94 h -3 v 6.08 h 3 v 5.95 h -3 v 6.08 h 3 v 5.94 h -3 v 6.08 h 3 v 5.94 h -3 v 6.08 h 3 v 5.943 h -3 v 6.081 h 3 v 5.941 h -3 v 6.081 h 3 v 5.941 h -3 v 6.081 h 3 v 5.942 h -3 v 6.081 h 3 v 5.941 h -3 v 6.081 h 3 v 5.941 h -3 v 6.081 h 3 v 5.942 h -3 v 6.081 h 3 v 5.941 h -3 v 6.081 h 3 v 5.941 h -3 v 6.082 h 3 v 5.941 h -3 v 6.081 h 3 v 5.941 h -3 v 6.081 h 3 v 5.941 h -3 v 6.082 h 3 v 5.941 h -3 v 6.081 h 3 v 5.941 h -3 v 6.081 h 3 v 5.941 h -3 v 6.082 h 3 v 5.941 h -3 v 6.081 h 3 v 5.941 h -3 v 6.081 h 3 v 5.941 h -3 v 6.082 h 3 v 5.941 h -3 v 6.081 h 3 v 5.941 h -3 v 6.081 h 3 v 5.941 h -3 v 6.082 h 3 v 5.941 h -3 v 6.081 h 3 v 5.941 h -3 v 6.081 h 3 v 5.942 h -3 v 6.081 h 3 v 5.941 h -3 v 6.081 h 3 v 5.941 h -3 v 6.081 h 3 v 5.942 h -3 v 6.081 h 3 v 5.941 h -3 v 6.081 h 3 v 5.941 h -3 v 6.081 h 3 v 5.942 h -3 v 6.081 h 3 v 5.941 h -3 v 6.081 h 3 v 5.941 h -3 v 6.081 h 3 v 5.942 h -3 v 6.081 h 3 v 5.941 h -3 v 6.081 h 3 v 5.941 h -3 v 6.081 h 3 v 5.942 h -3 v 6.081 h 3 v 5.941 h -3 v 6.081 h 3 v 5.941 h -3 v 6.082 h 3 v 5.941 h -3 v 6.081 h 3 v 5.941 h -3 v 6.081 h 3 v 5.941 h -3 v 6.082 h 3 v 5.941 h -3 v 6.081 h 3 v 5.941 h -3 v 6.081 h 3 v 5.941 h -3 v 6.082 h 3 v 5.941 h -3 v 6.081 h 3 v 5.941 h -3 v 6.081 h 3 v 5.941 h -3 v 6.082 h 3 v 5.941 h -3 v 6.081 h 3 v 5.941 h -3 v 6.081 h 3 v 5.942 h -3 v 6.081 h 3 v 5.941 h -3 v 6.081 h 3 v 5.941 h -3 v 6.081 h 3 v 5.942 h -3 v 6.081 h 3 v 5.941 h -3 v 6.081 h 3 v 5.941 h -3 v 6.081 h 3 v 5.942 h -3 v 6.081 h 3 v 5.941 h -3 v 6.081 h 3 v 5.941 h -3 v 6.081 h 3 v 5.942 h -3 v 6.081 h 3 v 5.941 h -3 v 6.081 h 3 v 5.941 h -3 v 6.082 h 3 v 5.941 h -3 v 6.081 h 3 v 5.941 h -3 v 6.081 h 3 v 5.941 h -3 v 6.082 h 3 v 5.941 h -3 v 6.081 h 3 v 5.941 h -3 v 6.081 h 3 v 5.941 h -3 v 6.082 h 3 v 5.941 h -3 v 6.081 h 3 v 5.941 h -3 v 6.081 h 3 v 5.941 h -3 v 6.082 h 3 v 5.941 h -3 v 6.081 h 3 v 5.941 h -3 v 6.081 h 3 v 5.941 h -3 v 6.082 h 3 v 5.941 h -3 v 6.081 h 3 v 9 h 6 v 3 h 6.07 z"
     id="path1424"
     style="fill:none;stroke:#000000;stroke-width:1.00013;stroke-miterlimit:4;stroke-dasharray:none;stroke-opacity:1" />
  <circle
     style="fill:none;fill-opacity:0.0535715;stroke:#000000;stroke-width:1.92005;stroke-linecap:round;stroke-linejoin:round"
     id="path3824"
     cx="149.035"
     cy="-252"
     r="80" />
  <circle
     style="fill:none;fill-opacity:0.0535715;stroke:#000000;stroke-width:0.996862;stroke-linecap:round;stroke-linejoin:round"
     id="path834"
     cx="71.5"
     cy="-329.5"
     r="7.5" />
  <circle
     style="fill:none;fill-opacity:0.0535715;stroke:#000000;stroke-width:0.996862;stroke-linecap:round;stroke-linejoin:round"
     id="circle836"
     cx="226.5"
     cy="-329.5"
     r="7.5" />
  <circle
     style="fill:none;fill-opacity:0.0535715;stroke:#000000;stroke-width:0.996862;stroke-linecap:round;stroke-linejoin:round"
     id="circle838"
     cx="226.5"
     cy="-174.5"
     r="7.5" />
  <circle
     style="fill:none;fill-opacity:0.0535715;stroke:#000000;stroke-width:0.996862;stroke-linecap:round;stroke-linejoin:round"
     id="circle840"
     cx="71.5"
     cy="-174.5"
     r="7.5" />
</svg>
