<?xml version="1.0" encoding="UTF-8" standalone="no"?>
<svg
   xmlns:dc="http://purl.org/dc/elements/1.1/"
   xmlns:cc="http://creativecommons.org/ns#"
   xmlns:rdf="http://www.w3.org/1999/02/22-rdf-syntax-ns#"
   xmlns:svg="http://www.w3.org/2000/svg"
   xmlns="http://www.w3.org/2000/svg"
   xmlns:sodipodi="http://sodipodi.sourceforge.net/DTD/sodipodi-0.dtd"
   xmlns:inkscape="http://www.inkscape.org/namespaces/inkscape"
   width="2805mm"
   height="1203mm"
   viewBox="-1 -1202 2805 1203"
   version="1.1"
   id="svg6"
   sodipodi:docname="bagkanal-bottom.svg"
   inkscape:version="1.0.2 (e86c870879, 2021-01-15, custom)">
  <metadata
     id="metadata12">
    <rdf:RDF>
      <cc:Work
         rdf:about="">
        <dc:format>image/svg+xml</dc:format>
        <dc:type
           rdf:resource="http://purl.org/dc/dcmitype/StillImage" />
        <dc:title>OpenSCAD Model</dc:title>
      </cc:Work>
    </rdf:RDF>
  </metadata>
  <defs
     id="defs10" />
  <sodipodi:namedview
     pagecolor="#ffffff"
     bordercolor="#666666"
     borderopacity="1"
     objecttolerance="10"
     gridtolerance="10"
     guidetolerance="10"
     inkscape:pageopacity="0"
     inkscape:pageshadow="2"
     inkscape:window-width="1600"
     inkscape:window-height="837"
     id="namedview8"
     showgrid="false"
     inkscape:zoom="0.084363035"
     inkscape:cx="5301.2315"
     inkscape:cy="2273.2441"
     inkscape:window-x="0"
     inkscape:window-y="0"
     inkscape:window-maximized="1"
     inkscape:current-layer="svg6"
     inkscape:document-rotation="0"
     inkscape:document-units="mm" />
  <title
     id="title2">OpenSCAD Model</title>
  <path
     d="m 8.0700037,-1104.93 h 5.9300003 v 3 h 6.07 v -3 h 5.93 v 3 h 6.07 v -3 h 5.93 v 3 h 6.07 v -3 h 5.93 v 3 h 6.07 v -3 h 5.93 v 3 h 6.07 v -3 h 5.93 v 3 h 6.07 v -3 h 5.93 v 3 h 6.07 v -3 h 5.93 v 3 H 104.07 v -3 H 110 v 3 h 6.07 v -3 H 122 v 3 h 6.07 v -3 H 134 v 3 h 6.07 v -3 H 146 v 3 h 6.07 v -3 H 158 v 3 h 6.07 v -3 H 170 v 3 h 6.07 v -3 H 182 v 3 h 6.07 v -3 H 194 v 3 h 6.07 v -3 H 206 v 3 h 6.07 v -3 H 218 v 3 h 6.07 v -3 H 230 v 3 h 6.07 v -3 H 242 v 3 h 6.07 v -3 H 254 v 3 h 6.07 v -3 H 266 v 3 h 6.07 v -3 H 278 v 3 h 6.07 v -3 H 290 v 3 h 9.07 v -9.07 h -3 v -6.2377 h 3 v -6.3777 h -3 v -6.2377 h 3 v -6.3777 h -3 v -6.2376 h 3 v -6.3777 h -3 v -6.2377 h 3 v -6.3777 h -3 v -6.2377 h 3 v -6.3777 h -3 v -6.2377 h 3 v -6.3777 h -3 v -6.2377 h 3 V -1202 H 290 v 3 h -5.93 v -3 H 278 v 3 h -5.93 v -3 H 266 v 3 h -5.93 v -3 H 254 v 3 h -5.93 v -3 H 242 v 3 h -5.93 v -3 H 230 v 3 h -5.93 v -3 H 218 v 3 h -5.93 v -3 H 206 v 3 h -5.93 v -3 H 194 v 3 h -5.93 v -3 H 182 v 3 h -5.93 v -3 H 170 v 3 h -5.93 v -3 H 158 v 3 h -5.93 v -3 H 146 v 3 h -5.93 v -3 H 134 v 3 h -5.93 v -3 H 122 v 3 h -5.93 v -3 H 110 v 3 h -5.93 v -3 h -6.069996 v 3 h -5.93 v -3 h -6.07 v 3 h -5.93 v -3 h -6.07 v 3 h -5.93 v -3 h -6.07 v 3 h -5.93 v -3 h -6.07 v 3 h -5.93 v -3 h -6.07 v 3 h -5.93 v -3 h -6.07 v 3 h -5.93 v -3 h -6.07 v 3 H 8.0700037 v -3 H -1 v 9.07 h 3.0000037 v 6.2377 H -1 v 6.3777 h 3.0000037 v 6.2377 H -1 v 6.3777 h 3.0000037 v 6.2376 H -1 v 6.3777 h 3.0000037 v 6.2377 H -1 v 6.3777 h 3.0000037 v 6.2377 H -1 v 6.3777 h 3.0000037 v 6.2377 H -1 v 6.3777 H 2.0000037 V -1111 H -1 v 9.07 h 9.0700037 z"
     id="path1430"
     style="fill:none;stroke:#000000;stroke-width:1.00013;stroke-miterlimit:4;stroke-dasharray:none;stroke-opacity:1" />
</svg>
