<?xml version="1.0" encoding="UTF-8" standalone="no"?>
<svg
   width="2747.00mm"
   height="747.93mm"
   viewBox="0.0 0.0 2747.00 747.93"
   version="1.1"
   id="svg26"
   sodipodi:docname="ventbox.svg"
   inkscape:version="1.1 (c4e8f9ed74, 2021-05-24)"
   xmlns:inkscape="http://www.inkscape.org/namespaces/inkscape"
   xmlns:sodipodi="http://sodipodi.sourceforge.net/DTD/sodipodi-0.dtd"
   xmlns="http://www.w3.org/2000/svg"
   xmlns:svg="http://www.w3.org/2000/svg"
   xmlns:rdf="http://www.w3.org/1999/02/22-rdf-syntax-ns#"
   xmlns:cc="http://creativecommons.org/ns#"
   xmlns:dc="http://purl.org/dc/elements/1.1/">
  <defs
     id="defs30" />
  <sodipodi:namedview
     pagecolor="#ffffff"
     bordercolor="#666666"
     borderopacity="1"
     objecttolerance="10"
     gridtolerance="10"
     guidetolerance="10"
     inkscape:pageopacity="0"
     inkscape:pageshadow="2"
     inkscape:window-width="1600"
     inkscape:window-height="837"
     id="namedview28"
     showgrid="false"
     inkscape:document-units="mm"
     inkscape:zoom="0.23019123"
     inkscape:cx="2749.8875"
     inkscape:cy="1372.7717"
     inkscape:window-x="0"
     inkscape:window-y="0"
     inkscape:window-maximized="1"
     inkscape:current-layer="svg26"
     inkscape:document-rotation="0"
     inkscape:pagecheckerboard="0" />
  <!--
FlippedUnevenHeightBox - Box with different height in each corner

Created with Boxes.py (https://festi.info/boxes.py)
Creation date: 2021-04-10 23:36:29
Command line (remove spaces between dashes): boxes FlippedUnevenHeightBox - -x=440 - -y=700 - -height0=150 - -height1=150 - -height2=300 - -height3=300 - -thickness=3 - -edge_types=FFFF - -bottom_edge=e
-->
  <title
     id="title2">FlippedUnevenHeightBox</title>
  <metadata
     id="metadata4">
    <rdf:RDF>
      <cc:Work>
        <dc:title>Box - FlippedUnevenHeightBox</dc:title>
        <dc:date>2021-04-10 23:36:29</dc:date>
        <dc:source>boxes FlippedUnevenHeightBox --x=440 --y=700 --height0=150 --height1=150 --height2=300 --height3=300 --thickness=3 --edge_types=FFFF --bottom_edge=e</dc:source>
        <dc:description>Box with different height in each corner

Created with Boxes.py (https://festi.info/boxes.py)
Command line: boxes FlippedUnevenHeightBox --x=440 --y=700 --height0=150 --height1=150 --height2=300 --height3=300 --thickness=3 --edge_types=FFFF --bottom_edge=e
</dc:description>
        <dc:format>image/svg+xml</dc:format>
        <dc:type
           rdf:resource="http://purl.org/dc/dcmitype/StillImage" />
      </cc:Work>
    </rdf:RDF>
  </metadata>
  <g
     id="p-1"
     style="fill:none;stroke-linecap:round;stroke-linejoin:round"
     transform="translate(-10,-118.35834)">
    <path
       d="m 13.1,726.225 h 434 3 c 0.055,0 0.1,-0.044 0.1,-0.1 v -6 c 0,-0.055 -0.045,-0.1 -0.1,-0.1 h -2.9 c -0.1,0 0,0.1 0,0 v -5.8 c 0,-0.1 -0.1,0 0,0 h 2.9 c 0.055,0 0.1,-0.044 0.1,-0.1 v -6 c 0,-0.055 -0.045,-0.1 -0.1,-0.1 h -2.9 c -0.1,0 0,0.1 0,0 v -5.8 c 0,-0.1 -0.1,0 0,0 h 2.9 c 0.055,0 0.1,-0.044 0.1,-0.1 v -6 c 0,-0.055 -0.045,-0.1 -0.1,-0.1 h -2.9 c -0.1,0 0,0.1 0,0 v -5.8 c 0,-0.1 -0.1,0 0,0 h 2.9 c 0.055,0 0.1,-0.044 0.1,-0.1 v -6 c 0,-0.055 -0.045,-0.1 -0.1,-0.1 h -2.9 c -0.1,0 0,0.1 0,0 v -5.8 c 0,-0.1 -0.1,0 0,0 h 2.9 c 0.055,0 0.1,-0.044 0.1,-0.1 v -6 c 0,-0.055 -0.045,-0.1 -0.1,-0.1 h -2.9 c -0.1,0 0,0.1 0,0 v -5.8 c 0,-0.1 -0.1,0 0,0 h 2.9 c 0.055,0 0.1,-0.044 0.1,-0.1 v -6 c 0,-0.055 -0.045,-0.1 -0.1,-0.1 h -2.9 c -0.1,0 0,0.1 0,0 v -5.8 c 0,-0.1 -0.1,0 0,0 h 2.9 c 0.055,0 0.1,-0.044 0.1,-0.1 v -6 c 0,-0.055 -0.045,-0.1 -0.1,-0.1 h -2.9 c -0.1,0 0,0.1 0,0 v -5.8 c 0,-0.1 -0.1,0 0,0 h 2.9 c 0.055,0 0.1,-0.044 0.1,-0.1 v -6 c 0,-0.055 -0.045,-0.1 -0.1,-0.1 h -2.9 c -0.1,0 0,0.1 0,0 v -5.8 c 0,-0.1 -0.1,0 0,0 h 2.9 c 0.055,0 0.1,-0.044 0.1,-0.1 v -6 c 0,-0.055 -0.045,-0.1 -0.1,-0.1 h -2.9 c -0.1,0 0,0.1 0,0 v -5.8 c 0,-0.1 -0.1,0 0,0 h 2.9 c 0.055,0 0.1,-0.044 0.1,-0.1 v -6 c 0,-0.055 -0.045,-0.1 -0.1,-0.1 h -2.9 c -0.1,0 0,0.1 0,0 v -5.8 c 0,-0.1 -0.1,0 0,0 h 2.9 c 0.055,0 0.1,-0.044 0.1,-0.1 v -6 c 0,-0.055 -0.045,-0.1 -0.1,-0.1 h -2.9 c -0.1,0 0,0.1 0,0 v -5.8 c 0,-0.1 -0.1,0 0,0 h 2.9 c 0.055,0 0.1,-0.044 0.1,-0.1 v -6 c 0,-0.055 -0.045,-0.1 -0.1,-0.1 h -2.9 c -0.1,0 0,0.1 0,0 v -5.8 c 0,-0.1 -0.1,0 0,0 h 2.9 c 0.055,0 0.1,-0.044 0.1,-0.1 v -6 c 0,-0.055 -0.045,-0.1 -0.1,-0.1 h -3 -10 c -0.055,0 -0.1,0.045 -0.1,0.1 v 2.9 c 0,0.1 0.1,0 0,0 h -5.8 c -0.1,0 0,0.1 0,0 v -2.9 c 0,-0.055 -0.045,-0.1 -0.1,-0.1 h -6 c -0.055,0 -0.1,0.045 -0.1,0.1 v 2.9 c 0,0.1 0.1,0 0,0 h -5.8 c -0.1,0 0,0.1 0,0 v -2.9 c 0,-0.055 -0.045,-0.1 -0.1,-0.1 h -6 c -0.055,0 -0.1,0.045 -0.1,0.1 v 2.9 c 0,0.1 0.1,0 0,0 h -5.8 c -0.1,0 0,0.1 0,0 v -2.9 c 0,-0.055 -0.045,-0.1 -0.1,-0.1 h -6 c -0.055,0 -0.1,0.045 -0.1,0.1 v 2.9 c 0,0.1 0.1,0 0,0 h -5.8 c -0.1,0 0,0.1 0,0 v -2.9 c 0,-0.055 -0.045,-0.1 -0.1,-0.1 h -6 c -0.055,0 -0.1,0.045 -0.1,0.1 v 2.9 c 0,0.1 0.1,0 0,0 h -5.8 c -0.1,0 0,0.1 0,0 v -2.9 c 0,-0.055 -0.045,-0.1 -0.1,-0.1 h -6 c -0.055,0 -0.1,0.045 -0.1,0.1 v 2.9 c 0,0.1 0.1,0 0,0 h -5.8 c -0.1,0 0,0.1 0,0 v -2.9 c 0,-0.055 -0.045,-0.1 -0.1,-0.1 h -6 c -0.055,0 -0.1,0.045 -0.1,0.1 v 2.9 c 0,0.1 0.1,0 0,0 h -5.8 c -0.1,0 0,0.1 0,0 v -2.9 c 0,-0.055 -0.045,-0.1 -0.1,-0.1 h -6 c -0.055,0 -0.1,0.045 -0.1,0.1 v 2.9 c 0,0.1 0.1,0 0,0 h -5.8 c -0.1,0 0,0.1 0,0 v -2.9 c 0,-0.055 -0.045,-0.1 -0.1,-0.1 h -6 c -0.055,0 -0.1,0.045 -0.1,0.1 v 2.9 c 0,0.1 0.1,0 0,0 h -5.8 c -0.1,0 0,0.1 0,0 v -2.9 c 0,-0.055 -0.045,-0.1 -0.1,-0.1 h -6 c -0.055,0 -0.1,0.045 -0.1,0.1 v 2.9 c 0,0.1 0.1,0 0,0 h -5.8 c -0.1,0 0,0.1 0,0 v -2.9 c 0,-0.055 -0.045,-0.1 -0.1,-0.1 h -6 c -0.055,0 -0.1,0.045 -0.1,0.1 v 2.9 c 0,0.1 0.1,0 0,0 h -5.8 c -0.1,0 0,0.1 0,0 v -2.9 c 0,-0.055 -0.045,-0.1 -0.1,-0.1 h -6 c -0.055,0 -0.1,0.045 -0.1,0.1 v 2.9 c 0,0.1 0.1,0 0,0 h -5.8 c -0.1,0 0,0.1 0,0 v -2.9 c 0,-0.055 -0.045,-0.1 -0.1,-0.1 h -6 c -0.055,0 -0.1,0.045 -0.1,0.1 v 2.9 c 0,0.1 0.1,0 0,0 h -5.8 c -0.1,0 0,0.1 0,0 v -2.9 c 0,-0.055 -0.045,-0.1 -0.1,-0.1 h -6 c -0.055,0 -0.1,0.045 -0.1,0.1 v 2.9 c 0,0.1 0.1,0 0,0 h -5.8 c -0.1,0 0,0.1 0,0 v -2.9 c 0,-0.055 -0.045,-0.1 -0.1,-0.1 h -6 c -0.055,0 -0.1,0.045 -0.1,0.1 v 2.9 c 0,0.1 0.1,0 0,0 h -5.8 c -0.1,0 0,0.1 0,0 v -2.9 c 0,-0.055 -0.045,-0.1 -0.1,-0.1 h -6 c -0.055,0 -0.1,0.045 -0.1,0.1 v 2.9 c 0,0.1 0.1,0 0,0 h -5.8 c -0.1,0 0,0.1 0,0 v -2.9 c 0,-0.055 -0.045,-0.1 -0.1,-0.1 h -6 c -0.055,0 -0.1,0.045 -0.1,0.1 v 2.9 c 0,0.1 0.1,0 0,0 h -5.8 c -0.1,0 0,0.1 0,0 v -2.9 c 0,-0.055 -0.045,-0.1 -0.1,-0.1 h -6 c -0.055,0 -0.1,0.045 -0.1,0.1 v 2.9 c 0,0.1 0.1,0 0,0 h -5.8 c -0.1,0 0,0.1 0,0 v -2.9 c 0,-0.055 -0.045,-0.1 -0.1,-0.1 h -6 c -0.055,0 -0.1,0.045 -0.1,0.1 v 2.9 c 0,0.1 0.1,0 0,0 h -5.8 c -0.1,0 0,0.1 0,0 v -2.9 c 0,-0.055 -0.045,-0.1 -0.1,-0.1 h -6 c -0.055,0 -0.1,0.045 -0.1,0.1 v 2.9 c 0,0.1 0.1,0 0,0 h -5.8 c -0.1,0 0,0.1 0,0 v -2.9 c 0,-0.055 -0.045,-0.1 -0.1,-0.1 h -6 c -0.055,0 -0.1,0.045 -0.1,0.1 v 2.9 c 0,0.1 0.1,0 0,0 h -5.8 c -0.1,0 0,0.1 0,0 v -2.9 c 0,-0.055 -0.045,-0.1 -0.1,-0.1 h -6 c -0.055,0 -0.1,0.045 -0.1,0.1 v 2.9 c 0,0.1 0.1,0 0,0 h -5.8 c -0.1,0 0,0.1 0,0 v -2.9 c 0,-0.055 -0.045,-0.1 -0.1,-0.1 h -6 c -0.055,0 -0.1,0.045 -0.1,0.1 v 2.9 c 0,0.1 0.1,0 0,0 h -5.8 c -0.1,0 0,0.1 0,0 v -2.9 c 0,-0.055 -0.045,-0.1 -0.1,-0.1 h -6 c -0.055,0 -0.1,0.045 -0.1,0.1 v 2.9 c 0,0.1 0.1,0 0,0 h -5.8 c -0.1,0 0,0.1 0,0 v -2.9 c 0,-0.055 -0.045,-0.1 -0.1,-0.1 h -6 c -0.055,0 -0.1,0.045 -0.1,0.1 v 2.9 c 0,0.1 0.1,0 0,0 h -5.8 c -0.1,0 0,0.1 0,0 v -2.9 c 0,-0.055 -0.045,-0.1 -0.1,-0.1 h -6 c -0.055,0 -0.1,0.045 -0.1,0.1 v 2.9 c 0,0.1 0.1,0 0,0 h -5.8 c -0.1,0 0,0.1 0,0 v -2.9 c 0,-0.055 -0.045,-0.1 -0.1,-0.1 h -6 c -0.055,0 -0.1,0.045 -0.1,0.1 v 2.9 c 0,0.1 0.1,0 0,0 h -5.8 c -0.1,0 0,0.1 0,0 v -2.9 c 0,-0.055 -0.045,-0.1 -0.1,-0.1 h -6 c -0.055,0 -0.1,0.045 -0.1,0.1 v 2.9 c 0,0.1 0.1,0 0,0 h -5.8 c -0.1,0 0,0.1 0,0 v -2.9 c 0,-0.055 -0.045,-0.1 -0.1,-0.1 h -6 c -0.055,0 -0.1,0.045 -0.1,0.1 v 2.9 c 0,0.1 0.1,0 0,0 h -5.8 c -0.1,0 0,0.1 0,0 v -2.9 c 0,-0.055 -0.045,-0.1 -0.1,-0.1 h -6 c -0.055,0 -0.1,0.045 -0.1,0.1 v 2.9 c 0,0.1 0.1,0 0,0 h -5.8 c -0.1,0 0,0.1 0,0 v -2.9 c 0,-0.055 -0.045,-0.1 -0.1,-0.1 h -6 c -0.055,0 -0.1,0.045 -0.1,0.1 v 2.9 c 0,0.1 0.1,0 0,0 h -5.8 c -0.1,0 0,0.1 0,0 v -2.9 c 0,-0.055 -0.045,-0.1 -0.1,-0.1 h -6 c -0.055,0 -0.1,0.045 -0.1,0.1 v 2.9 c 0,0.1 0.1,0 0,0 h -5.8 c -0.1,0 0,0.1 0,0 v -2.9 c 0,-0.055 -0.045,-0.1 -0.1,-0.1 h -6 c -0.055,0 -0.1,0.045 -0.1,0.1 v 2.9 c 0,0.1 0.1,0 0,0 h -5.8 c -0.1,0 0,0.1 0,0 v -2.9 c 0,-0.055 -0.045,-0.1 -0.1,-0.1 h -6 c -0.055,0 -0.1,0.045 -0.1,0.1 v 2.9 c 0,0.1 0.1,0 0,0 h -5.8 c -0.1,0 0,0.1 0,0 v -2.9 c 0,-0.055 -0.045,-0.1 -0.1,-0.1 h -6 c -0.055,0 -0.1,0.045 -0.1,0.1 v 2.9 c 0,0.1 0.1,0 0,0 h -5.8 c -0.1,0 0,0.1 0,0 v -2.9 c 0,-0.055 -0.045,-0.1 -0.1,-0.1 h -10 -3 c -0.055,0 -0.1,0.045 -0.1,0.1 v 6 c 0,0.056 0.045,0.1 0.1,0.1 H 13 c 0.1,0 0,-0.1 0,0 v 5.8 c 0,0.1 0.1,0 0,0 h -2.9 c -0.055,0 -0.1,0.045 -0.1,0.1 v 6 c 0,0.056 0.045,0.1 0.1,0.1 H 13 c 0.1,0 0,-0.1 0,0 v 5.8 c 0,0.1 0.1,0 0,0 h -2.9 c -0.055,0 -0.1,0.045 -0.1,0.1 v 6 c 0,0.056 0.045,0.1 0.1,0.1 H 13 c 0.1,0 0,-0.1 0,0 v 5.8 c 0,0.1 0.1,0 0,0 h -2.9 c -0.055,0 -0.1,0.045 -0.1,0.1 v 6 c 0,0.056 0.045,0.1 0.1,0.1 H 13 c 0.1,0 0,-0.1 0,0 v 5.8 c 0,0.1 0.1,0 0,0 h -2.9 c -0.055,0 -0.1,0.045 -0.1,0.1 v 6 c 0,0.056 0.045,0.1 0.1,0.1 H 13 c 0.1,0 0,-0.1 0,0 v 5.8 c 0,0.1 0.1,0 0,0 h -2.9 c -0.055,0 -0.1,0.045 -0.1,0.1 v 6 c 0,0.056 0.045,0.1 0.1,0.1 H 13 c 0.1,0 0,-0.1 0,0 v 5.8 c 0,0.1 0.1,0 0,0 h -2.9 c -0.055,0 -0.1,0.045 -0.1,0.1 v 6 c 0,0.056 0.045,0.1 0.1,0.1 H 13 c 0.1,0 0,-0.1 0,0 v 5.8 c 0,0.1 0.1,0 0,0 h -2.9 c -0.055,0 -0.1,0.045 -0.1,0.1 v 6 c 0,0.056 0.045,0.1 0.1,0.1 H 13 c 0.1,0 0,-0.1 0,0 v 5.8 c 0,0.1 0.1,0 0,0 h -2.9 c -0.055,0 -0.1,0.045 -0.1,0.1 v 6 c 0,0.056 0.045,0.1 0.1,0.1 H 13 c 0.1,0 0,-0.1 0,0 v 5.8 c 0,0.1 0.1,0 0,0 h -2.9 c -0.055,0 -0.1,0.045 -0.1,0.1 v 6 c 0,0.056 0.045,0.1 0.1,0.1 H 13 c 0.1,0 0,-0.1 0,0 v 5.8 c 0,0.1 0.1,0 0,0 h -2.9 c -0.055,0 -0.1,0.045 -0.1,0.1 v 6 c 0,0.056 0.045,0.1 0.1,0.1 H 13 c 0.1,0 0,-0.1 0,0 v 5.8 c 0,0.1 0.1,0 0,0 h -2.9 c -0.055,0 -0.1,0.045 -0.1,0.1 v 6 c 0,0.056 0.045,0.1 0.1,0.1 H 13 c 0.1,0 0,-0.1 0,0 v 5.8 c 0,0.1 0.1,0 0,0 h -2.9 c -0.055,0 -0.1,0.045 -0.1,0.1 v 6 c 0,0.056 0.045,0.1 0.1,0.1 z"
       stroke="#000000"
       stroke-width="0.2"
       id="path11" />
  </g>
  <g
     id="p-2"
     style="fill:none;stroke-linecap:round;stroke-linejoin:round"
     transform="rotate(180,575.95,363.1125)">
    <path
       d="m 454.8,726.225 h 694 c 0.055,0 0.1,-0.044 0.1,-0.1 v -8.9 c 0,-0.1 -0.1,0 0,0 h 2.9 c 0.055,0 0.1,-0.044 0.1,-0.1 v -6 c 0,-0.055 -0.045,-0.1 -0.1,-0.1 h -2.9 c -0.1,0 0,0.1 0,0 v -5.8 c 0,-0.1 -0.1,0 0,0 h 2.9 c 0.055,0 0.1,-0.044 0.1,-0.1 v -6 c 0,-0.055 -0.045,-0.1 -0.1,-0.1 h -2.9 c -0.1,0 0,0.1 0,0 v -5.8 c 0,-0.1 -0.1,0 0,0 h 2.9 c 0.055,0 0.1,-0.044 0.1,-0.1 v -6 c 0,-0.055 -0.045,-0.1 -0.1,-0.1 h -2.9 c -0.1,0 0,0.1 0,0 v -5.8 c 0,-0.1 -0.1,0 0,0 h 2.9 c 0.055,0 0.1,-0.044 0.1,-0.1 v -6 c 0,-0.055 -0.045,-0.1 -0.1,-0.1 h -2.9 c -0.1,0 0,0.1 0,0 v -5.8 c 0,-0.1 -0.1,0 0,0 h 2.9 c 0.055,0 0.1,-0.044 0.1,-0.1 v -6 c 0,-0.055 -0.045,-0.1 -0.1,-0.1 h -2.9 c -0.1,0 0,0.1 0,0 v -5.8 c 0,-0.1 -0.1,0 0,0 h 2.9 c 0.055,0 0.1,-0.044 0.1,-0.1 v -6 c 0,-0.055 -0.045,-0.1 -0.1,-0.1 h -2.9 c -0.1,0 0,0.1 0,0 v -5.8 c 0,-0.1 -0.1,0 0,0 h 2.9 c 0.055,0 0.1,-0.044 0.1,-0.1 v -6 c 0,-0.055 -0.045,-0.1 -0.1,-0.1 h -2.9 c -0.1,0 0,0.1 0,0 v -5.8 c 0,-0.1 -0.1,0 0,0 h 2.9 c 0.055,0 0.1,-0.044 0.1,-0.1 v -6 c 0,-0.055 -0.045,-0.1 -0.1,-0.1 h -2.9 c -0.1,0 0,0.1 0,0 v -5.8 c 0,-0.1 -0.1,0 0,0 h 2.9 c 0.055,0 0.1,-0.044 0.1,-0.1 v -6 c 0,-0.055 -0.045,-0.1 -0.1,-0.1 h -2.9 c -0.1,0 0,0.1 0,0 v -5.8 c 0,-0.1 -0.1,0 0,0 h 2.9 c 0.055,0 0.1,-0.044 0.1,-0.1 v -6 c 0,-0.055 -0.045,-0.1 -0.1,-0.1 h -2.9 c -0.1,0 0,0.1 0,0 v -5.8 c 0,-0.1 -0.1,0 0,0 h 2.9 c 0.055,0 0.1,-0.044 0.1,-0.1 v -6 c 0,-0.055 -0.045,-0.1 -0.1,-0.1 h -2.9 c -0.1,0 0,0.1 0,0 v -5.8 c 0,-0.1 -0.1,0 0,0 h 2.9 c 0.055,0 0.1,-0.044 0.1,-0.1 v -6 c 0,-0.055 -0.045,-0.1 -0.1,-0.1 h -2.9 c -0.1,0 0,0.1 0,0 v -5.8 c 0,-0.1 -0.1,0 0,0 h 2.9 c 0.055,0 0.1,-0.044 0.1,-0.1 v -6 c 0,-0.055 -0.045,-0.1 -0.1,-0.1 h -2.9 c -0.1,0 0,0.1 0,0 v -5.8 c 0,-0.1 -0.1,0 0,0 h 2.9 c 0.055,0 0.1,-0.044 0.1,-0.1 v -6 c 0,-0.055 -0.045,-0.1 -0.1,-0.1 h -2.9 c -0.1,0 0,0.1 0,0 v -5.8 c 0,-0.1 -0.1,0 0,0 h 2.9 c 0.055,0 0.1,-0.044 0.1,-0.1 v -6 c 0,-0.055 -0.045,-0.1 -0.1,-0.1 h -2.9 c -0.1,0 0,0.1 0,0 v -5.8 c 0,-0.1 -0.1,0 0,0 h 2.9 c 0.055,0 0.1,-0.044 0.1,-0.1 v -6 c 0,-0.055 -0.045,-0.1 -0.1,-0.1 h -2.9 c -0.1,0 0,0.1 0,0 v -5.8 c 0,-0.1 -0.1,0 0,0 h 2.9 c 0.055,0 0.1,-0.044 0.1,-0.1 v -6 c 0,-0.055 -0.045,-0.1 -0.1,-0.1 h -2.9 c -0.1,0 0,0.1 0,0 v -5.8 c 0,-0.1 -0.1,0 0,0 h 2.9 c 0.055,0 0.1,-0.044 0.1,-0.1 v -6 c 0,-0.055 -0.045,-0.1 -0.1,-0.1 h -2.9 c -0.1,0 0,0.1 0,0 v -5.8 c 0,-0.1 -0.1,0 0,0 h 2.9 c 0.055,0 0.1,-0.044 0.1,-0.1 v -6 c 0,-0.055 -0.045,-0.1 -0.1,-0.1 h -2.9 c -0.1,0 0,0.1 0,0 v -5.8 c 0,-0.1 -0.1,0 0,0 h 2.9 c 0.055,0 0.1,-0.044 0.1,-0.1 v -6 c 0,-0.055 -0.045,-0.1 -0.1,-0.1 h -2.9 c -0.1,0 0,0.1 0,0 v -5.8 c 0,-0.1 -0.1,0 0,0 h 2.9 c 0.055,0 0.1,-0.044 0.1,-0.1 v -6 c 0,-0.055 -0.045,-0.1 -0.1,-0.1 h -2.9 c -0.1,0 0,0.1 0,0 v -5.8 c 0,-0.1 -0.1,0 0,0 h 2.9 c 0.055,0 0.1,-0.044 0.1,-0.1 v -6 c 0,-0.055 -0.045,-0.1 -0.1,-0.1 h -2.9 c -0.1,0 0,0.1 0,0 v -5.8 c 0,-0.1 -0.1,0 0,0 h 2.9 c 0.055,0 0.1,-0.044 0.1,-0.1 v -6 c 0,-0.055 -0.045,-0.1 -0.1,-0.1 h -2.9 c -0.1,0 0,0.1 0,0 v -5.8 c 0,-0.1 -0.1,0 0,0 h 2.9 c 0.055,0 0.1,-0.044 0.1,-0.1 v -6 c 0,-0.055 -0.045,-0.1 -0.1,-0.1 h -2.9 c -0.1,0 0,0.1 0,0 v -8.9 c 0,-0.055 -0.045,-0.1 -0.1,-0.1 -0.01,0 -0.014,0.001 -0.021,0.003 l -9.787,2.115 c -0.054,0.012 -0.088,0.065 -0.076,0.119 l 0.612,2.834 c 0.021,0.098 0.098,-0.021 0,0 l -5.669,1.226 c -0.098,0.021 0.021,0.097 0,0 l -0.613,-2.835 c -0.011,-0.054 -0.064,-0.088 -0.118,-0.077 l -5.865,1.268 c -0.054,0.012 -0.088,0.065 -0.077,0.119 l 0.613,2.834 c 0.021,0.098 0.098,-0.021 0,0 l -5.669,1.226 c -0.098,0.021 0.021,0.097 0,0 l -0.613,-2.835 c -0.011,-0.054 -0.065,-0.088 -0.119,-0.076 l -5.864,1.267 c -0.054,0.012 -0.088,0.065 -0.077,0.119 l 0.613,2.835 c 0.021,0.097 0.098,-0.022 0,0 l -5.669,1.225 c -0.098,0.021 0.021,0.098 0,0 l -0.613,-2.835 c -0.012,-0.054 -0.065,-0.088 -0.119,-0.076 l -5.864,1.267 c -0.054,0.012 -0.089,0.065 -0.077,0.119 l 0.613,2.835 c 0.021,0.097 0.097,-0.021 0,0 l -5.669,1.225 c -0.098,0.021 0.021,0.098 0,0 l -0.613,-2.835 c -0.012,-0.054 -0.065,-0.088 -0.119,-0.076 l -5.864,1.267 c -0.054,0.012 -0.089,0.065 -0.077,0.119 l 0.613,2.835 c 0.021,0.098 0.097,-0.021 0,0 l -5.67,1.225 c -0.097,0.021 0.022,0.098 0,0 l -0.612,-2.834 c -0.012,-0.054 -0.065,-0.089 -0.119,-0.077 l -5.865,1.267 c -0.054,0.012 -0.088,0.065 -0.076,0.119 l 0.612,2.835 c 0.022,0.098 0.098,-0.021 0,0 l -5.669,1.225 c -0.097,0.021 0.021,0.098 0,0 l -0.612,-2.834 c -0.012,-0.054 -0.065,-0.089 -0.119,-0.077 l -5.865,1.268 c -0.054,0.011 -0.088,0.064 -0.076,0.118 l 0.612,2.835 c 0.021,0.098 0.098,-0.021 0,0 l -5.669,1.225 c -0.098,0.021 0.021,0.098 0,0 l -0.612,-2.834 c -0.012,-0.054 -0.065,-0.088 -0.119,-0.077 l -5.865,1.268 c -0.054,0.011 -0.088,0.065 -0.077,0.119 l 0.613,2.834 c 0.021,0.098 0.098,-0.021 0,0 l -5.669,1.225 c -0.098,0.022 0.021,0.098 0,0 l -0.613,-2.834 c -0.011,-0.054 -0.065,-0.088 -0.119,-0.077 l -5.864,1.268 c -0.054,0.012 -0.088,0.065 -0.077,0.119 l 0.613,2.834 c 0.021,0.098 0.098,-0.021 0,0 l -5.669,1.226 c -0.098,0.021 0.021,0.097 0,0 l -0.613,-2.835 c -0.011,-0.054 -0.065,-0.088 -0.119,-0.077 l -5.864,1.268 c -0.054,0.012 -0.089,0.065 -0.077,0.119 l 0.613,2.834 c 0.021,0.098 0.098,-0.021 0,0 l -5.669,1.226 c -0.098,0.021 0.021,0.097 0,0 l -0.613,-2.835 c -0.012,-0.054 -0.065,-0.088 -0.119,-0.076 l -5.864,1.267 c -0.054,0.012 -0.089,0.065 -0.077,0.119 l 0.613,2.835 c 0.021,0.097 0.097,-0.022 0,0 l -5.669,1.225 c -0.098,0.021 0.021,0.098 0,0 l -0.613,-2.835 c -0.012,-0.054 -0.065,-0.088 -0.119,-0.076 l -5.865,1.267 c -0.054,0.012 -0.088,0.065 -0.076,0.119 l 0.612,2.835 c 0.022,0.097 0.098,-0.021 0,0 l -5.669,1.225 c -0.097,0.021 0.022,0.098 0,0 l -0.612,-2.835 c -0.012,-0.054 -0.065,-0.088 -0.119,-0.076 l -5.865,1.267 c -0.054,0.012 -0.088,0.065 -0.076,0.119 l 0.612,2.835 c 0.021,0.097 0.098,-0.021 0,0 l -5.669,1.225 c -0.098,0.021 0.021,0.098 0,0 l -0.612,-2.834 c -0.012,-0.054 -0.065,-0.089 -0.119,-0.077 l -5.865,1.267 c -0.054,0.012 -0.088,0.065 -0.076,0.119 l 0.612,2.835 c 0.021,0.098 0.098,-0.021 0,0 l -5.669,1.225 c -0.098,0.021 0.021,0.098 0,0 l -0.613,-2.834 c -0.011,-0.054 -0.064,-0.089 -0.118,-0.077 l -5.865,1.268 c -0.054,0.011 -0.088,0.064 -0.077,0.118 l 0.613,2.835 c 0.021,0.098 0.098,-0.021 0,0 l -5.669,1.225 c -0.098,0.021 0.021,0.098 0,0 l -0.613,-2.834 c -0.011,-0.054 -0.065,-0.089 -0.119,-0.077 l -5.864,1.268 c -0.054,0.011 -0.088,0.065 -0.077,0.119 l 0.613,2.834 c 0.021,0.098 0.098,-0.021 0,0 l -5.669,1.225 c -0.098,0.022 0.021,0.098 0,0 l -0.613,-2.834 c -0.012,-0.054 -0.065,-0.088 -0.119,-0.077 l -5.864,1.268 c -0.054,0.011 -0.089,0.065 -0.077,0.119 l 0.613,2.834 c 0.021,0.098 0.097,-0.021 0,0 l -5.669,1.226 c -0.098,0.021 0.021,0.097 0,0 l -0.613,-2.835 c -0.012,-0.054 -0.065,-0.088 -0.119,-0.077 l -5.865,1.268 c -0.053,0.012 -0.088,0.065 -0.076,0.119 l 0.613,2.834 c 0.021,0.098 0.097,-0.021 0,0 l -5.67,1.226 c -0.097,0.021 0.022,0.097 0,0 l -0.612,-2.835 c -0.012,-0.054 -0.065,-0.088 -0.119,-0.076 l -5.865,1.267 c -0.054,0.012 -0.088,0.065 -0.076,0.119 l 0.612,2.834 c 0.021,0.098 0.098,-0.021 0,0 l -5.669,1.226 c -0.097,0.021 0.021,0.098 0,0 l -0.612,-2.835 c -0.012,-0.054 -0.065,-0.088 -0.119,-0.076 l -5.865,1.267 c -0.054,0.012 -0.088,0.065 -0.076,0.119 l 0.612,2.835 c 0.021,0.097 0.098,-0.022 0,0 l -5.669,1.225 c -0.098,0.021 0.021,0.098 0,0 l -0.613,-2.835 c -0.011,-0.054 -0.064,-0.088 -0.118,-0.076 l -5.865,1.267 c -0.054,0.012 -0.088,0.065 -0.077,0.119 l 0.613,2.835 c 0.021,0.097 0.098,-0.021 0,0 l -5.669,1.225 c -0.098,0.021 0.021,0.098 0,0 l -0.613,-2.835 c -0.011,-0.054 -0.065,-0.088 -0.119,-0.076 l -5.864,1.267 c -0.054,0.012 -0.088,0.065 -0.077,0.119 l 0.613,2.835 c 0.021,0.098 0.098,-0.021 0,0 l -5.669,1.225 c -0.098,0.021 0.021,0.098 0,0 l -0.613,-2.834 c -0.012,-0.054 -0.065,-0.089 -0.119,-0.077 l -5.864,1.268 c -0.054,0.011 -0.089,0.064 -0.077,0.118 l 0.613,2.835 c 0.021,0.098 0.097,-0.021 0,0 l -5.669,1.225 c -0.098,0.021 0.021,0.098 0,0 l -0.613,-2.834 c -0.012,-0.054 -0.065,-0.089 -0.119,-0.077 l -5.864,1.268 c -0.054,0.011 -0.089,0.065 -0.077,0.119 l 0.613,2.834 c 0.021,0.098 0.097,-0.021 0,0 l -5.67,1.225 c -0.097,0.022 0.022,0.098 0,0 l -0.612,-2.834 c -0.012,-0.054 -0.065,-0.088 -0.119,-0.077 l -5.865,1.268 c -0.054,0.011 -0.088,0.065 -0.076,0.119 l 0.612,2.834 c 0.022,0.098 0.098,-0.021 0,0 l -5.669,1.226 c -0.097,0.021 0.021,0.097 0,0 l -0.612,-2.835 c -0.012,-0.054 -0.065,-0.088 -0.119,-0.077 l -5.865,1.268 c -0.054,0.012 -0.088,0.065 -0.076,0.119 l 0.612,2.834 c 0.021,0.098 0.098,-0.021 0,0 l -5.669,1.226 c -0.098,0.021 0.021,0.097 0,0 l -0.612,-2.835 c -0.012,-0.054 -0.065,-0.088 -0.119,-0.077 l -5.865,1.268 c -0.054,0.012 -0.088,0.065 -0.077,0.119 l 0.613,2.834 c 0.021,0.098 0.098,-0.021 0,0 l -5.669,1.226 c -0.098,0.021 0.021,0.097 0,0 l -0.613,-2.835 c -0.011,-0.054 -0.065,-0.088 -0.119,-0.076 l -5.864,1.267 c -0.054,0.012 -0.088,0.065 -0.077,0.119 l 0.613,2.835 c 0.021,0.097 0.098,-0.022 0,0 l -5.669,1.225 c -0.098,0.021 0.021,0.098 0,0 l -0.613,-2.835 c -0.011,-0.054 -0.065,-0.088 -0.119,-0.076 l -5.864,1.267 c -0.054,0.012 -0.089,0.065 -0.077,0.119 l 0.613,2.835 c 0.021,0.097 0.098,-0.021 0,0 l -5.669,1.225 c -0.098,0.021 0.021,0.098 0,0 l -0.613,-2.835 c -0.012,-0.054 -0.065,-0.088 -0.119,-0.076 l -5.864,1.267 c -0.054,0.012 -0.089,0.065 -0.077,0.119 l 0.613,2.835 c 0.021,0.098 0.097,-0.021 0,0 l -5.669,1.225 c -0.098,0.021 0.021,0.098 0,0 l -0.613,-2.834 c -0.012,-0.054 -0.065,-0.089 -0.119,-0.077 l -5.865,1.268 c -0.054,0.011 -0.088,0.064 -0.076,0.118 l 0.612,2.835 c 0.022,0.098 0.098,-0.021 0,0 l -5.669,1.225 c -0.097,0.021 0.021,0.098 0,0 l -0.612,-2.834 c -0.012,-0.054 -0.065,-0.089 -0.119,-0.077 l -5.865,1.268 c -0.054,0.011 -0.088,0.065 -0.076,0.118 l 0.612,2.835 c 0.021,0.098 0.098,-0.021 0,0 l -5.669,1.225 c -0.098,0.021 0.021,0.098 0,0 l -0.612,-2.834 c -0.012,-0.054 -0.065,-0.088 -0.119,-0.077 l -5.865,1.268 c -0.054,0.011 -0.088,0.065 -0.077,0.119 l 0.613,2.834 c 0.021,0.098 0.098,-0.021 0,0 l -5.669,1.225 c -0.098,0.022 0.021,0.098 0,0 l -0.613,-2.834 c -0.011,-0.054 -0.064,-0.088 -0.118,-0.077 l -5.865,1.268 c -0.054,0.012 -0.088,0.065 -0.077,0.119 l 0.613,2.834 c 0.021,0.098 0.098,-0.021 0,0 l -5.669,1.226 c -0.098,0.021 0.021,0.097 0,0 l -0.613,-2.835 c -0.011,-0.054 -0.065,-0.088 -0.119,-0.077 l -5.864,1.268 c -0.054,0.012 -0.088,0.065 -0.077,0.119 l 0.613,2.834 c 0.021,0.098 0.098,-0.021 0,0 l -5.669,1.226 c -0.098,0.021 0.021,0.097 0,0 l -0.613,-2.835 c -0.012,-0.054 -0.065,-0.088 -0.119,-0.076 l -5.864,1.267 c -0.054,0.012 -0.089,0.065 -0.077,0.119 l 0.613,2.835 c 0.021,0.097 0.097,-0.022 0,0 l -5.669,1.225 c -0.098,0.021 0.021,0.098 0,0 l -0.613,-2.835 c -0.012,-0.054 -0.065,-0.088 -0.119,-0.076 l -5.865,1.267 c -0.054,0.012 -0.088,0.065 -0.076,0.119 l 0.613,2.835 c 0.021,0.097 0.097,-0.021 0,0 l -5.67,1.225 c -0.097,0.021 0.022,0.098 0,0 l -0.612,-2.835 c -0.012,-0.054 -0.065,-0.088 -0.119,-0.076 l -5.865,1.267 c -0.054,0.012 -0.088,0.065 -0.076,0.119 l 0.612,2.835 c 0.021,0.098 0.098,-0.021 0,0 l -5.669,1.225 c -0.097,0.021 0.021,0.098 0,0 l -0.612,-2.834 c -0.012,-0.054 -0.065,-0.089 -0.119,-0.077 l -5.865,1.267 c -0.054,0.012 -0.088,0.065 -0.076,0.119 l 0.612,2.835 c 0.021,0.098 0.098,-0.021 0,0 l -5.669,1.225 c -0.098,0.021 0.021,0.098 0,0 l -0.613,-2.834 c -0.011,-0.054 -0.064,-0.089 -0.118,-0.077 l -5.865,1.268 c -0.054,0.011 -0.088,0.064 -0.077,0.118 l 0.613,2.835 c 0.021,0.098 0.098,-0.021 0,0 l -5.669,1.225 c -0.098,0.021 0.021,0.098 0,0 l -0.613,-2.834 c -0.011,-0.054 -0.065,-0.089 -0.119,-0.077 l -5.864,1.268 c -0.054,0.011 -0.088,0.065 -0.077,0.119 l 0.613,2.834 c 0.021,0.098 0.098,-0.021 0,0 l -5.669,1.225 c -0.098,0.022 0.021,0.098 0,0 l -0.613,-2.834 c -0.012,-0.054 -0.065,-0.088 -0.119,-0.077 l -5.864,1.268 c -0.054,0.012 -0.089,0.065 -0.077,0.119 l 0.613,2.834 c 0.021,0.098 0.097,-0.021 0,0 l -5.669,1.226 c -0.098,0.021 0.021,0.097 0,0 l -0.613,-2.835 c -0.012,-0.054 -0.065,-0.088 -0.119,-0.077 l -5.864,1.268 c -0.054,0.012 -0.089,0.065 -0.077,0.119 l 0.613,2.834 c 0.021,0.098 0.097,-0.021 0,0 l -5.67,1.226 c -0.097,0.021 0.022,0.097 0,0 l -0.612,-2.835 c -0.012,-0.054 -0.065,-0.088 -0.119,-0.076 l -5.865,1.267 c -0.054,0.012 -0.088,0.065 -0.076,0.119 l 0.612,2.834 c 0.022,0.098 0.098,-0.021 0,0 l -5.669,1.226 c -0.097,0.021 0.021,0.098 0,0 l -0.612,-2.835 c -0.012,-0.054 -0.065,-0.088 -0.119,-0.076 l -5.865,1.267 c -0.054,0.012 -0.088,0.065 -0.076,0.119 l 0.612,2.835 c 0.021,0.097 0.098,-0.022 0,0 l -5.669,1.225 c -0.098,0.021 0.021,0.098 0,0 l -0.613,-2.835 c -0.011,-0.054 -0.064,-0.088 -0.118,-0.076 l -5.865,1.267 c -0.054,0.012 -0.088,0.065 -0.077,0.119 l 0.613,2.835 c 0.021,0.097 0.098,-0.021 0,0 l -5.669,1.225 c -0.098,0.021 0.021,0.098 0,0 l -0.613,-2.835 c -0.011,-0.053 -0.065,-0.088 -0.119,-0.076 l -5.864,1.267 c -0.054,0.012 -0.088,0.065 -0.077,0.119 l 0.613,2.835 c 0.021,0.098 0.098,-0.021 0,0 l -5.669,1.225 c -0.098,0.021 0.021,0.098 0,0 l -0.613,-2.834 c -0.011,-0.054 -0.065,-0.089 -0.119,-0.077 l -5.864,1.268 c -0.054,0.011 -0.089,0.064 -0.077,0.118 l 0.613,2.835 c 0.021,0.098 0.098,-0.021 0,0 l -5.669,1.225 c -0.098,0.021 0.021,0.098 0,0 l -0.613,-2.834 c -0.012,-0.054 -0.065,-0.089 -0.119,-0.077 l -5.864,1.268 c -0.054,0.011 -0.089,0.065 -0.077,0.119 l 0.613,2.834 c 0.021,0.098 0.097,-0.021 0,0 l -5.669,1.225 c -0.098,0.022 0.021,0.098 0,0 l -0.613,-2.834 c -0.012,-0.054 -0.065,-0.088 -0.119,-0.077 l -5.865,1.268 c -0.054,0.011 -0.088,0.065 -0.076,0.119 l 0.612,2.834 c 0.022,0.098 0.098,-0.021 0,0 l -5.669,1.226 c -0.097,0.021 0.021,0.097 0,0 l -0.612,-2.835 c -0.012,-0.054 -0.065,-0.088 -0.119,-0.077 l -5.865,1.268 c -0.054,0.012 -0.088,0.065 -0.076,0.119 l 0.612,2.834 c 0.021,0.098 0.098,-0.021 0,0 l -5.669,1.226 c -0.098,0.021 0.021,0.097 0,0 l -0.612,-2.835 c -0.012,-0.054 -0.065,-0.088 -0.119,-0.077 l -5.865,1.268 c -0.054,0.012 -0.088,0.065 -0.077,0.119 l 0.613,2.834 c 0.021,0.098 0.098,-0.021 0,0 l -5.669,1.226 c -0.098,0.021 0.021,0.098 0,0 l -0.613,-2.835 c -0.011,-0.054 -0.065,-0.088 -0.118,-0.076 l -5.865,1.267 c -0.054,0.012 -0.088,0.065 -0.077,0.119 l 0.613,2.835 c 0.021,0.097 0.098,-0.022 0,0 l -5.669,1.225 c -0.098,0.021 0.021,0.098 0,0 l -0.613,-2.835 c -0.011,-0.054 -0.065,-0.088 -0.119,-0.076 l -5.864,1.267 c -0.054,0.012 -0.089,0.065 -0.077,0.119 l 0.613,2.835 c 0.021,0.097 0.098,-0.021 0,0 l -5.669,1.225 c -0.098,0.021 0.021,0.098 0,0 l -0.613,-2.835 c -0.012,-0.054 -0.065,-0.088 -0.119,-0.076 l -5.864,1.267 c -0.054,0.012 -0.089,0.065 -0.077,0.119 l 0.613,2.835 c 0.021,0.098 0.097,-0.021 0,0 l -5.669,1.225 c -0.098,0.021 0.021,0.098 0,0 l -0.613,-2.834 c -0.012,-0.054 -0.065,-0.089 -0.119,-0.077 l -5.865,1.268 c -0.054,0.011 -0.088,0.064 -0.076,0.118 l 0.612,2.835 c 0.022,0.098 0.098,-0.021 0,0 l -5.669,1.225 c -0.097,0.021 0.022,0.098 0,0 l -0.612,-2.834 c -0.012,-0.054 -0.065,-0.089 -0.119,-0.077 l -5.865,1.268 c -0.054,0.011 -0.088,0.065 -0.076,0.119 l 0.612,2.834 c 0.021,0.098 0.098,-0.021 0,0 l -5.669,1.225 c -0.097,0.021 0.021,0.098 0,0 l -0.612,-2.834 c -0.012,-0.054 -0.065,-0.088 -0.119,-0.077 l -5.865,1.268 c -0.054,0.011 -0.088,0.065 -0.076,0.119 l 0.612,2.834 c 0.021,0.098 0.098,-0.021 0,0 l -5.669,1.225 c -0.098,0.022 0.021,0.098 0,0 l -0.613,-2.834 c -0.011,-0.054 -0.064,-0.088 -0.118,-0.077 l -9.787,2.116 c 0.007,-0.002 0.014,-0.003 0.021,-0.003 -0.055,0 -0.1,0.045 -0.1,0.1 v 5.9 c 0,0.1 0.1,0 0,0 h -2.9 c -0.055,0 -0.1,0.045 -0.1,0.1 v 6 c 0,0.056 0.045,0.1 0.1,0.1 h 2.9 c 0.1,0 0,-0.1 0,0 v 5.8 c 0,0.1 0.1,0 0,0 h -2.9 c -0.055,0 -0.1,0.045 -0.1,0.1 v 6 c 0,0.056 0.045,0.1 0.1,0.1 h 2.9 c 0.1,0 0,-0.1 0,0 v 5.8 c 0,0.1 0.1,0 0,0 h -2.9 c -0.055,0 -0.1,0.045 -0.1,0.1 v 6 c 0,0.056 0.045,0.1 0.1,0.1 h 2.9 c 0.1,0 0,-0.1 0,0 v 5.8 c 0,0.1 0.1,0 0,0 h -2.9 c -0.055,0 -0.1,0.045 -0.1,0.1 v 6 c 0,0.056 0.045,0.1 0.1,0.1 h 2.9 c 0.1,0 0,-0.1 0,0 v 5.8 c 0,0.1 0.1,0 0,0 h -2.9 c -0.055,0 -0.1,0.045 -0.1,0.1 v 6 c 0,0.056 0.045,0.1 0.1,0.1 h 2.9 c 0.1,0 0,-0.1 0,0 v 5.8 c 0,0.1 0.1,0 0,0 h -2.9 c -0.055,0 -0.1,0.045 -0.1,0.1 v 6 c 0,0.056 0.045,0.1 0.1,0.1 h 2.9 c 0.1,0 0,-0.1 0,0 v 5.8 c 0,0.1 0.1,0 0,0 h -2.9 c -0.055,0 -0.1,0.045 -0.1,0.1 v 6 c 0,0.056 0.045,0.1 0.1,0.1 h 2.9 c 0.1,0 0,-0.1 0,0 v 5.8 c 0,0.1 0.1,0 0,0 h -2.9 c -0.055,0 -0.1,0.045 -0.1,0.1 v 6 c 0,0.056 0.045,0.1 0.1,0.1 h 2.9 c 0.1,0 0,-0.1 0,0 v 5.8 c 0,0.1 0.1,0 0,0 h -2.9 c -0.055,0 -0.1,0.045 -0.1,0.1 v 6 c 0,0.056 0.045,0.1 0.1,0.1 h 2.9 c 0.1,0 0,-0.1 0,0 v 5.8 c 0,0.1 0.1,0 0,0 h -2.9 c -0.055,0 -0.1,0.045 -0.1,0.1 v 6 c 0,0.056 0.045,0.1 0.1,0.1 h 2.9 c 0.1,0 0,-0.1 0,0 v 5.8 c 0,0.1 0.1,0 0,0 h -2.9 c -0.055,0 -0.1,0.045 -0.1,0.1 v 6 c 0,0.056 0.045,0.1 0.1,0.1 h 2.9 c 0.1,0 0,-0.1 0,0 v 5.8 c 0,0.1 0.1,0 0,0 h -2.9 c -0.055,0 -0.1,0.045 -0.1,0.1 v 6 c 0,0.056 0.045,0.1 0.1,0.1 h 2.9 c 0.1,0 0,-0.1 0,0 v 5.9 c 0,0.056 0.045,0.1 0.1,0.1 z"
       stroke="#000000"
       stroke-width="0.2"
       id="path14" />
  </g>
  <g
     id="p-4"
     style="fill:none;stroke-linecap:round;stroke-linejoin:round"
     transform="matrix(-1,0,0,1,2295.3,-273.57927)">
    <path
       d="m 1598.2,726.225 h 694 c 0.055,0 0.1,-0.044 0.1,-0.1 v -5.9 c 0,-0.1 -0.1,0 0,0 h 2.9 c 0.055,0 0.1,-0.044 0.1,-0.1 v -6 c 0,-0.055 -0.045,-0.1 -0.1,-0.1 h -2.9 c -0.1,0 0,0.1 0,0 v -5.8 c 0,-0.1 -0.1,0 0,0 h 2.9 c 0.055,0 0.1,-0.044 0.1,-0.1 v -6 c 0,-0.055 -0.045,-0.1 -0.1,-0.1 h -2.9 c -0.1,0 0,0.1 0,0 v -5.8 c 0,-0.1 -0.1,0 0,0 h 2.9 c 0.055,0 0.1,-0.044 0.1,-0.1 v -6 c 0,-0.055 -0.045,-0.1 -0.1,-0.1 h -2.9 c -0.1,0 0,0.1 0,0 v -5.8 c 0,-0.1 -0.1,0 0,0 h 2.9 c 0.055,0 0.1,-0.044 0.1,-0.1 v -6 c 0,-0.055 -0.045,-0.1 -0.1,-0.1 h -2.9 c -0.1,0 0,0.1 0,0 v -5.8 c 0,-0.1 -0.1,0 0,0 h 2.9 c 0.055,0 0.1,-0.044 0.1,-0.1 v -6 c 0,-0.055 -0.045,-0.1 -0.1,-0.1 h -2.9 c -0.1,0 0,0.1 0,0 v -5.8 c 0,-0.1 -0.1,0 0,0 h 2.9 c 0.055,0 0.1,-0.044 0.1,-0.1 v -6 c 0,-0.055 -0.045,-0.1 -0.1,-0.1 h -2.9 c -0.1,0 0,0.1 0,0 v -5.8 c 0,-0.1 -0.1,0 0,0 h 2.9 c 0.055,0 0.1,-0.044 0.1,-0.1 v -6 c 0,-0.055 -0.045,-0.1 -0.1,-0.1 h -2.9 c -0.1,0 0,0.1 0,0 v -5.8 c 0,-0.1 -0.1,0 0,0 h 2.9 c 0.055,0 0.1,-0.044 0.1,-0.1 v -6 c 0,-0.055 -0.045,-0.1 -0.1,-0.1 h -2.9 c -0.1,0 0,0.1 0,0 v -5.8 c 0,-0.1 -0.1,0 0,0 h 2.9 c 0.055,0 0.1,-0.044 0.1,-0.1 v -6 c 0,-0.055 -0.045,-0.1 -0.1,-0.1 h -2.9 c -0.1,0 0,0.1 0,0 v -5.8 c 0,-0.1 -0.1,0 0,0 h 2.9 c 0.055,0 0.1,-0.044 0.1,-0.1 v -6 c 0,-0.055 -0.045,-0.1 -0.1,-0.1 h -2.9 c -0.1,0 0,0.1 0,0 v -5.8 c 0,-0.1 -0.1,0 0,0 h 2.9 c 0.055,0 0.1,-0.044 0.1,-0.1 v -6 c 0,-0.055 -0.045,-0.1 -0.1,-0.1 h -2.9 c -0.1,0 0,0.1 0,0 v -5.8 c 0,-0.1 -0.1,0 0,0 h 2.9 c 0.055,0 0.1,-0.044 0.1,-0.1 v -6 c 0,-0.055 -0.045,-0.1 -0.1,-0.1 h -2.9 c -0.1,0 0,0.1 0,0 v -5.9 c 0,-0.055 -0.045,-0.1 -0.1,-0.1 0.01,0 0.014,10e-4 0.021,0.003 l -9.787,-2.116 c -0.054,-0.011 -0.107,0.023 -0.118,0.077 l -0.613,2.834 c -0.021,0.098 0.098,0.022 0,0 l -5.669,-1.225 c -0.098,-0.021 -0.021,0.098 0,0 l 0.612,-2.834 c 0.012,-0.054 -0.022,-0.108 -0.076,-0.119 l -5.865,-1.268 c -0.054,-0.011 -0.107,0.023 -0.119,0.077 l -0.612,2.834 c -0.021,0.098 0.097,0.021 0,0 l -5.669,-1.225 c -0.098,-0.021 -0.021,0.098 0,0 l 0.612,-2.834 c 0.012,-0.054 -0.022,-0.108 -0.076,-0.119 l -5.865,-1.268 c -0.054,-0.012 -0.107,0.023 -0.119,0.077 l -0.612,2.834 c -0.022,0.098 0.097,0.021 0,0 l -5.669,-1.225 c -0.098,-0.021 -0.022,0.098 0,0 l 0.612,-2.835 c 0.012,-0.054 -0.022,-0.107 -0.076,-0.118 l -5.865,-1.268 c -0.054,-0.012 -0.107,0.023 -0.119,0.077 l -0.613,2.834 c -0.021,0.098 0.098,0.021 0,0 l -5.669,-1.225 c -0.097,-0.021 -0.021,0.098 0,0 l 0.613,-2.835 c 0.012,-0.054 -0.023,-0.107 -0.077,-0.119 l -5.864,-1.267 c -0.054,-0.012 -0.107,0.022 -0.119,0.076 l -0.613,2.835 c -0.021,0.098 0.098,0.021 0,0 l -5.669,-1.225 c -0.098,-0.021 -0.021,0.097 0,0 l 0.613,-2.835 c 0.012,-0.054 -0.023,-0.107 -0.077,-0.119 l -5.864,-1.267 c -0.054,-0.012 -0.108,0.022 -0.119,0.076 l -0.613,2.835 c -0.021,0.098 0.098,0.021 0,0 l -5.669,-1.225 c -0.098,-0.022 -0.021,0.097 0,0 l 0.613,-2.835 c 0.011,-0.054 -0.023,-0.107 -0.077,-0.119 l -5.865,-1.267 c -0.053,-0.012 -0.107,0.022 -0.118,0.076 l -0.613,2.835 c -0.021,0.098 0.098,0.021 0,0 l -5.669,-1.226 c -0.098,-0.021 -0.021,0.098 0,0 l 0.613,-2.834 c 0.011,-0.054 -0.023,-0.107 -0.077,-0.119 l -5.865,-1.268 c -0.054,-0.011 -0.107,0.023 -0.119,0.077 l -0.612,2.835 c -0.021,0.097 0.098,0.021 0,0 l -5.669,-1.226 c -0.098,-0.021 -0.021,0.098 0,0 l 0.612,-2.834 c 0.012,-0.054 -0.022,-0.107 -0.076,-0.119 l -5.865,-1.268 c -0.054,-0.011 -0.107,0.023 -0.119,0.077 l -0.612,2.835 c -0.021,0.097 0.097,0.021 0,0 l -5.669,-1.226 c -0.098,-0.021 -0.022,0.098 0,0 l 0.612,-2.834 c 0.012,-0.054 -0.022,-0.108 -0.076,-0.119 l -5.865,-1.268 c -0.054,-0.011 -0.107,0.023 -0.119,0.077 l -0.613,2.834 c -0.021,0.098 0.098,0.022 0,0 l -5.669,-1.225 c -0.097,-0.021 -0.021,0.098 0,0 l 0.613,-2.834 c 0.012,-0.054 -0.023,-0.108 -0.077,-0.119 l -5.864,-1.268 c -0.054,-0.012 -0.107,0.023 -0.119,0.077 l -0.613,2.834 c -0.021,0.098 0.098,0.021 0,0 l -5.669,-1.225 c -0.098,-0.021 -0.021,0.098 0,0 l 0.613,-2.835 c 0.012,-0.054 -0.023,-0.107 -0.077,-0.118 l -5.864,-1.268 c -0.054,-0.012 -0.108,0.023 -0.119,0.077 l -0.613,2.834 c -0.021,0.098 0.098,0.021 0,0 l -5.669,-1.225 c -0.098,-0.021 -0.021,0.098 0,0 l 0.613,-2.835 c 0.011,-0.054 -0.023,-0.107 -0.077,-0.119 l -5.864,-1.267 c -0.054,-0.012 -0.108,0.023 -0.119,0.076 l -0.613,2.835 c -0.021,0.098 0.098,0.021 0,0 l -5.669,-1.225 c -0.098,-0.021 -0.021,0.097 0,0 l 0.613,-2.835 c 0.011,-0.054 -0.023,-0.107 -0.077,-0.119 l -5.865,-1.267 c -0.054,-0.012 -0.107,0.022 -0.118,0.076 l -0.613,2.835 c -0.021,0.098 0.098,0.021 0,0 l -5.669,-1.225 c -0.098,-0.022 -0.021,0.097 0,0 l 0.612,-2.835 c 0.012,-0.054 -0.022,-0.107 -0.076,-0.119 l -5.865,-1.267 c -0.054,-0.012 -0.107,0.022 -0.119,0.076 l -0.612,2.835 c -0.021,0.098 0.097,0.021 0,0 l -5.669,-1.226 c -0.098,-0.021 -0.022,0.098 0,0 l 0.612,-2.834 c 0.012,-0.054 -0.022,-0.107 -0.076,-0.119 l -5.865,-1.267 c -0.054,-0.012 -0.107,0.022 -0.119,0.076 l -0.612,2.835 c -0.022,0.097 0.097,0.021 0,0 l -5.67,-1.226 c -0.097,-0.021 -0.021,0.098 0,0 l 0.613,-2.834 c 0.012,-0.054 -0.023,-0.107 -0.077,-0.119 l -5.864,-1.268 c -0.054,-0.011 -0.107,0.023 -0.119,0.077 l -0.613,2.835 c -0.021,0.097 0.098,0.021 0,0 l -5.669,-1.226 c -0.097,-0.021 -0.021,0.098 0,0 l 0.613,-2.834 c 0.012,-0.054 -0.023,-0.107 -0.077,-0.119 l -5.864,-1.268 c -0.054,-0.011 -0.107,0.023 -0.119,0.077 l -0.613,2.834 c -0.021,0.098 0.098,0.022 0,0 l -5.669,-1.225 c -0.098,-0.021 -0.021,0.098 0,0 l 0.613,-2.834 c 0.011,-0.054 -0.023,-0.108 -0.077,-0.119 l -5.864,-1.268 c -0.054,-0.012 -0.108,0.023 -0.119,0.077 l -0.613,2.834 c -0.021,0.098 0.098,0.021 0,0 l -5.669,-1.225 c -0.098,-0.021 -0.021,0.098 0,0 l 0.613,-2.835 c 0.011,-0.054 -0.023,-0.107 -0.077,-0.118 l -5.865,-1.268 c -0.054,-0.012 -0.107,0.023 -0.118,0.077 l -0.613,2.834 c -0.021,0.098 0.098,0.021 0,0 l -5.669,-1.225 c -0.098,-0.021 -0.021,0.098 0,0 l 0.612,-2.835 c 0.012,-0.054 -0.022,-0.107 -0.076,-0.119 l -5.865,-1.267 c -0.054,-0.012 -0.107,0.023 -0.119,0.077 l -0.612,2.834 c -0.021,0.098 0.097,0.021 0,0 l -5.669,-1.225 c -0.098,-0.021 -0.021,0.098 0,0 l 0.612,-2.835 c 0.012,-0.054 -0.022,-0.107 -0.076,-0.119 l -5.865,-1.267 c -0.054,-0.012 -0.107,0.022 -0.119,0.076 l -0.612,2.835 c -0.022,0.098 0.097,0.021 0,0 l -5.67,-1.225 c -0.097,-0.021 -0.021,0.097 0,0 l 0.613,-2.835 c 0.012,-0.054 -0.022,-0.107 -0.076,-0.119 l -5.865,-1.267 c -0.054,-0.012 -0.107,0.022 -0.119,0.076 l -0.613,2.835 c -0.021,0.098 0.098,0.021 0,0 l -5.669,-1.225 c -0.097,-0.022 -0.021,0.097 0,0 l 0.613,-2.835 c 0.012,-0.054 -0.023,-0.107 -0.077,-0.119 l -5.864,-1.267 c -0.054,-0.012 -0.107,0.022 -0.119,0.076 l -0.613,2.835 c -0.021,0.097 0.098,0.021 0,0 l -5.669,-1.226 c -0.098,-0.021 -0.021,0.098 0,0 l 0.613,-2.834 c 0.011,-0.054 -0.023,-0.107 -0.077,-0.119 l -5.864,-1.268 c -0.054,-0.011 -0.108,0.023 -0.119,0.077 l -0.613,2.835 c -0.021,0.097 0.098,0.021 0,0 l -5.669,-1.226 c -0.098,-0.021 -0.021,0.098 0,0 l 0.613,-2.834 c 0.011,-0.054 -0.023,-0.107 -0.077,-0.119 l -5.865,-1.268 c -0.054,-0.011 -0.107,0.023 -0.118,0.077 l -0.613,2.834 c -0.021,0.098 0.098,0.022 0,0 l -5.669,-1.225 c -0.098,-0.021 -0.021,0.098 0,0 l 0.613,-2.834 c 0.011,-0.054 -0.023,-0.108 -0.077,-0.119 l -5.865,-1.268 c -0.054,-0.011 -0.107,0.023 -0.119,0.077 l -0.612,2.834 c -0.021,0.098 0.098,0.021 0,0 l -5.669,-1.225 c -0.098,-0.021 -0.021,0.098 0,0 l 0.612,-2.835 c 0.012,-0.053 -0.022,-0.107 -0.076,-0.118 l -5.865,-1.268 c -0.054,-0.012 -0.107,0.023 -0.119,0.077 l -0.612,2.834 c -0.021,0.098 0.097,0.021 0,0 l -5.669,-1.225 c -0.098,-0.021 -0.022,0.098 0,0 l 0.612,-2.835 c 0.012,-0.054 -0.022,-0.107 -0.076,-0.118 l -5.865,-1.268 c -0.054,-0.012 -0.107,0.023 -0.119,0.077 l -0.613,2.834 c -0.021,0.098 0.098,0.021 0,0 l -5.669,-1.225 c -0.097,-0.021 -0.021,0.098 0,0 l 0.613,-2.835 c 0.012,-0.054 -0.023,-0.107 -0.077,-0.119 l -5.864,-1.267 c -0.054,-0.012 -0.107,0.022 -0.119,0.076 l -0.613,2.835 c -0.021,0.098 0.098,0.021 0,0 l -5.669,-1.225 c -0.098,-0.021 -0.021,0.097 0,0 l 0.613,-2.835 c 0.012,-0.054 -0.023,-0.107 -0.077,-0.119 l -5.864,-1.267 c -0.054,-0.012 -0.108,0.022 -0.119,0.076 l -0.613,2.835 c -0.021,0.098 0.098,0.021 0,0 l -5.669,-1.225 c -0.098,-0.022 -0.021,0.097 0,0 l 0.613,-2.835 c 0.011,-0.054 -0.023,-0.107 -0.077,-0.119 l -5.864,-1.267 c -0.054,-0.012 -0.108,0.022 -0.119,0.076 l -0.613,2.835 c -0.021,0.097 0.098,0.021 0,0 l -5.669,-1.226 c -0.098,-0.021 -0.021,0.098 0,0 l 0.613,-2.834 c 0.011,-0.054 -0.023,-0.107 -0.077,-0.119 l -5.865,-1.268 c -0.054,-0.011 -0.107,0.023 -0.119,0.077 l -0.612,2.835 c -0.021,0.097 0.098,0.021 0,0 l -5.669,-1.226 c -0.098,-0.021 -0.021,0.098 0,0 l 0.612,-2.834 c 0.012,-0.054 -0.022,-0.107 -0.076,-0.119 l -5.865,-1.268 c -0.054,-0.011 -0.107,0.023 -0.119,0.077 l -0.612,2.835 c -0.021,0.097 0.097,0.021 0,0 l -5.669,-1.226 c -0.098,-0.021 -0.022,0.098 0,0 l 0.612,-2.834 c 0.012,-0.054 -0.022,-0.108 -0.076,-0.119 l -5.865,-1.268 c -0.054,-0.011 -0.107,0.023 -0.119,0.077 l -0.612,2.834 c -0.022,0.098 0.097,0.022 0,0 l -5.67,-1.225 c -0.097,-0.021 -0.021,0.098 0,0 l 0.613,-2.834 c 0.012,-0.054 -0.023,-0.108 -0.077,-0.119 l -5.864,-1.268 c -0.054,-0.012 -0.107,0.023 -0.119,0.077 l -0.613,2.834 c -0.021,0.098 0.098,0.021 0,0 l -5.669,-1.225 c -0.097,-0.021 -0.021,0.098 0,0 l 0.613,-2.835 c 0.012,-0.054 -0.023,-0.107 -0.077,-0.118 l -5.864,-1.268 c -0.054,-0.012 -0.107,0.023 -0.119,0.077 l -0.613,2.834 c -0.021,0.098 0.098,0.021 0,0 l -5.669,-1.225 c -0.098,-0.021 -0.021,0.098 0,0 l 0.613,-2.835 c 0.011,-0.054 -0.023,-0.107 -0.077,-0.119 l -5.864,-1.267 c -0.054,-0.012 -0.108,0.022 -0.119,0.076 l -0.613,2.835 c -0.021,0.098 0.098,0.021 0,0 l -5.669,-1.225 c -0.098,-0.021 -0.021,0.097 0,0 l 0.613,-2.835 c 0.011,-0.054 -0.023,-0.107 -0.077,-0.119 l -5.865,-1.267 c -0.054,-0.012 -0.107,0.022 -0.118,0.076 l -0.613,2.835 c -0.021,0.098 0.098,0.021 0,0 l -5.669,-1.225 c -0.098,-0.022 -0.021,0.097 0,0 l 0.612,-2.835 c 0.012,-0.054 -0.022,-0.107 -0.076,-0.119 l -5.865,-1.267 c -0.054,-0.012 -0.107,0.022 -0.119,0.076 l -0.612,2.835 c -0.021,0.098 0.097,0.021 0,0 l -5.669,-1.226 c -0.098,-0.021 -0.021,0.098 0,0 l 0.612,-2.834 c 0.012,-0.054 -0.022,-0.107 -0.076,-0.119 l -5.865,-1.267 c -0.054,-0.012 -0.107,0.022 -0.119,0.076 l -0.612,2.835 c -0.022,0.097 0.097,0.021 0,0 l -5.67,-1.226 c -0.097,-0.021 -0.021,0.098 0,0 l 0.613,-2.834 c 0.012,-0.054 -0.023,-0.107 -0.076,-0.119 l -5.865,-1.268 c -0.054,-0.011 -0.107,0.023 -0.119,0.077 l -0.613,2.835 c -0.021,0.097 0.098,0.021 0,0 l -5.669,-1.226 c -0.097,-0.021 -0.021,0.098 0,0 l 0.613,-2.834 c 0.012,-0.054 -0.023,-0.108 -0.077,-0.119 l -5.864,-1.268 c -0.054,-0.011 -0.107,0.023 -0.119,0.077 l -0.613,2.834 c -0.021,0.098 0.098,0.022 0,0 l -5.669,-1.225 c -0.098,-0.021 -0.021,0.098 0,0 l 0.613,-2.834 c 0.011,-0.054 -0.023,-0.108 -0.077,-0.119 l -5.864,-1.268 c -0.054,-0.012 -0.108,0.023 -0.119,0.077 l -0.613,2.834 c -0.021,0.098 0.098,0.021 0,0 l -5.669,-1.225 c -0.098,-0.021 -0.021,0.098 0,0 l 0.613,-2.835 c 0.011,-0.054 -0.023,-0.107 -0.077,-0.118 l -5.865,-1.268 c -0.054,-0.012 -0.107,0.023 -0.118,0.077 l -0.613,2.834 c -0.021,0.098 0.098,0.021 0,0 l -5.669,-1.225 c -0.098,-0.021 -0.021,0.098 0,0 l 0.612,-2.835 c 0.012,-0.054 -0.022,-0.107 -0.076,-0.119 l -5.865,-1.267 c -0.054,-0.012 -0.107,0.023 -0.119,0.077 l -0.612,2.834 c -0.021,0.098 0.098,0.021 0,0 l -5.669,-1.225 c -0.098,-0.021 -0.021,0.097 0,0 l 0.612,-2.835 c 0.012,-0.054 -0.022,-0.107 -0.076,-0.119 l -5.865,-1.267 c -0.054,-0.012 -0.107,0.022 -0.119,0.076 l -0.612,2.835 c -0.022,0.098 0.097,0.021 0,0 l -5.669,-1.225 c -0.098,-0.021 -0.022,0.097 0,0 l 0.612,-2.835 c 0.012,-0.054 -0.022,-0.107 -0.076,-0.119 l -5.865,-1.267 c -0.054,-0.012 -0.107,0.022 -0.119,0.076 l -0.613,2.835 c -0.021,0.098 0.098,0.021 0,0 l -5.669,-1.225 c -0.097,-0.022 -0.021,0.097 0,0 l 0.613,-2.835 c 0.012,-0.054 -0.023,-0.107 -0.077,-0.119 l -5.864,-1.267 c -0.054,-0.012 -0.107,0.022 -0.119,0.076 l -0.613,2.835 c -0.021,0.097 0.098,0.021 0,0 l -5.669,-1.226 c -0.098,-0.021 -0.021,0.098 0,0 l 0.613,-2.834 c 0.012,-0.054 -0.023,-0.107 -0.077,-0.119 l -5.864,-1.268 c -0.054,-0.011 -0.108,0.023 -0.119,0.077 l -0.613,2.835 c -0.021,0.097 0.098,0.021 0,0 l -5.669,-1.226 c -0.098,-0.021 -0.021,0.098 0,0 l 0.613,-2.834 c 0.011,-0.054 -0.023,-0.107 -0.077,-0.119 l -5.864,-1.268 c -0.054,-0.011 -0.108,0.023 -0.119,0.077 l -0.613,2.834 c -0.021,0.098 0.098,0.022 0,0 l -5.669,-1.225 c -0.098,-0.021 -0.021,0.098 0,0 l 0.613,-2.834 c 0.011,-0.054 -0.023,-0.108 -0.077,-0.119 l -5.865,-1.268 c -0.054,-0.011 -0.107,0.023 -0.119,0.077 l -0.612,2.834 c -0.021,0.098 0.098,0.021 0,0 l -5.669,-1.225 c -0.098,-0.021 -0.021,0.098 0,0 l 0.612,-2.835 c 0.012,-0.054 -0.022,-0.107 -0.076,-0.118 l -5.865,-1.268 c -0.054,-0.012 -0.107,0.023 -0.119,0.077 l -0.612,2.834 c -0.021,0.098 0.097,0.021 0,0 l -5.669,-1.225 c -0.098,-0.021 -0.022,0.098 0,0 l 0.612,-2.835 c 0.012,-0.054 -0.022,-0.107 -0.076,-0.119 l -5.865,-1.267 c -0.054,-0.012 -0.107,0.023 -0.119,0.077 l -0.612,2.834 c -0.022,0.098 0.097,0.021 0,0 l -5.67,-1.225 c -0.097,-0.021 -0.021,0.098 0,0 l 0.613,-2.835 c 0.012,-0.054 -0.023,-0.107 -0.077,-0.119 l -5.864,-1.267 c -0.054,-0.012 -0.107,0.022 -0.119,0.076 l -0.613,2.835 c -0.021,0.098 0.098,0.021 0,0 l -5.669,-1.225 c -0.097,-0.021 -0.021,0.097 0,0 l 0.613,-2.835 c 0.012,-0.054 -0.023,-0.107 -0.077,-0.119 l -5.864,-1.267 c -0.054,-0.012 -0.107,0.022 -0.119,0.076 l -0.613,2.835 c -0.021,0.098 0.098,0.021 0,0 l -5.669,-1.225 c -0.098,-0.022 -0.021,0.097 0,0 l 0.613,-2.835 c 0.011,-0.054 -0.023,-0.107 -0.077,-0.119 l -5.864,-1.267 c -0.054,-0.012 -0.108,0.022 -0.119,0.076 l -0.613,2.835 c -0.021,0.097 0.098,0.021 0,0 l -5.669,-1.226 c -0.098,-0.021 -0.021,0.098 0,0 l 0.613,-2.834 c 0.011,-0.054 -0.023,-0.107 -0.077,-0.119 l -5.865,-1.268 c -0.054,-0.011 -0.107,0.023 -0.118,0.077 l -0.613,2.835 c -0.021,0.097 0.098,0.021 0,0 l -5.669,-1.226 c -0.098,-0.021 -0.021,0.098 0,0 l 0.612,-2.834 c 0.012,-0.054 -0.022,-0.107 -0.076,-0.119 l -9.787,-2.115 c -0.01,-0.002 -0.014,-0.003 -0.021,-0.003 -0.055,0 -0.1,0.045 -0.1,0.1 v 8.9 c 0,0.1 0.1,0 0,0 h -2.9 c -0.055,0 -0.1,0.045 -0.1,0.1 v 6 c 0,0.056 0.045,0.1 0.1,0.1 h 2.9 c 0.1,0 0,-0.1 0,0 v 5.8 c 0,0.1 0.1,0 0,0 h -2.9 c -0.055,0 -0.1,0.045 -0.1,0.1 v 6 c 0,0.056 0.045,0.1 0.1,0.1 h 2.9 c 0.1,0 0,-0.1 0,0 v 5.8 c 0,0.1 0.1,0 0,0 h -2.9 c -0.055,0 -0.1,0.045 -0.1,0.1 v 6 c 0,0.056 0.045,0.1 0.1,0.1 h 2.9 c 0.1,0 0,-0.1 0,0 v 5.8 c 0,0.1 0.1,0 0,0 h -2.9 c -0.055,0 -0.1,0.045 -0.1,0.1 v 6 c 0,0.056 0.045,0.1 0.1,0.1 h 2.9 c 0.1,0 0,-0.1 0,0 v 5.8 c 0,0.1 0.1,0 0,0 h -2.9 c -0.055,0 -0.1,0.045 -0.1,0.1 v 6 c 0,0.056 0.045,0.1 0.1,0.1 h 2.9 c 0.1,0 0,-0.1 0,0 v 5.8 c 0,0.1 0.1,0 0,0 h -2.9 c -0.055,0 -0.1,0.045 -0.1,0.1 v 6 c 0,0.056 0.045,0.1 0.1,0.1 h 2.9 c 0.1,0 0,-0.1 0,0 v 5.8 c 0,0.1 0.1,0 0,0 h -2.9 c -0.055,0 -0.1,0.045 -0.1,0.1 v 6 c 0,0.056 0.045,0.1 0.1,0.1 h 2.9 c 0.1,0 0,-0.1 0,0 v 5.8 c 0,0.1 0.1,0 0,0 h -2.9 c -0.055,0 -0.1,0.045 -0.1,0.1 v 6 c 0,0.056 0.045,0.1 0.1,0.1 h 2.9 c 0.1,0 0,-0.1 0,0 v 5.8 c 0,0.1 0.1,0 0,0 h -2.9 c -0.055,0 -0.1,0.045 -0.1,0.1 v 6 c 0,0.056 0.045,0.1 0.1,0.1 h 2.9 c 0.1,0 0,-0.1 0,0 v 5.8 c 0,0.1 0.1,0 0,0 h -2.9 c -0.055,0 -0.1,0.045 -0.1,0.1 v 6 c 0,0.056 0.045,0.1 0.1,0.1 h 2.9 c 0.1,0 0,-0.1 0,0 v 5.8 c 0,0.1 0.1,0 0,0 h -2.9 c -0.055,0 -0.1,0.045 -0.1,0.1 v 6 c 0,0.056 0.045,0.1 0.1,0.1 h 2.9 c 0.1,0 0,-0.1 0,0 v 5.8 c 0,0.1 0.1,0 0,0 h -2.9 c -0.055,0 -0.1,0.045 -0.1,0.1 v 6 c 0,0.056 0.045,0.1 0.1,0.1 h 2.9 c 0.1,0 0,-0.1 0,0 v 5.8 c 0,0.1 0.1,0 0,0 h -2.9 c -0.055,0 -0.1,0.045 -0.1,0.1 v 6 c 0,0.056 0.045,0.1 0.1,0.1 h 2.9 c 0.1,0 0,-0.1 0,0 v 5.8 c 0,0.1 0.1,0 0,0 h -2.9 c -0.055,0 -0.1,0.045 -0.1,0.1 v 6 c 0,0.056 0.045,0.1 0.1,0.1 h 2.9 c 0.1,0 0,-0.1 0,0 v 5.8 c 0,0.1 0.1,0 0,0 h -2.9 c -0.055,0 -0.1,0.045 -0.1,0.1 v 6 c 0,0.056 0.045,0.1 0.1,0.1 h 2.9 c 0.1,0 0,-0.1 0,0 v 5.8 c 0,0.1 0.1,0 0,0 h -2.9 c -0.055,0 -0.1,0.045 -0.1,0.1 v 6 c 0,0.056 0.045,0.1 0.1,0.1 h 2.9 c 0.1,0 0,-0.1 0,0 v 5.8 c 0,0.1 0.1,0 0,0 h -2.9 c -0.055,0 -0.1,0.045 -0.1,0.1 v 6 c 0,0.056 0.045,0.1 0.1,0.1 h 2.9 c 0.1,0 0,-0.1 0,0 v 5.8 c 0,0.1 0.1,0 0,0 h -2.9 c -0.055,0 -0.1,0.045 -0.1,0.1 v 6 c 0,0.056 0.045,0.1 0.1,0.1 h 2.9 c 0.1,0 0,-0.1 0,0 v 5.8 c 0,0.1 0.1,0 0,0 h -2.9 c -0.055,0 -0.1,0.045 -0.1,0.1 v 6 c 0,0.056 0.045,0.1 0.1,0.1 h 2.9 c 0.1,0 0,-0.1 0,0 v 5.8 c 0,0.1 0.1,0 0,0 h -2.9 c -0.055,0 -0.1,0.045 -0.1,0.1 v 6 c 0,0.056 0.045,0.1 0.1,0.1 h 2.9 c 0.1,0 0,-0.1 0,0 v 5.8 c 0,0.1 0.1,0 0,0 h -2.9 c -0.055,0 -0.1,0.045 -0.1,0.1 v 6 c 0,0.056 0.045,0.1 0.1,0.1 h 2.9 c 0.1,0 0,-0.1 0,0 v 5.8 c 0,0.1 0.1,0 0,0 h -2.9 c -0.055,0 -0.1,0.045 -0.1,0.1 v 6 c 0,0.056 0.045,0.1 0.1,0.1 h 2.9 c 0.1,0 0,-0.1 0,0 v 5.8 c 0,0.1 0.1,0 0,0 h -2.9 c -0.055,0 -0.1,0.045 -0.1,0.1 v 6 c 0,0.056 0.045,0.1 0.1,0.1 h 2.9 c 0.1,0 0,-0.1 0,0 v 5.8 c 0,0.1 0.1,0 0,0 h -2.9 c -0.055,0 -0.1,0.045 -0.1,0.1 v 6 c 0,0.056 0.045,0.1 0.1,0.1 h 2.9 c 0.1,0 0,-0.1 0,0 v 8.9 c 0,0.056 0.045,0.1 0.1,0.1 z"
       stroke="#000000"
       stroke-width="0.2"
       id="path20" />
  </g>
  <g
     id="p-5"
     style="fill:none;stroke-linecap:round;stroke-linejoin:round"
     transform="translate(-1586.8)">
    <path
       d="m 2299.9,723.225 h 9.9 c 0.1,0 0,-0.1 0,0 v 2.9 c 0,0.056 0.045,0.1 0.1,0.1 h 6 c 0.055,0 0.1,-0.044 0.1,-0.1 v -2.9 c 0,-0.1 -0.1,0 0,0 h 5.8 c 0.1,0 0,-0.1 0,0 v 2.9 c 0,0.056 0.045,0.1 0.1,0.1 h 6 c 0.055,0 0.1,-0.044 0.1,-0.1 v -2.9 c 0,-0.1 -0.1,0 0,0 h 5.8 c 0.1,0 0,-0.1 0,0 v 2.9 c 0,0.056 0.045,0.1 0.1,0.1 h 6 c 0.055,0 0.1,-0.044 0.1,-0.1 v -2.9 c 0,-0.1 -0.1,0 0,0 h 5.8 c 0.1,0 0,-0.1 0,0 v 2.9 c 0,0.056 0.045,0.1 0.1,0.1 h 6 c 0.055,0 0.1,-0.044 0.1,-0.1 v -2.9 c 0,-0.1 -0.1,0 0,0 h 5.8 c 0.1,0 0,-0.1 0,0 v 2.9 c 0,0.056 0.045,0.1 0.1,0.1 h 6 c 0.055,0 0.1,-0.044 0.1,-0.1 v -2.9 c 0,-0.1 -0.1,0 0,0 h 5.8 c 0.1,0 0,-0.1 0,0 v 2.9 c 0,0.056 0.045,0.1 0.1,0.1 h 6 c 0.055,0 0.1,-0.044 0.1,-0.1 v -2.9 c 0,-0.1 -0.1,0 0,0 h 5.8 c 0.1,0 0,-0.1 0,0 v 2.9 c 0,0.056 0.045,0.1 0.1,0.1 h 6 c 0.055,0 0.1,-0.044 0.1,-0.1 v -2.9 c 0,-0.1 -0.1,0 0,0 h 5.8 c 0.1,0 0,-0.1 0,0 v 2.9 c 0,0.056 0.045,0.1 0.1,0.1 h 6 c 0.055,0 0.1,-0.044 0.1,-0.1 v -2.9 c 0,-0.1 -0.1,0 0,0 h 5.8 c 0.1,0 0,-0.1 0,0 v 2.9 c 0,0.056 0.045,0.1 0.1,0.1 h 6 c 0.055,0 0.1,-0.044 0.1,-0.1 v -2.9 c 0,-0.1 -0.1,0 0,0 h 5.8 c 0.1,0 0,-0.1 0,0 v 2.9 c 0,0.056 0.045,0.1 0.1,0.1 h 6 c 0.055,0 0.1,-0.044 0.1,-0.1 v -2.9 c 0,-0.1 -0.1,0 0,0 h 5.8 c 0.1,0 0,-0.1 0,0 v 2.9 c 0,0.056 0.045,0.1 0.1,0.1 h 6 c 0.055,0 0.1,-0.044 0.1,-0.1 v -2.9 c 0,-0.1 -0.1,0 0,0 h 5.8 c 0.1,0 0,-0.1 0,0 v 2.9 c 0,0.056 0.045,0.1 0.1,0.1 h 6 c 0.055,0 0.1,-0.044 0.1,-0.1 v -2.9 c 0,-0.1 -0.1,0 0,0 h 5.8 c 0.1,0 0,-0.1 0,0 v 2.9 c 0,0.056 0.045,0.1 0.1,0.1 h 6 c 0.055,0 0.1,-0.044 0.1,-0.1 v -2.9 c 0,-0.1 -0.1,0 0,0 h 5.8 c 0.1,0 0,-0.1 0,0 v 2.9 c 0,0.056 0.045,0.1 0.1,0.1 h 6 c 0.055,0 0.1,-0.044 0.1,-0.1 v -2.9 c 0,-0.1 -0.1,0 0,0 h 5.8 c 0.1,0 0,-0.1 0,0 v 2.9 c 0,0.056 0.045,0.1 0.1,0.1 h 6 c 0.055,0 0.1,-0.044 0.1,-0.1 v -2.9 c 0,-0.1 -0.1,0 0,0 h 5.8 c 0.1,0 0,-0.1 0,0 v 2.9 c 0,0.056 0.045,0.1 0.1,0.1 h 6 c 0.055,0 0.1,-0.044 0.1,-0.1 v -2.9 c 0,-0.1 -0.1,0 0,0 h 5.8 c 0.1,0 0,-0.1 0,0 v 2.9 c 0,0.056 0.045,0.1 0.1,0.1 h 6 c 0.055,0 0.1,-0.044 0.1,-0.1 v -2.9 c 0,-0.1 -0.1,0 0,0 h 5.8 c 0.1,0 0,-0.1 0,0 v 2.9 c 0,0.056 0.045,0.1 0.1,0.1 h 6 c 0.055,0 0.1,-0.044 0.1,-0.1 v -2.9 c 0,-0.1 -0.1,0 0,0 h 5.8 c 0.1,0 0,-0.1 0,0 v 2.9 c 0,0.056 0.045,0.1 0.1,0.1 h 6 c 0.055,0 0.1,-0.044 0.1,-0.1 v -2.9 c 0,-0.1 -0.1,0 0,0 h 5.8 c 0.1,0 0,-0.1 0,0 v 2.9 c 0,0.056 0.045,0.1 0.1,0.1 h 6 c 0.055,0 0.1,-0.044 0.1,-0.1 v -2.9 c 0,-0.1 -0.1,0 0,0 h 5.8 c 0.1,0 0,-0.1 0,0 v 2.9 c 0,0.056 0.045,0.1 0.1,0.1 h 6 c 0.055,0 0.1,-0.044 0.1,-0.1 v -2.9 c 0,-0.1 -0.1,0 0,0 h 5.8 c 0.1,0 0,-0.1 0,0 v 2.9 c 0,0.056 0.045,0.1 0.1,0.1 h 6 c 0.055,0 0.1,-0.044 0.1,-0.1 v -2.9 c 0,-0.1 -0.1,0 0,0 h 5.8 c 0.1,0 0,-0.1 0,0 v 2.9 c 0,0.056 0.045,0.1 0.1,0.1 h 6 c 0.055,0 0.1,-0.044 0.1,-0.1 v -2.9 c 0,-0.1 -0.1,0 0,0 h 5.8 c 0.1,0 0,-0.1 0,0 v 2.9 c 0,0.056 0.045,0.1 0.1,0.1 h 6 c 0.055,0 0.1,-0.044 0.1,-0.1 v -2.9 c 0,-0.1 -0.1,0 0,0 h 5.8 c 0.1,0 0,-0.1 0,0 v 2.9 c 0,0.056 0.045,0.1 0.1,0.1 h 6 c 0.055,0 0.1,-0.044 0.1,-0.1 v -2.9 c 0,-0.1 -0.1,0 0,0 h 5.8 c 0.1,0 0,-0.1 0,0 v 2.9 c 0,0.056 0.045,0.1 0.1,0.1 h 6 c 0.055,0 0.1,-0.044 0.1,-0.1 v -2.9 c 0,-0.1 -0.1,0 0,0 h 5.8 c 0.1,0 0,-0.1 0,0 v 2.9 c 0,0.056 0.045,0.1 0.1,0.1 h 6 c 0.055,0 0.1,-0.044 0.1,-0.1 v -2.9 c 0,-0.1 -0.1,0 0,0 h 5.8 c 0.1,0 0,-0.1 0,0 v 2.9 c 0,0.056 0.045,0.1 0.1,0.1 h 6 c 0.055,0 0.1,-0.044 0.1,-0.1 v -2.9 c 0,-0.1 -0.1,0 0,0 h 5.8 c 0.1,0 0,-0.1 0,0 v 2.9 c 0,0.056 0.045,0.1 0.1,0.1 h 6 c 0.055,0 0.1,-0.044 0.1,-0.1 v -2.9 c 0,-0.1 -0.1,0 0,0 h 5.8 c 0.1,0 0,-0.1 0,0 v 2.9 c 0,0.056 0.045,0.1 0.1,0.1 h 6 c 0.055,0 0.1,-0.044 0.1,-0.1 v -2.9 c 0,-0.1 -0.1,0 0,0 h 5.8 c 0.1,0 0,-0.1 0,0 v 2.9 c 0,0.056 0.045,0.1 0.1,0.1 h 6 c 0.055,0 0.1,-0.044 0.1,-0.1 v -2.9 c 0,-0.1 -0.1,0 0,0 h 5.8 c 0.1,0 0,-0.1 0,0 v 2.9 c 0,0.056 0.045,0.1 0.1,0.1 h 6 c 0.055,0 0.1,-0.044 0.1,-0.1 v -2.9 c 0,-0.1 -0.1,0 0,0 h 5.8 c 0.1,0 0,-0.1 0,0 v 2.9 c 0,0.056 0.045,0.1 0.1,0.1 h 6 c 0.055,0 0.1,-0.044 0.1,-0.1 v -2.9 c 0,-0.1 -0.1,0 0,0 h 5.8 c 0.1,0 0,-0.1 0,0 v 2.9 c 0,0.056 0.045,0.1 0.1,0.1 h 6 c 0.055,0 0.1,-0.044 0.1,-0.1 v -2.9 c 0,-0.1 -0.1,0 0,0 h 5.8 c 0.1,0 0,-0.1 0,0 v 2.9 c 0,0.056 0.045,0.1 0.1,0.1 h 6 c 0.055,0 0.1,-0.044 0.1,-0.1 v -2.9 c 0,-0.1 -0.1,0 0,0 h 9.9 c 0.055,0 0.1,-0.044 0.1,-0.1 v -9.912 c 0,-0.1 -0.1,0 0,0 h 2.9 c 0.055,0 0.1,-0.045 0.1,-0.1 v -6 c 0,-0.056 -0.045,-0.1 -0.1,-0.1 h -2.9 c -0.1,0 0,0.1 0,0 v -5.8 c 0,-0.1 -0.1,0 0,0 h 2.9 c 0.055,0 0.1,-0.045 0.1,-0.1 v -6 c 0,-0.056 -0.045,-0.1 -0.1,-0.1 h -2.9 c -0.1,0 0,0.1 0,0 v -5.8 c 0,-0.1 -0.1,0 0,0 h 2.9 c 0.055,0 0.1,-0.045 0.1,-0.1 v -6 c 0,-0.056 -0.045,-0.1 -0.1,-0.1 h -2.9 c -0.1,0 0,0.1 0,0 v -5.8 c 0,-0.1 -0.1,0 0,0 h 2.9 c 0.055,0 0.1,-0.045 0.1,-0.1 v -6 c 0,-0.056 -0.045,-0.1 -0.1,-0.1 h -2.9 c -0.1,0 0,0.1 0,0 v -5.8 c 0,-0.1 -0.1,0 0,0 h 2.9 c 0.055,0 0.1,-0.045 0.1,-0.1 v -6 c 0,-0.056 -0.045,-0.1 -0.1,-0.1 h -2.9 c -0.1,0 0,0.1 0,0 v -5.8 c 0,-0.1 -0.1,0 0,0 h 2.9 c 0.055,0 0.1,-0.045 0.1,-0.1 v -6 c 0,-0.056 -0.045,-0.1 -0.1,-0.1 h -2.9 c -0.1,0 0,0.1 0,0 v -5.8 c 0,-0.1 -0.1,0 0,0 h 2.9 c 0.055,0 0.1,-0.045 0.1,-0.1 v -6 c 0,-0.056 -0.045,-0.1 -0.1,-0.1 h -2.9 c -0.1,0 0,0.1 0,0 v -5.8 c 0,-0.1 -0.1,0 0,0 h 2.9 c 0.055,0 0.1,-0.045 0.1,-0.1 v -6 c 0,-0.056 -0.045,-0.1 -0.1,-0.1 h -2.9 c -0.1,0 0,0.1 0,0 v -5.8 c 0,-0.1 -0.1,0 0,0 h 2.9 c 0.055,0 0.1,-0.045 0.1,-0.1 v -6 c 0,-0.056 -0.045,-0.1 -0.1,-0.1 h -2.9 c -0.1,0 0,0.1 0,0 v -5.8 c 0,-0.1 -0.1,0 0,0 h 2.9 c 0.055,0 0.1,-0.045 0.1,-0.1 v -6 c 0,-0.056 -0.045,-0.1 -0.1,-0.1 h -2.9 c -0.1,0 0,0.1 0,0 v -5.8 c 0,-0.1 -0.1,0 0,0 h 2.9 c 0.055,0 0.1,-0.045 0.1,-0.1 v -6 c 0,-0.056 -0.045,-0.1 -0.1,-0.1 h -2.9 c -0.1,0 0,0.1 0,0 v -5.8 c 0,-0.1 -0.1,0 0,0 h 2.9 c 0.055,0 0.1,-0.045 0.1,-0.1 v -6 c 0,-0.056 -0.045,-0.1 -0.1,-0.1 h -2.9 c -0.1,0 0,0.1 0,0 v -5.8 c 0,-0.1 -0.1,0 0,0 h 2.9 c 0.055,0 0.1,-0.045 0.1,-0.1 v -6 c 0,-0.056 -0.045,-0.1 -0.1,-0.1 h -2.9 c -0.1,0 0,0.1 0,0 v -5.8 c 0,-0.1 -0.1,0 0,0 h 2.9 c 0.055,0 0.1,-0.045 0.1,-0.1 v -6 c 0,-0.056 -0.045,-0.1 -0.1,-0.1 h -2.9 c -0.1,0 0,0.1 0,0 v -5.8 c 0,-0.1 -0.1,0 0,0 h 2.9 c 0.055,0 0.1,-0.045 0.1,-0.1 v -6 c 0,-0.056 -0.045,-0.1 -0.1,-0.1 h -2.9 c -0.1,0 0,0.1 0,0 v -5.8 c 0,-0.1 -0.1,0 0,0 h 2.9 c 0.055,0 0.1,-0.045 0.1,-0.1 v -6 c 0,-0.056 -0.045,-0.1 -0.1,-0.1 h -2.9 c -0.1,0 0,0.1 0,0 v -5.8 c 0,-0.1 -0.1,0 0,0 h 2.9 c 0.055,0 0.1,-0.045 0.1,-0.1 v -6 c 0,-0.056 -0.045,-0.1 -0.1,-0.1 h -2.9 c -0.1,0 0,0.1 0,0 v -5.8 c 0,-0.1 -0.1,0 0,0 h 2.9 c 0.055,0 0.1,-0.045 0.1,-0.1 v -6 c 0,-0.056 -0.045,-0.1 -0.1,-0.1 h -2.9 c -0.1,0 0,0.1 0,0 v -5.8 c 0,-0.1 -0.1,0 0,0 h 2.9 c 0.055,0 0.1,-0.045 0.1,-0.1 v -6 c 0,-0.056 -0.045,-0.1 -0.1,-0.1 h -2.9 c -0.1,0 0,0.1 0,0 v -5.8 c 0,-0.1 -0.1,0 0,0 h 2.9 c 0.055,0 0.1,-0.045 0.1,-0.1 v -6 c 0,-0.056 -0.045,-0.1 -0.1,-0.1 h -2.9 c -0.1,0 0,0.1 0,0 v -5.8 c 0,-0.1 -0.1,0 0,0 h 2.9 c 0.055,0 0.1,-0.045 0.1,-0.1 v -6 c 0,-0.056 -0.045,-0.1 -0.1,-0.1 h -2.9 c -0.1,0 0,0.1 0,0 v -5.8 c 0,-0.1 -0.1,0 0,0 h 2.9 c 0.055,0 0.1,-0.045 0.1,-0.1 v -6 c 0,-0.056 -0.045,-0.1 -0.1,-0.1 h -2.9 c -0.1,0 0,0.1 0,0 v -5.8 c 0,-0.1 -0.1,0 0,0 h 2.9 c 0.055,0 0.1,-0.045 0.1,-0.1 v -6 c 0,-0.056 -0.045,-0.1 -0.1,-0.1 h -2.9 c -0.1,0 0,0.1 0,0 v -5.8 c 0,-0.1 -0.1,0 0,0 h 2.9 c 0.055,0 0.1,-0.045 0.1,-0.1 v -6 c 0,-0.056 -0.045,-0.1 -0.1,-0.1 h -2.9 c -0.1,0 0,0.1 0,0 v -5.8 c 0,-0.1 -0.1,0 0,0 h 2.9 c 0.055,0 0.1,-0.045 0.1,-0.1 v -6 c 0,-0.056 -0.045,-0.1 -0.1,-0.1 h -2.9 c -0.1,0 0,0.1 0,0 v -5.8 c 0,-0.1 -0.1,0 0,0 h 2.9 c 0.055,0 0.1,-0.045 0.1,-0.1 v -6 c 0,-0.056 -0.045,-0.1 -0.1,-0.1 h -2.9 c -0.1,0 0,0.1 0,0 v -5.8 c 0,-0.1 -0.1,0 0,0 h 2.9 c 0.055,0 0.1,-0.045 0.1,-0.1 v -6 c 0,-0.056 -0.045,-0.1 -0.1,-0.1 h -2.9 c -0.1,0 0,0.1 0,0 v -5.8 c 0,-0.1 -0.1,0 0,0 h 2.9 c 0.055,0 0.1,-0.045 0.1,-0.1 v -6 c 0,-0.056 -0.045,-0.1 -0.1,-0.1 h -2.9 c -0.1,0 0,0.1 0,0 v -5.8 c 0,-0.1 -0.1,0 0,0 h 2.9 c 0.055,0 0.1,-0.045 0.1,-0.1 v -6 c 0,-0.056 -0.045,-0.1 -0.1,-0.1 h -2.9 c -0.1,0 0,0.1 0,0 v -5.8 c 0,-0.1 -0.1,0 0,0 h 2.9 c 0.055,0 0.1,-0.045 0.1,-0.1 v -6 c 0,-0.056 -0.045,-0.1 -0.1,-0.1 h -2.9 c -0.1,0 0,0.1 0,0 v -5.8 c 0,-0.1 -0.1,0 0,0 h 2.9 c 0.055,0 0.1,-0.045 0.1,-0.1 v -6 c 0,-0.056 -0.045,-0.1 -0.1,-0.1 h -2.9 c -0.1,0 0,0.1 0,0 v -5.8 c 0,-0.1 -0.1,0 0,0 h 2.9 c 0.055,0 0.1,-0.045 0.1,-0.1 v -6 c 0,-0.056 -0.045,-0.1 -0.1,-0.1 h -2.9 c -0.1,0 0,0.1 0,0 v -5.8 c 0,-0.1 -0.1,0 0,0 h 2.9 c 0.055,0 0.1,-0.045 0.1,-0.1 v -6 c 0,-0.056 -0.045,-0.1 -0.1,-0.1 h -2.9 c -0.1,0 0,0.1 0,0 v -5.8 c 0,-0.1 -0.1,0 0,0 h 2.9 c 0.055,0 0.1,-0.045 0.1,-0.1 v -6 c 0,-0.056 -0.045,-0.1 -0.1,-0.1 h -2.9 c -0.1,0 0,0.1 0,0 v -5.8 c 0,-0.1 -0.1,0 0,0 h 2.9 c 0.055,0 0.1,-0.045 0.1,-0.1 v -6 c 0,-0.056 -0.045,-0.1 -0.1,-0.1 h -2.9 c -0.1,0 0,0.1 0,0 v -5.8 c 0,-0.1 -0.1,0 0,0 h 2.9 c 0.055,0 0.1,-0.045 0.1,-0.1 v -6 c 0,-0.056 -0.045,-0.1 -0.1,-0.1 h -2.9 c -0.1,0 0,0.1 0,0 v -5.8 c 0,-0.1 -0.1,0 0,0 h 2.9 c 0.055,0 0.1,-0.045 0.1,-0.1 v -6 c 0,-0.056 -0.045,-0.1 -0.1,-0.1 h -2.9 c -0.1,0 0,0.1 0,0 v -5.8 c 0,-0.1 -0.1,0 0,0 h 2.9 c 0.055,0 0.1,-0.045 0.1,-0.1 v -6 c 0,-0.056 -0.045,-0.1 -0.1,-0.1 h -2.9 c -0.1,0 0,0.1 0,0 v -5.8 c 0,-0.1 -0.1,0 0,0 h 2.9 c 0.055,0 0.1,-0.045 0.1,-0.1 v -6 c 0,-0.056 -0.045,-0.1 -0.1,-0.1 h -2.9 c -0.1,0 0,0.1 0,0 v -5.8 c 0,-0.1 -0.1,0 0,0 h 2.9 c 0.055,0 0.1,-0.045 0.1,-0.1 v -6 c 0,-0.056 -0.045,-0.1 -0.1,-0.1 h -2.9 c -0.1,0 0,0.1 0,0 v -5.8 c 0,-0.1 -0.1,0 0,0 h 2.9 c 0.055,0 0.1,-0.045 0.1,-0.1 v -6 c 0,-0.056 -0.045,-0.1 -0.1,-0.1 h -2.9 c -0.1,0 0,0.1 0,0 v -5.8 c 0,-0.1 -0.1,0 0,0 h 2.9 c 0.055,0 0.1,-0.045 0.1,-0.1 v -6 c 0,-0.056 -0.045,-0.1 -0.1,-0.1 h -2.9 c -0.1,0 0,0.1 0,0 v -5.8 c 0,-0.1 -0.1,0 0,0 h 2.9 c 0.055,0 0.1,-0.045 0.1,-0.1 v -6 c 0,-0.056 -0.045,-0.1 -0.1,-0.1 h -2.9 c -0.1,0 0,0.1 0,0 v -5.8 c 0,-0.1 -0.1,0 0,0 h 2.9 c 0.055,0 0.1,-0.045 0.1,-0.1 v -6 c 0,-0.056 -0.045,-0.1 -0.1,-0.1 h -2.9 c -0.1,0 0,0.1 0,0 v -5.8 c 0,-0.1 -0.1,0 0,0 h 2.9 c 0.055,0 0.1,-0.045 0.1,-0.1 v -6 c 0,-0.056 -0.045,-0.1 -0.1,-0.1 h -2.9 c -0.1,0 0,0.1 0,0 v -5.8 c 0,-0.1 -0.1,0 0,0 h 2.9 c 0.055,0 0.1,-0.045 0.1,-0.1 v -6 c 0,-0.056 -0.045,-0.1 -0.1,-0.1 h -2.9 c -0.1,0 0,0.1 0,0 v -5.8 c 0,-0.1 -0.1,0 0,0 h 2.9 c 0.055,0 0.1,-0.045 0.1,-0.1 v -6 c 0,-0.056 -0.045,-0.1 -0.1,-0.1 h -2.9 c -0.1,0 0,0.1 0,0 v -5.8 c 0,-0.1 -0.1,0 0,0 h 2.9 c 0.055,0 0.1,-0.045 0.1,-0.1 v -6 c 0,-0.056 -0.045,-0.1 -0.1,-0.1 h -2.9 c -0.1,0 0,0.1 0,0 v -5.8 c 0,-0.1 -0.1,0 0,0 h 2.9 c 0.055,0 0.1,-0.045 0.1,-0.1 v -6 c 0,-0.056 -0.045,-0.1 -0.1,-0.1 h -2.9 c -0.1,0 0,0.1 0,0 v -5.8 c 0,-0.1 -0.1,0 0,0 h 2.9 c 0.055,0 0.1,-0.045 0.1,-0.1 v -6 c 0,-0.056 -0.045,-0.1 -0.1,-0.1 h -2.9 c -0.1,0 0,0.1 0,0 v -5.8 c 0,-0.1 -0.1,0 0,0 h 2.9 c 0.055,0 0.1,-0.045 0.1,-0.1 v -6 c 0,-0.056 -0.045,-0.1 -0.1,-0.1 h -2.9 c -0.1,0 0,0.1 0,0 v -5.8 c 0,-0.1 -0.1,0 0,0 h 2.9 c 0.055,0 0.1,-0.045 0.1,-0.1 v -6 c 0,-0.056 -0.045,-0.1 -0.1,-0.1 h -2.9 c -0.1,0 0,0.1 0,0 v -5.8 c 0,-0.1 -0.1,0 0,0 h 2.9 c 0.055,0 0.1,-0.045 0.1,-0.1 v -6 c 0,-0.056 -0.045,-0.1 -0.1,-0.1 h -2.9 c -0.1,0 0,0.1 0,0 v -5.8 c 0,-0.1 -0.1,0 0,0 h 2.9 c 0.055,0 0.1,-0.045 0.1,-0.1 v -6 c 0,-0.056 -0.045,-0.1 -0.1,-0.1 h -2.9 c -0.1,0 0,0.1 0,0 v -5.8 c 0,-0.1 -0.1,0 0,0 h 2.9 c 0.055,0 0.1,-0.045 0.1,-0.1 v -6 c 0,-0.056 -0.045,-0.1 -0.1,-0.1 h -2.9 c -0.1,0 0,0.1 0,0 v -5.8 c 0,-0.1 -0.1,0 0,0 h 2.9 c 0.055,0 0.1,-0.045 0.1,-0.1 v -6 c 0,-0.056 -0.045,-0.1 -0.1,-0.1 h -2.9 c -0.1,0 0,0.1 0,0 v -5.8 c 0,-0.1 -0.1,0 0,0 h 2.9 c 0.055,0 0.1,-0.045 0.1,-0.1 v -6 c 0,-0.056 -0.045,-0.1 -0.1,-0.1 h -2.9 c -0.1,0 0,0.1 0,0 v -5.8 c 0,-0.1 -0.1,0 0,0 h 2.9 c 0.055,0 0.1,-0.045 0.1,-0.1 v -6 c 0,-0.056 -0.045,-0.1 -0.1,-0.1 h -2.9 c -0.1,0 0,0.1 0,0 V 13.1 c 0,-0.055 -0.045,-0.1 -0.1,-0.1 h -9.9 c -0.1,0 0,0.1 0,0 v -2.9 c 0,-0.055 -0.045,-0.1 -0.1,-0.1 h -6 c -0.055,0 -0.1,0.045 -0.1,0.1 V 13 c 0,0.1 0.1,0 0,0 h -5.8 c -0.1,0 0,0.1 0,0 v -2.9 c 0,-0.055 -0.045,-0.1 -0.1,-0.1 h -6 c -0.055,0 -0.1,0.045 -0.1,0.1 V 13 c 0,0.1 0.1,0 0,0 h -5.8 c -0.1,0 0,0.1 0,0 v -2.9 c 0,-0.055 -0.045,-0.1 -0.1,-0.1 h -6 c -0.055,0 -0.1,0.045 -0.1,0.1 V 13 c 0,0.1 0.1,0 0,0 h -5.8 c -0.1,0 0,0.1 0,0 v -2.9 c 0,-0.055 -0.045,-0.1 -0.1,-0.1 h -6 c -0.055,0 -0.1,0.045 -0.1,0.1 V 13 c 0,0.1 0.1,0 0,0 h -5.8 c -0.1,0 0,0.1 0,0 v -2.9 c 0,-0.055 -0.045,-0.1 -0.1,-0.1 h -6 c -0.055,0 -0.1,0.045 -0.1,0.1 V 13 c 0,0.1 0.1,0 0,0 h -5.8 c -0.1,0 0,0.1 0,0 v -2.9 c 0,-0.055 -0.045,-0.1 -0.1,-0.1 h -6 c -0.055,0 -0.1,0.045 -0.1,0.1 V 13 c 0,0.1 0.1,0 0,0 h -5.8 c -0.1,0 0,0.1 0,0 v -2.9 c 0,-0.055 -0.045,-0.1 -0.1,-0.1 h -6 c -0.055,0 -0.1,0.045 -0.1,0.1 V 13 c 0,0.1 0.1,0 0,0 h -5.8 c -0.1,0 0,0.1 0,0 v -2.9 c 0,-0.055 -0.045,-0.1 -0.1,-0.1 h -6 c -0.055,0 -0.1,0.045 -0.1,0.1 V 13 c 0,0.1 0.1,0 0,0 h -5.8 c -0.1,0 0,0.1 0,0 v -2.9 c 0,-0.055 -0.045,-0.1 -0.1,-0.1 h -6 c -0.055,0 -0.1,0.045 -0.1,0.1 V 13 c 0,0.1 0.1,0 0,0 h -5.8 c -0.1,0 0,0.1 0,0 v -2.9 c 0,-0.055 -0.045,-0.1 -0.1,-0.1 h -6 c -0.055,0 -0.1,0.045 -0.1,0.1 V 13 c 0,0.1 0.1,0 0,0 h -5.8 c -0.1,0 0,0.1 0,0 v -2.9 c 0,-0.055 -0.045,-0.1 -0.1,-0.1 h -6 c -0.055,0 -0.1,0.045 -0.1,0.1 V 13 c 0,0.1 0.1,0 0,0 h -5.8 c -0.1,0 0,0.1 0,0 v -2.9 c 0,-0.055 -0.045,-0.1 -0.1,-0.1 h -6 c -0.055,0 -0.1,0.045 -0.1,0.1 V 13 c 0,0.1 0.1,0 0,0 h -5.8 c -0.1,0 0,0.1 0,0 v -2.9 c 0,-0.055 -0.045,-0.1 -0.1,-0.1 h -6 c -0.055,0 -0.1,0.045 -0.1,0.1 V 13 c 0,0.1 0.1,0 0,0 h -5.8 c -0.1,0 0,0.1 0,0 v -2.9 c 0,-0.055 -0.045,-0.1 -0.1,-0.1 h -6 c -0.055,0 -0.1,0.045 -0.1,0.1 V 13 c 0,0.1 0.1,0 0,0 h -5.8 c -0.1,0 0,0.1 0,0 v -2.9 c 0,-0.055 -0.045,-0.1 -0.1,-0.1 h -6 c -0.055,0 -0.1,0.045 -0.1,0.1 V 13 c 0,0.1 0.1,0 0,0 h -5.8 c -0.1,0 0,0.1 0,0 v -2.9 c 0,-0.055 -0.045,-0.1 -0.1,-0.1 h -6 c -0.055,0 -0.1,0.045 -0.1,0.1 V 13 c 0,0.1 0.1,0 0,0 h -5.8 c -0.1,0 0,0.1 0,0 v -2.9 c 0,-0.055 -0.045,-0.1 -0.1,-0.1 h -6 c -0.055,0 -0.1,0.045 -0.1,0.1 V 13 c 0,0.1 0.1,0 0,0 h -5.8 c -0.1,0 0,0.1 0,0 v -2.9 c 0,-0.055 -0.045,-0.1 -0.1,-0.1 h -6 c -0.055,0 -0.1,0.045 -0.1,0.1 V 13 c 0,0.1 0.1,0 0,0 h -5.8 c -0.1,0 0,0.1 0,0 v -2.9 c 0,-0.055 -0.045,-0.1 -0.1,-0.1 h -6 c -0.055,0 -0.1,0.045 -0.1,0.1 V 13 c 0,0.1 0.1,0 0,0 h -5.8 c -0.1,0 0,0.1 0,0 v -2.9 c 0,-0.055 -0.045,-0.1 -0.1,-0.1 h -6 c -0.055,0 -0.1,0.045 -0.1,0.1 V 13 c 0,0.1 0.1,0 0,0 h -5.8 c -0.1,0 0,0.1 0,0 v -2.9 c 0,-0.055 -0.045,-0.1 -0.1,-0.1 h -6 c -0.055,0 -0.1,0.045 -0.1,0.1 V 13 c 0,0.1 0.1,0 0,0 h -5.8 c -0.1,0 0,0.1 0,0 v -2.9 c 0,-0.055 -0.045,-0.1 -0.1,-0.1 h -6 c -0.055,0 -0.1,0.045 -0.1,0.1 V 13 c 0,0.1 0.1,0 0,0 h -5.8 c -0.1,0 0,0.1 0,0 v -2.9 c 0,-0.055 -0.045,-0.1 -0.1,-0.1 h -6 c -0.055,0 -0.1,0.045 -0.1,0.1 V 13 c 0,0.1 0.1,0 0,0 h -5.8 c -0.1,0 0,0.1 0,0 v -2.9 c 0,-0.055 -0.045,-0.1 -0.1,-0.1 h -6 c -0.055,0 -0.1,0.045 -0.1,0.1 V 13 c 0,0.1 0.1,0 0,0 h -5.8 c -0.1,0 0,0.1 0,0 v -2.9 c 0,-0.055 -0.045,-0.1 -0.1,-0.1 h -6 c -0.055,0 -0.1,0.045 -0.1,0.1 V 13 c 0,0.1 0.1,0 0,0 h -5.8 c -0.1,0 0,0.1 0,0 v -2.9 c 0,-0.055 -0.045,-0.1 -0.1,-0.1 h -6 c -0.055,0 -0.1,0.045 -0.1,0.1 V 13 c 0,0.1 0.1,0 0,0 h -5.8 c -0.1,0 0,0.1 0,0 v -2.9 c 0,-0.055 -0.045,-0.1 -0.1,-0.1 h -6 c -0.055,0 -0.1,0.045 -0.1,0.1 V 13 c 0,0.1 0.1,0 0,0 h -5.8 c -0.1,0 0,0.1 0,0 v -2.9 c 0,-0.055 -0.045,-0.1 -0.1,-0.1 h -6 c -0.055,0 -0.1,0.045 -0.1,0.1 V 13 c 0,0.1 0.1,0 0,0 h -5.8 c -0.1,0 0,0.1 0,0 v -2.9 c 0,-0.055 -0.045,-0.1 -0.1,-0.1 h -6 c -0.055,0 -0.1,0.045 -0.1,0.1 V 13 c 0,0.1 0.1,0 0,0 h -5.8 c -0.1,0 0,0.1 0,0 v -2.9 c 0,-0.055 -0.045,-0.1 -0.1,-0.1 h -6 c -0.055,0 -0.1,0.045 -0.1,0.1 V 13 c 0,0.1 0.1,0 0,0 h -5.8 c -0.1,0 0,0.1 0,0 v -2.9 c 0,-0.055 -0.045,-0.1 -0.1,-0.1 h -6 c -0.055,0 -0.1,0.045 -0.1,0.1 V 13 c 0,0.1 0.1,0 0,0 h -5.8 c -0.1,0 0,0.1 0,0 v -2.9 c 0,-0.055 -0.045,-0.1 -0.1,-0.1 h -6 c -0.055,0 -0.1,0.045 -0.1,0.1 V 13 c 0,0.1 0.1,0 0,0 h -5.8 c -0.1,0 0,0.1 0,0 v -2.9 c 0,-0.055 -0.045,-0.1 -0.1,-0.1 h -6 c -0.055,0 -0.1,0.045 -0.1,0.1 V 13 c 0,0.1 0.1,0 0,0 h -5.8 c -0.1,0 0,0.1 0,0 v -2.9 c 0,-0.055 -0.045,-0.1 -0.1,-0.1 h -6 c -0.055,0 -0.1,0.045 -0.1,0.1 V 13 c 0,0.1 0.1,0 0,0 h -5.8 c -0.1,0 0,0.1 0,0 v -2.9 c 0,-0.055 -0.045,-0.1 -0.1,-0.1 h -6 c -0.055,0 -0.1,0.045 -0.1,0.1 V 13 c 0,0.1 0.1,0 0,0 h -9.9 c -0.055,0 -0.1,0.045 -0.1,0.1 v 9.913 c 0,0.1 0.1,0 0,0 h -2.9 c -0.055,0 -0.1,0.044 -0.1,0.1 v 6 c 0,0.055 0.045,0.1 0.1,0.1 h 2.9 c 0.1,0 0,-0.1 0,0 v 5.8 c 0,0.1 0.1,0 0,0 h -2.9 c -0.055,0 -0.1,0.044 -0.1,0.1 v 6 c 0,0.055 0.045,0.1 0.1,0.1 h 2.9 c 0.1,0 0,-0.1 0,0 v 5.8 c 0,0.1 0.1,0 0,0 h -2.9 c -0.055,0 -0.1,0.044 -0.1,0.1 v 6 c 0,0.055 0.045,0.1 0.1,0.1 h 2.9 c 0.1,0 0,-0.1 0,0 v 5.8 c 0,0.1 0.1,0 0,0 h -2.9 c -0.055,0 -0.1,0.044 -0.1,0.1 v 6 c 0,0.055 0.045,0.1 0.1,0.1 h 2.9 c 0.1,0 0,-0.1 0,0 v 5.8 c 0,0.1 0.1,0 0,0 h -2.9 c -0.055,0 -0.1,0.044 -0.1,0.1 v 6 c 0,0.055 0.045,0.1 0.1,0.1 h 2.9 c 0.1,0 0,-0.1 0,0 v 5.8 c 0,0.1 0.1,0 0,0 h -2.9 c -0.055,0 -0.1,0.044 -0.1,0.1 v 6 c 0,0.055 0.045,0.1 0.1,0.1 h 2.9 c 0.1,0 0,-0.1 0,0 v 5.8 c 0,0.1 0.1,0 0,0 h -2.9 c -0.055,0 -0.1,0.044 -0.1,0.1 v 6 c 0,0.055 0.045,0.1 0.1,0.1 h 2.9 c 0.1,0 0,-0.1 0,0 v 5.8 c 0,0.1 0.1,0 0,0 h -2.9 c -0.055,0 -0.1,0.044 -0.1,0.1 v 6 c 0,0.055 0.045,0.1 0.1,0.1 h 2.9 c 0.1,0 0,-0.1 0,0 v 5.8 c 0,0.1 0.1,0 0,0 h -2.9 c -0.055,0 -0.1,0.044 -0.1,0.1 v 6 c 0,0.055 0.045,0.1 0.1,0.1 h 2.9 c 0.1,0 0,-0.1 0,0 v 5.8 c 0,0.1 0.1,0 0,0 h -2.9 c -0.055,0 -0.1,0.044 -0.1,0.1 v 6 c 0,0.055 0.045,0.1 0.1,0.1 h 2.9 c 0.1,0 0,-0.1 0,0 v 5.8 c 0,0.1 0.1,0 0,0 h -2.9 c -0.055,0 -0.1,0.044 -0.1,0.1 v 6 c 0,0.055 0.045,0.1 0.1,0.1 h 2.9 c 0.1,0 0,-0.1 0,0 v 5.8 c 0,0.1 0.1,0 0,0 h -2.9 c -0.055,0 -0.1,0.044 -0.1,0.1 v 6 c 0,0.055 0.045,0.1 0.1,0.1 h 2.9 c 0.1,0 0,-0.1 0,0 v 5.8 c 0,0.1 0.1,0 0,0 h -2.9 c -0.055,0 -0.1,0.044 -0.1,0.1 v 6 c 0,0.055 0.045,0.1 0.1,0.1 h 2.9 c 0.1,0 0,-0.1 0,0 v 5.8 c 0,0.1 0.1,0 0,0 h -2.9 c -0.055,0 -0.1,0.044 -0.1,0.1 v 6 c 0,0.055 0.045,0.1 0.1,0.1 h 2.9 c 0.1,0 0,-0.1 0,0 v 5.8 c 0,0.1 0.1,0 0,0 h -2.9 c -0.055,0 -0.1,0.044 -0.1,0.1 v 6 c 0,0.055 0.045,0.1 0.1,0.1 h 2.9 c 0.1,0 0,-0.1 0,0 v 5.8 c 0,0.1 0.1,0 0,0 h -2.9 c -0.055,0 -0.1,0.044 -0.1,0.1 v 6 c 0,0.055 0.045,0.1 0.1,0.1 h 2.9 c 0.1,0 0,-0.1 0,0 v 5.8 c 0,0.1 0.1,0 0,0 h -2.9 c -0.055,0 -0.1,0.044 -0.1,0.1 v 6 c 0,0.055 0.045,0.1 0.1,0.1 h 2.9 c 0.1,0 0,-0.1 0,0 v 5.8 c 0,0.1 0.1,0 0,0 h -2.9 c -0.055,0 -0.1,0.044 -0.1,0.1 v 6 c 0,0.055 0.045,0.1 0.1,0.1 h 2.9 c 0.1,0 0,-0.1 0,0 v 5.8 c 0,0.1 0.1,0 0,0 h -2.9 c -0.055,0 -0.1,0.044 -0.1,0.1 v 6 c 0,0.055 0.045,0.1 0.1,0.1 h 2.9 c 0.1,0 0,-0.1 0,0 v 5.8 c 0,0.1 0.1,0 0,0 h -2.9 c -0.055,0 -0.1,0.044 -0.1,0.1 v 6 c 0,0.055 0.045,0.1 0.1,0.1 h 2.9 c 0.1,0 0,-0.1 0,0 v 5.8 c 0,0.1 0.1,0 0,0 h -2.9 c -0.055,0 -0.1,0.044 -0.1,0.1 v 6 c 0,0.055 0.045,0.1 0.1,0.1 h 2.9 c 0.1,0 0,-0.1 0,0 v 5.8 c 0,0.1 0.1,0 0,0 h -2.9 c -0.055,0 -0.1,0.044 -0.1,0.1 v 6 c 0,0.055 0.045,0.1 0.1,0.1 h 2.9 c 0.1,0 0,-0.1 0,0 v 5.8 c 0,0.1 0.1,0 0,0 h -2.9 c -0.055,0 -0.1,0.044 -0.1,0.1 v 6 c 0,0.055 0.045,0.1 0.1,0.1 h 2.9 c 0.1,0 0,-0.1 0,0 v 5.8 c 0,0.1 0.1,0 0,0 h -2.9 c -0.055,0 -0.1,0.044 -0.1,0.1 v 6 c 0,0.055 0.045,0.1 0.1,0.1 h 2.9 c 0.1,0 0,-0.1 0,0 v 5.8 c 0,0.1 0.1,0 0,0 h -2.9 c -0.055,0 -0.1,0.044 -0.1,0.1 v 6 c 0,0.055 0.045,0.1 0.1,0.1 h 2.9 c 0.1,0 0,-0.1 0,0 v 5.8 c 0,0.1 0.1,0 0,0 h -2.9 c -0.055,0 -0.1,0.044 -0.1,0.1 v 6 c 0,0.055 0.045,0.1 0.1,0.1 h 2.9 c 0.1,0 0,-0.1 0,0 v 5.8 c 0,0.1 0.1,0 0,0 h -2.9 c -0.055,0 -0.1,0.044 -0.1,0.1 v 6 c 0,0.055 0.045,0.1 0.1,0.1 h 2.9 c 0.1,0 0,-0.1 0,0 v 5.8 c 0,0.1 0.1,0 0,0 h -2.9 c -0.055,0 -0.1,0.044 -0.1,0.1 v 6 c 0,0.055 0.045,0.1 0.1,0.1 h 2.9 c 0.1,0 0,-0.1 0,0 v 5.8 c 0,0.1 0.1,0 0,0 h -2.9 c -0.055,0 -0.1,0.044 -0.1,0.1 v 6 c 0,0.055 0.045,0.1 0.1,0.1 h 2.9 c 0.1,0 0,-0.1 0,0 v 5.8 c 0,0.1 0.1,0 0,0 h -2.9 c -0.055,0 -0.1,0.044 -0.1,0.1 v 6 c 0,0.055 0.045,0.1 0.1,0.1 h 2.9 c 0.1,0 0,-0.1 0,0 v 5.8 c 0,0.1 0.1,0 0,0 h -2.9 c -0.055,0 -0.1,0.044 -0.1,0.1 v 6 c 0,0.055 0.045,0.1 0.1,0.1 h 2.9 c 0.1,0 0,-0.1 0,0 v 5.8 c 0,0.1 0.1,0 0,0 h -2.9 c -0.055,0 -0.1,0.044 -0.1,0.1 v 6 c 0,0.055 0.045,0.1 0.1,0.1 h 2.9 c 0.1,0 0,-0.1 0,0 v 5.8 c 0,0.1 0.1,0 0,0 h -2.9 c -0.055,0 -0.1,0.044 -0.1,0.1 v 6 c 0,0.055 0.045,0.1 0.1,0.1 h 2.9 c 0.1,0 0,-0.1 0,0 v 5.8 c 0,0.1 0.1,0 0,0 h -2.9 c -0.055,0 -0.1,0.044 -0.1,0.1 v 6 c 0,0.055 0.045,0.1 0.1,0.1 h 2.9 c 0.1,0 0,-0.1 0,0 v 5.8 c 0,0.1 0.1,0 0,0 h -2.9 c -0.055,0 -0.1,0.044 -0.1,0.1 v 6 c 0,0.055 0.045,0.1 0.1,0.1 h 2.9 c 0.1,0 0,-0.1 0,0 v 5.8 c 0,0.1 0.1,0 0,0 h -2.9 c -0.055,0 -0.1,0.044 -0.1,0.1 v 6 c 0,0.055 0.045,0.1 0.1,0.1 h 2.9 c 0.1,0 0,-0.1 0,0 v 5.8 c 0,0.1 0.1,0 0,0 h -2.9 c -0.055,0 -0.1,0.044 -0.1,0.1 v 6 c 0,0.055 0.045,0.1 0.1,0.1 h 2.9 c 0.1,0 0,-0.1 0,0 v 5.8 c 0,0.1 0.1,0 0,0 h -2.9 c -0.055,0 -0.1,0.044 -0.1,0.1 v 6 c 0,0.055 0.045,0.1 0.1,0.1 h 2.9 c 0.1,0 0,-0.1 0,0 v 5.8 c 0,0.1 0.1,0 0,0 h -2.9 c -0.055,0 -0.1,0.044 -0.1,0.1 v 6 c 0,0.055 0.045,0.1 0.1,0.1 h 2.9 c 0.1,0 0,-0.1 0,0 v 5.8 c 0,0.1 0.1,0 0,0 h -2.9 c -0.055,0 -0.1,0.044 -0.1,0.1 v 6 c 0,0.055 0.045,0.1 0.1,0.1 h 2.9 c 0.1,0 0,-0.1 0,0 v 5.8 c 0,0.1 0.1,0 0,0 h -2.9 c -0.055,0 -0.1,0.044 -0.1,0.1 v 6 c 0,0.055 0.045,0.1 0.1,0.1 h 2.9 c 0.1,0 0,-0.1 0,0 v 5.8 c 0,0.1 0.1,0 0,0 h -2.9 c -0.055,0 -0.1,0.044 -0.1,0.1 v 6 c 0,0.055 0.045,0.1 0.1,0.1 h 2.9 c 0.1,0 0,-0.1 0,0 v 5.8 c 0,0.1 0.1,0 0,0 h -2.9 c -0.055,0 -0.1,0.044 -0.1,0.1 v 6 c 0,0.055 0.045,0.1 0.1,0.1 h 2.9 c 0.1,0 0,-0.1 0,0 v 5.8 c 0,0.1 0.1,0 0,0 h -2.9 c -0.055,0 -0.1,0.044 -0.1,0.1 v 6 c 0,0.055 0.045,0.1 0.1,0.1 h 2.9 c 0.1,0 0,-0.1 0,0 v 5.8 c 0,0.1 0.1,0 0,0 h -2.9 c -0.055,0 -0.1,0.044 -0.1,0.1 v 6 c 0,0.055 0.045,0.1 0.1,0.1 h 2.9 c 0.1,0 0,-0.1 0,0 v 5.8 c 0,0.1 0.1,0 0,0 h -2.9 c -0.055,0 -0.1,0.044 -0.1,0.1 v 6 c 0,0.055 0.045,0.1 0.1,0.1 h 2.9 c 0.1,0 0,-0.1 0,0 v 5.8 c 0,0.1 0.1,0 0,0 h -2.9 c -0.055,0 -0.1,0.044 -0.1,0.1 v 6 c 0,0.055 0.045,0.1 0.1,0.1 h 2.9 c 0.1,0 0,-0.1 0,0 v 5.8 c 0,0.1 0.1,0 0,0 h -2.9 c -0.055,0 -0.1,0.044 -0.1,0.1 v 6 c 0,0.055 0.045,0.1 0.1,0.1 h 2.9 c 0.1,0 0,-0.1 0,0 v 5.8 c 0,0.1 0.1,0 0,0 h -2.9 c -0.055,0 -0.1,0.044 -0.1,0.1 v 6 c 0,0.055 0.045,0.1 0.1,0.1 h 2.9 c 0.1,0 0,-0.1 0,0 v 5.8 c 0,0.1 0.1,0 0,0 h -2.9 c -0.055,0 -0.1,0.044 -0.1,0.1 v 6 c 0,0.055 0.045,0.1 0.1,0.1 h 2.9 c 0.1,0 0,-0.1 0,0 v 5.8 c 0,0.1 0.1,0 0,0 h -2.9 c -0.055,0 -0.1,0.044 -0.1,0.1 v 6 c 0,0.055 0.045,0.1 0.1,0.1 h 2.9 c 0.1,0 0,-0.1 0,0 v 5.8 c 0,0.1 0.1,0 0,0 h -2.9 c -0.055,0 -0.1,0.044 -0.1,0.1 v 6 c 0,0.055 0.045,0.1 0.1,0.1 h 2.9 c 0.1,0 0,-0.1 0,0 v 5.8 c 0,0.1 0.1,0 0,0 h -2.9 c -0.055,0 -0.1,0.044 -0.1,0.1 v 6 c 0,0.055 0.045,0.1 0.1,0.1 h 2.9 c 0.1,0 0,-0.1 0,0 v 5.8 c 0,0.1 0.1,0 0,0 h -2.9 c -0.055,0 -0.1,0.044 -0.1,0.1 v 6 c 0,0.055 0.045,0.1 0.1,0.1 h 2.9 c 0.1,0 0,-0.1 0,0 v 5.8 c 0,0.1 0.1,0 0,0 h -2.9 c -0.055,0 -0.1,0.044 -0.1,0.1 v 6 c 0,0.055 0.045,0.1 0.1,0.1 h 2.9 c 0.1,0 0,-0.1 0,0 v 5.8 c 0,0.1 0.1,0 0,0 h -2.9 c -0.055,0 -0.1,0.044 -0.1,0.1 v 6 c 0,0.055 0.045,0.1 0.1,0.1 h 2.9 c 0.1,0 0,-0.1 0,0 v 5.8 c 0,0.1 0.1,0 0,0 h -2.9 c -0.055,0 -0.1,0.044 -0.1,0.1 v 6 c 0,0.055 0.045,0.1 0.1,0.1 h 2.9 c 0.1,0 0,-0.1 0,0 v 5.8 c 0,0.1 0.1,0 0,0 h -2.9 c -0.055,0 -0.1,0.044 -0.1,0.1 v 6 c 0,0.055 0.045,0.1 0.1,0.1 h 2.9 c 0.1,0 0,-0.1 0,0 v 9.912 c 0,0.056 0.045,0.1 0.1,0.1 z"
       stroke="#000000"
       stroke-width="0.2"
       id="path23" />
  </g>
  <g
     id="g37"
     transform="rotate(90,1516.929,363.529)">
    <g
       id="p-3"
       style="fill:none;stroke-linecap:round;stroke-linejoin:round">
      <path
         d="m 1156.5,726.225 h 434 3 c 0.055,0 0.1,-0.044 0.1,-0.1 v -9 c 0,-0.055 -0.045,-0.1 -0.1,-0.1 h -2.9 c -0.1,0 0,0.1 0,0 v -5.8 c 0,-0.1 -0.1,0 0,0 h 2.9 c 0.055,0 0.1,-0.044 0.1,-0.1 v -6 c 0,-0.055 -0.045,-0.1 -0.1,-0.1 h -2.9 c -0.1,0 0,0.1 0,0 v -5.8 c 0,-0.1 -0.1,0 0,0 h 2.9 c 0.055,0 0.1,-0.044 0.1,-0.1 v -6 c 0,-0.055 -0.045,-0.1 -0.1,-0.1 h -2.9 c -0.1,0 0,0.1 0,0 v -5.8 c 0,-0.1 -0.1,0 0,0 h 2.9 c 0.055,0 0.1,-0.044 0.1,-0.1 v -6 c 0,-0.055 -0.045,-0.1 -0.1,-0.1 h -2.9 c -0.1,0 0,0.1 0,0 v -5.8 c 0,-0.1 -0.1,0 0,0 h 2.9 c 0.055,0 0.1,-0.044 0.1,-0.1 v -6 c 0,-0.055 -0.045,-0.1 -0.1,-0.1 h -2.9 c -0.1,0 0,0.1 0,0 v -5.8 c 0,-0.1 -0.1,0 0,0 h 2.9 c 0.055,0 0.1,-0.044 0.1,-0.1 v -6 c 0,-0.055 -0.045,-0.1 -0.1,-0.1 h -2.9 c -0.1,0 0,0.1 0,0 v -5.8 c 0,-0.1 -0.1,0 0,0 h 2.9 c 0.055,0 0.1,-0.044 0.1,-0.1 v -6 c 0,-0.055 -0.045,-0.1 -0.1,-0.1 h -2.9 c -0.1,0 0,0.1 0,0 v -5.8 c 0,-0.1 -0.1,0 0,0 h 2.9 c 0.055,0 0.1,-0.044 0.1,-0.1 v -6 c 0,-0.055 -0.045,-0.1 -0.1,-0.1 h -2.9 c -0.1,0 0,0.1 0,0 v -5.8 c 0,-0.1 -0.1,0 0,0 h 2.9 c 0.055,0 0.1,-0.044 0.1,-0.1 v -6 c 0,-0.055 -0.045,-0.1 -0.1,-0.1 h -2.9 c -0.1,0 0,0.1 0,0 v -5.8 c 0,-0.1 -0.1,0 0,0 h 2.9 c 0.055,0 0.1,-0.044 0.1,-0.1 v -6 c 0,-0.055 -0.045,-0.1 -0.1,-0.1 h -2.9 c -0.1,0 0,0.1 0,0 v -5.8 c 0,-0.1 -0.1,0 0,0 h 2.9 c 0.055,0 0.1,-0.044 0.1,-0.1 v -6 c 0,-0.055 -0.045,-0.1 -0.1,-0.1 h -2.9 c -0.1,0 0,0.1 0,0 v -5.8 c 0,-0.1 -0.1,0 0,0 h 2.9 c 0.055,0 0.1,-0.044 0.1,-0.1 v -6 c 0,-0.055 -0.045,-0.1 -0.1,-0.1 h -2.9 c -0.1,0 0,0.1 0,0 v -5.8 c 0,-0.1 -0.1,0 0,0 h 2.9 c 0.055,0 0.1,-0.044 0.1,-0.1 v -6 c 0,-0.055 -0.045,-0.1 -0.1,-0.1 h -2.9 c -0.1,0 0,0.1 0,0 v -5.8 c 0,-0.1 -0.1,0 0,0 h 2.9 c 0.055,0 0.1,-0.044 0.1,-0.1 v -6 c 0,-0.055 -0.045,-0.1 -0.1,-0.1 h -2.9 c -0.1,0 0,0.1 0,0 v -5.8 c 0,-0.1 -0.1,0 0,0 h 2.9 c 0.055,0 0.1,-0.044 0.1,-0.1 v -6 c 0,-0.055 -0.045,-0.1 -0.1,-0.1 h -2.9 c -0.1,0 0,0.1 0,0 v -5.8 c 0,-0.1 -0.1,0 0,0 h 2.9 c 0.055,0 0.1,-0.044 0.1,-0.1 v -6 c 0,-0.055 -0.045,-0.1 -0.1,-0.1 h -2.9 c -0.1,0 0,0.1 0,0 v -5.8 c 0,-0.1 -0.1,0 0,0 h 2.9 c 0.055,0 0.1,-0.044 0.1,-0.1 v -6 c 0,-0.055 -0.045,-0.1 -0.1,-0.1 h -2.9 c -0.1,0 0,0.1 0,0 v -5.8 c 0,-0.1 -0.1,0 0,0 h 2.9 c 0.055,0 0.1,-0.044 0.1,-0.1 v -6 c 0,-0.055 -0.045,-0.1 -0.1,-0.1 h -2.9 c -0.1,0 0,0.1 0,0 v -5.8 c 0,-0.1 -0.1,0 0,0 h 2.9 c 0.055,0 0.1,-0.044 0.1,-0.1 v -6 c 0,-0.055 -0.045,-0.1 -0.1,-0.1 h -2.9 c -0.1,0 0,0.1 0,0 v -5.8 c 0,-0.1 -0.1,0 0,0 h 2.9 c 0.055,0 0.1,-0.044 0.1,-0.1 v -6 c 0,-0.055 -0.045,-0.1 -0.1,-0.1 h -2.9 c -0.1,0 0,0.1 0,0 v -5.8 c 0,-0.1 -0.1,0 0,0 h 2.9 c 0.055,0 0.1,-0.044 0.1,-0.1 v -6 c 0,-0.055 -0.045,-0.1 -0.1,-0.1 h -2.9 c -0.1,0 0,0.1 0,0 v -5.8 c 0,-0.1 -0.1,0 0,0 h 2.9 c 0.055,0 0.1,-0.044 0.1,-0.1 v -6 c 0,-0.055 -0.045,-0.1 -0.1,-0.1 h -2.9 c -0.1,0 0,0.1 0,0 v -5.8 c 0,-0.1 -0.1,0 0,0 h 2.9 c 0.055,0 0.1,-0.044 0.1,-0.1 v -6 c 0,-0.055 -0.045,-0.1 -0.1,-0.1 h -2.9 c -0.1,0 0,0.1 0,0 v -5.8 c 0,-0.1 -0.1,0 0,0 h 2.9 c 0.055,0 0.1,-0.044 0.1,-0.1 v -6 c 0,-0.055 -0.045,-0.1 -0.1,-0.1 h -2.9 c -0.1,0 0,0.1 0,0 v -5.8 c 0,-0.1 -0.1,0 0,0 h 2.9 c 0.055,0 0.1,-0.044 0.1,-0.1 v -9 c 0,-0.055 -0.045,-0.1 -0.1,-0.1 h -3 -10 c -0.055,0 -0.1,0.045 -0.1,0.1 v 2.9 c 0,0.1 0.1,0 0,0 h -5.8 c -0.1,0 0,0.1 0,0 v -2.9 c 0,-0.055 -0.045,-0.1 -0.1,-0.1 h -6 c -0.055,0 -0.1,0.045 -0.1,0.1 v 2.9 c 0,0.1 0.1,0 0,0 h -5.8 c -0.1,0 0,0.1 0,0 v -2.9 c 0,-0.055 -0.045,-0.1 -0.1,-0.1 h -6 c -0.055,0 -0.1,0.045 -0.1,0.1 v 2.9 c 0,0.1 0.1,0 0,0 h -5.8 c -0.1,0 0,0.1 0,0 v -2.9 c 0,-0.055 -0.045,-0.1 -0.1,-0.1 h -6 c -0.055,0 -0.1,0.045 -0.1,0.1 v 2.9 c 0,0.1 0.1,0 0,0 h -5.8 c -0.1,0 0,0.1 0,0 v -2.9 c 0,-0.055 -0.045,-0.1 -0.1,-0.1 h -6 c -0.055,0 -0.1,0.045 -0.1,0.1 v 2.9 c 0,0.1 0.1,0 0,0 h -5.8 c -0.1,0 0,0.1 0,0 v -2.9 c 0,-0.055 -0.045,-0.1 -0.1,-0.1 h -6 c -0.055,0 -0.1,0.045 -0.1,0.1 v 2.9 c 0,0.1 0.1,0 0,0 h -5.8 c -0.1,0 0,0.1 0,0 v -2.9 c 0,-0.055 -0.045,-0.1 -0.1,-0.1 h -6 c -0.055,0 -0.1,0.045 -0.1,0.1 v 2.9 c 0,0.1 0.1,0 0,0 h -5.8 c -0.1,0 0,0.1 0,0 v -2.9 c 0,-0.055 -0.045,-0.1 -0.1,-0.1 h -6 c -0.055,0 -0.1,0.045 -0.1,0.1 v 2.9 c 0,0.1 0.1,0 0,0 h -5.8 c -0.1,0 0,0.1 0,0 v -2.9 c 0,-0.055 -0.045,-0.1 -0.1,-0.1 h -6 c -0.055,0 -0.1,0.045 -0.1,0.1 v 2.9 c 0,0.1 0.1,0 0,0 h -5.8 c -0.1,0 0,0.1 0,0 v -2.9 c 0,-0.055 -0.045,-0.1 -0.1,-0.1 h -6 c -0.055,0 -0.1,0.045 -0.1,0.1 v 2.9 c 0,0.1 0.1,0 0,0 h -5.8 c -0.1,0 0,0.1 0,0 v -2.9 c 0,-0.055 -0.045,-0.1 -0.1,-0.1 h -6 c -0.055,0 -0.1,0.045 -0.1,0.1 v 2.9 c 0,0.1 0.1,0 0,0 h -5.8 c -0.1,0 0,0.1 0,0 v -2.9 c 0,-0.055 -0.045,-0.1 -0.1,-0.1 h -6 c -0.055,0 -0.1,0.045 -0.1,0.1 v 2.9 c 0,0.1 0.1,0 0,0 h -5.8 c -0.1,0 0,0.1 0,0 v -2.9 c 0,-0.055 -0.045,-0.1 -0.1,-0.1 h -6 c -0.055,0 -0.1,0.045 -0.1,0.1 v 2.9 c 0,0.1 0.1,0 0,0 h -5.8 c -0.1,0 0,0.1 0,0 v -2.9 c 0,-0.055 -0.045,-0.1 -0.1,-0.1 h -6 c -0.055,0 -0.1,0.045 -0.1,0.1 v 2.9 c 0,0.1 0.1,0 0,0 h -5.8 c -0.1,0 0,0.1 0,0 v -2.9 c 0,-0.055 -0.045,-0.1 -0.1,-0.1 h -6 c -0.055,0 -0.1,0.045 -0.1,0.1 v 2.9 c 0,0.1 0.1,0 0,0 h -5.8 c -0.1,0 0,0.1 0,0 v -2.9 c 0,-0.055 -0.045,-0.1 -0.1,-0.1 h -6 c -0.055,0 -0.1,0.045 -0.1,0.1 v 2.9 c 0,0.1 0.1,0 0,0 h -5.8 c -0.1,0 0,0.1 0,0 v -2.9 c 0,-0.055 -0.045,-0.1 -0.1,-0.1 h -6 c -0.055,0 -0.1,0.045 -0.1,0.1 v 2.9 c 0,0.1 0.1,0 0,0 h -5.8 c -0.1,0 0,0.1 0,0 v -2.9 c 0,-0.055 -0.045,-0.1 -0.1,-0.1 h -6 c -0.055,0 -0.1,0.045 -0.1,0.1 v 2.9 c 0,0.1 0.1,0 0,0 h -5.8 c -0.1,0 0,0.1 0,0 v -2.9 c 0,-0.055 -0.045,-0.1 -0.1,-0.1 h -6 c -0.055,0 -0.1,0.045 -0.1,0.1 v 2.9 c 0,0.1 0.1,0 0,0 h -5.8 c -0.1,0 0,0.1 0,0 v -2.9 c 0,-0.055 -0.045,-0.1 -0.1,-0.1 h -6 c -0.055,0 -0.1,0.045 -0.1,0.1 v 2.9 c 0,0.1 0.1,0 0,0 h -5.8 c -0.1,0 0,0.1 0,0 v -2.9 c 0,-0.055 -0.045,-0.1 -0.1,-0.1 h -6 c -0.055,0 -0.1,0.045 -0.1,0.1 v 2.9 c 0,0.1 0.1,0 0,0 h -5.8 c -0.1,0 0,0.1 0,0 v -2.9 c 0,-0.055 -0.045,-0.1 -0.1,-0.1 h -6 c -0.055,0 -0.1,0.045 -0.1,0.1 v 2.9 c 0,0.1 0.1,0 0,0 h -5.8 c -0.1,0 0,0.1 0,0 v -2.9 c 0,-0.055 -0.045,-0.1 -0.1,-0.1 h -6 c -0.055,0 -0.1,0.045 -0.1,0.1 v 2.9 c 0,0.1 0.1,0 0,0 h -5.8 c -0.1,0 0,0.1 0,0 v -2.9 c 0,-0.055 -0.045,-0.1 -0.1,-0.1 h -6 c -0.055,0 -0.1,0.045 -0.1,0.1 v 2.9 c 0,0.1 0.1,0 0,0 h -5.8 c -0.1,0 0,0.1 0,0 v -2.9 c 0,-0.055 -0.045,-0.1 -0.1,-0.1 h -6 c -0.055,0 -0.1,0.045 -0.1,0.1 v 2.9 c 0,0.1 0.1,0 0,0 h -5.8 c -0.1,0 0,0.1 0,0 v -2.9 c 0,-0.055 -0.045,-0.1 -0.1,-0.1 h -6 c -0.055,0 -0.1,0.045 -0.1,0.1 v 2.9 c 0,0.1 0.1,0 0,0 h -5.8 c -0.1,0 0,0.1 0,0 v -2.9 c 0,-0.055 -0.045,-0.1 -0.1,-0.1 h -6 c -0.055,0 -0.1,0.045 -0.1,0.1 v 2.9 c 0,0.1 0.1,0 0,0 h -5.8 c -0.1,0 0,0.1 0,0 v -2.9 c 0,-0.055 -0.045,-0.1 -0.1,-0.1 h -6 c -0.055,0 -0.1,0.045 -0.1,0.1 v 2.9 c 0,0.1 0.1,0 0,0 h -5.8 c -0.1,0 0,0.1 0,0 v -2.9 c 0,-0.055 -0.045,-0.1 -0.1,-0.1 h -6 c -0.055,0 -0.1,0.045 -0.1,0.1 v 2.9 c 0,0.1 0.1,0 0,0 h -5.8 c -0.1,0 0,0.1 0,0 v -2.9 c 0,-0.055 -0.045,-0.1 -0.1,-0.1 h -6 c -0.055,0 -0.1,0.045 -0.1,0.1 v 2.9 c 0,0.1 0.1,0 0,0 h -5.8 c -0.1,0 0,0.1 0,0 v -2.9 c 0,-0.055 -0.045,-0.1 -0.1,-0.1 h -6 c -0.055,0 -0.1,0.045 -0.1,0.1 v 2.9 c 0,0.1 0.1,0 0,0 h -5.8 c -0.1,0 0,0.1 0,0 v -2.9 c 0,-0.055 -0.045,-0.1 -0.1,-0.1 h -6 c -0.055,0 -0.1,0.045 -0.1,0.1 v 2.9 c 0,0.1 0.1,0 0,0 h -5.8 c -0.1,0 0,0.1 0,0 v -2.9 c 0,-0.055 -0.045,-0.1 -0.1,-0.1 h -6 c -0.055,0 -0.1,0.045 -0.1,0.1 v 2.9 c 0,0.1 0.1,0 0,0 h -5.8 c -0.1,0 0,0.1 0,0 v -2.9 c 0,-0.055 -0.045,-0.1 -0.1,-0.1 h -6 c -0.055,0 -0.1,0.045 -0.1,0.1 v 2.9 c 0,0.1 0.1,0 0,0 h -5.8 c -0.1,0 0,0.1 0,0 v -2.9 c 0,-0.055 -0.045,-0.1 -0.1,-0.1 h -6 c -0.055,0 -0.1,0.045 -0.1,0.1 v 2.9 c 0,0.1 0.1,0 0,0 h -5.8 c -0.1,0 0,0.1 0,0 v -2.9 c 0,-0.055 -0.045,-0.1 -0.1,-0.1 h -10 -3 c -0.055,0 -0.1,0.045 -0.1,0.1 v 9 c 0,0.056 0.045,0.1 0.1,0.1 h 2.9 c 0.1,0 0,-0.1 0,0 v 5.8 c 0,0.1 0.1,0 0,0 h -2.9 c -0.055,0 -0.1,0.045 -0.1,0.1 v 6 c 0,0.056 0.045,0.1 0.1,0.1 h 2.9 c 0.1,0 0,-0.1 0,0 v 5.8 c 0,0.1 0.1,0 0,0 h -2.9 c -0.055,0 -0.1,0.045 -0.1,0.1 v 6 c 0,0.056 0.045,0.1 0.1,0.1 h 2.9 c 0.1,0 0,-0.1 0,0 v 5.8 c 0,0.1 0.1,0 0,0 h -2.9 c -0.055,0 -0.1,0.045 -0.1,0.1 v 6 c 0,0.056 0.045,0.1 0.1,0.1 h 2.9 c 0.1,0 0,-0.1 0,0 v 5.8 c 0,0.1 0.1,0 0,0 h -2.9 c -0.055,0 -0.1,0.045 -0.1,0.1 v 6 c 0,0.056 0.045,0.1 0.1,0.1 h 2.9 c 0.1,0 0,-0.1 0,0 v 5.8 c 0,0.1 0.1,0 0,0 h -2.9 c -0.055,0 -0.1,0.045 -0.1,0.1 v 6 c 0,0.056 0.045,0.1 0.1,0.1 h 2.9 c 0.1,0 0,-0.1 0,0 v 5.8 c 0,0.1 0.1,0 0,0 h -2.9 c -0.055,0 -0.1,0.045 -0.1,0.1 v 6 c 0,0.056 0.045,0.1 0.1,0.1 h 2.9 c 0.1,0 0,-0.1 0,0 v 5.8 c 0,0.1 0.1,0 0,0 h -2.9 c -0.055,0 -0.1,0.045 -0.1,0.1 v 6 c 0,0.056 0.045,0.1 0.1,0.1 h 2.9 c 0.1,0 0,-0.1 0,0 v 5.8 c 0,0.1 0.1,0 0,0 h -2.9 c -0.055,0 -0.1,0.045 -0.1,0.1 v 6 c 0,0.056 0.045,0.1 0.1,0.1 h 2.9 c 0.1,0 0,-0.1 0,0 v 5.8 c 0,0.1 0.1,0 0,0 h -2.9 c -0.055,0 -0.1,0.045 -0.1,0.1 v 6 c 0,0.056 0.045,0.1 0.1,0.1 h 2.9 c 0.1,0 0,-0.1 0,0 v 5.8 c 0,0.1 0.1,0 0,0 h -2.9 c -0.055,0 -0.1,0.045 -0.1,0.1 v 6 c 0,0.056 0.045,0.1 0.1,0.1 h 2.9 c 0.1,0 0,-0.1 0,0 v 5.8 c 0,0.1 0.1,0 0,0 h -2.9 c -0.055,0 -0.1,0.045 -0.1,0.1 v 6 c 0,0.056 0.045,0.1 0.1,0.1 h 2.9 c 0.1,0 0,-0.1 0,0 v 5.8 c 0,0.1 0.1,0 0,0 h -2.9 c -0.055,0 -0.1,0.045 -0.1,0.1 v 6 c 0,0.056 0.045,0.1 0.1,0.1 h 2.9 c 0.1,0 0,-0.1 0,0 v 5.8 c 0,0.1 0.1,0 0,0 h -2.9 c -0.055,0 -0.1,0.045 -0.1,0.1 v 6 c 0,0.056 0.045,0.1 0.1,0.1 h 2.9 c 0.1,0 0,-0.1 0,0 v 5.8 c 0,0.1 0.1,0 0,0 h -2.9 c -0.055,0 -0.1,0.045 -0.1,0.1 v 6 c 0,0.056 0.045,0.1 0.1,0.1 h 2.9 c 0.1,0 0,-0.1 0,0 v 5.8 c 0,0.1 0.1,0 0,0 h -2.9 c -0.055,0 -0.1,0.045 -0.1,0.1 v 6 c 0,0.056 0.045,0.1 0.1,0.1 h 2.9 c 0.1,0 0,-0.1 0,0 v 5.8 c 0,0.1 0.1,0 0,0 h -2.9 c -0.055,0 -0.1,0.045 -0.1,0.1 v 6 c 0,0.056 0.045,0.1 0.1,0.1 h 2.9 c 0.1,0 0,-0.1 0,0 v 5.8 c 0,0.1 0.1,0 0,0 h -2.9 c -0.055,0 -0.1,0.045 -0.1,0.1 v 6 c 0,0.056 0.045,0.1 0.1,0.1 h 2.9 c 0.1,0 0,-0.1 0,0 v 5.8 c 0,0.1 0.1,0 0,0 h -2.9 c -0.055,0 -0.1,0.045 -0.1,0.1 v 6 c 0,0.056 0.045,0.1 0.1,0.1 h 2.9 c 0.1,0 0,-0.1 0,0 v 5.8 c 0,0.1 0.1,0 0,0 h -2.9 c -0.055,0 -0.1,0.045 -0.1,0.1 v 6 c 0,0.056 0.045,0.1 0.1,0.1 h 2.9 c 0.1,0 0,-0.1 0,0 v 5.8 c 0,0.1 0.1,0 0,0 h -2.9 c -0.055,0 -0.1,0.045 -0.1,0.1 v 6 c 0,0.056 0.045,0.1 0.1,0.1 h 2.9 c 0.1,0 0,-0.1 0,0 v 5.8 c 0,0.1 0.1,0 0,0 h -2.9 c -0.055,0 -0.1,0.045 -0.1,0.1 v 6 c 0,0.056 0.045,0.1 0.1,0.1 h 2.9 c 0.1,0 0,-0.1 0,0 v 5.8 c 0,0.1 0.1,0 0,0 h -2.9 c -0.055,0 -0.1,0.045 -0.1,0.1 v 6 c 0,0.056 0.045,0.1 0.1,0.1 h 2.9 c 0.1,0 0,-0.1 0,0 v 5.8 c 0,0.1 0.1,0 0,0 h -2.9 c -0.055,0 -0.1,0.045 -0.1,0.1 v 6 c 0,0.056 0.045,0.1 0.1,0.1 h 2.9 c 0.1,0 0,-0.1 0,0 v 5.8 c 0,0.1 0.1,0 0,0 h -2.9 c -0.055,0 -0.1,0.045 -0.1,0.1 v 9 c 0,0.056 0.045,0.1 0.1,0.1 z"
         stroke="#000000"
         stroke-width="0.2"
         id="path17" />
    </g>
    <circle
       style="fill:none;fill-opacity:0.0535715;stroke:#000000;stroke-width:1.92005;stroke-linecap:round;stroke-linejoin:round"
       id="path3824"
       cx="1484.625"
       cy="537.49561"
       r="80" />
  </g>
</svg>
